<?xml version="1.0" encoding="UTF-8"?>
<svg id="Layer_2" data-name="Layer 2" xmlns="http://www.w3.org/2000/svg" viewBox="0 0 399.48 400.58">
  <defs>
    <style>
      .cls-1 {
        fill: #0197f8;
      }

      .cls-1, .cls-2, .cls-3, .cls-4, .cls-5, .cls-6, .cls-7, .cls-8, .cls-9, .cls-10, .cls-11 {
        stroke-width: 0px;
      }

      .cls-2 {
        fill: #3b03a6;
      }

      .cls-3 {
        fill: #e9e5f6;
      }

      .cls-4, .cls-5 {
        fill: #79d3fe;
      }

      .cls-5 {
        opacity: .2;
      }

      .cls-6 {
        fill: #535fe9;
      }

      .cls-7 {
        fill: #d7d1eb;
      }

      .cls-12 {
        stroke: #d7d1eb;
      }

      .cls-12, .cls-13 {
        fill: none;
        stroke-miterlimit: 10;
        stroke-width: 2px;
      }

      .cls-8 {
        fill: #ffcda8;
      }

      .cls-9 {
        fill: #fff;
      }

      .cls-10 {
        fill: #baa7f6;
      }

      .cls-13 {
        stroke: #fff;
        stroke-linecap: round;
      }

      .cls-11 {
        fill: #fe61ca;
      }
    </style>
  </defs>
  <g id="OBJECTS">
    <g>
      <circle class="cls-5" cx="295.61" cy="100.55" r="41.08"/>
      <circle class="cls-5" cx="295.61" cy="100.55" r="31.08"/>
      <circle class="cls-5" cx="295.61" cy="100.55" r="21.08"/>
      <line class="cls-13" x1="246.6" y1="66.63" x2="202.01" y2="35.43"/>
      <line class="cls-13" x1="220.39" y1="105.62" x2="140.25" y2="105.62"/>
      <line class="cls-13" x1="348.98" y1="104.14" x2="398.48" y2="104.14"/>
      <line class="cls-13" x1="342.12" y1="131.02" x2="387.98" y2="161.85"/>
      <rect class="cls-9" x="317.86" y="44.95" width="29.25" height="3.25"/>
      <rect class="cls-9" x="317.86" y="52.95" width="9.69" height="3.25"/>
      <rect class="cls-9" x="165.7" y="45.41" width="29.25" height="3.25"/>
      <rect class="cls-9" x="185.26" y="53.41" width="9.69" height="3.25"/>
      <rect class="cls-9" x="92.19" y="130.05" width="29.25" height="3.25" transform="translate(213.63 263.36) rotate(180)"/>
      <rect class="cls-9" x="92.19" y="138.05" width="9.69" height="3.25" transform="translate(194.06 279.36) rotate(180)"/>
      <path class="cls-6" d="M146.59,9.81c-7.97,0-14.44,6.46-14.44,14.44s6.46,14.44,14.44,14.44,14.44-6.46,14.44-14.44-6.46-14.44-14.44-14.44ZM146.59,31.43c-3.97,0-7.19-3.22-7.19-7.19s3.22-7.19,7.19-7.19,7.19,3.22,7.19,7.19-3.22,7.19-7.19,7.19Z"/>
      <path class="cls-6" d="M182.59,9.81c-7.97,0-14.44,6.46-14.44,14.44s6.46,14.44,14.44,14.44,14.44-6.46,14.44-14.44-6.46-14.44-14.44-14.44ZM182.59,31.43c-3.97,0-7.19-3.22-7.19-7.19s3.22-7.19,7.19-7.19,7.19,3.22,7.19,7.19-3.22,7.19-7.19,7.19Z"/>
      <path class="cls-11" d="M146.59,9.81v7.25c3.97,0,7.19,3.22,7.19,7.19h7.25c0-7.97-6.46-14.44-14.44-14.44Z"/>
      <path class="cls-4" d="M189.78,24.24c0,3.97-3.22,7.19-7.19,7.19-1.98,0-3.78-.8-5.08-2.11l-5.13,5.13c2.61,2.61,6.22,4.23,10.21,4.23,7.97,0,14.44-6.46,14.44-14.44s-6.46-14.44-14.44-14.44v7.25c3.97,0,7.19,3.22,7.19,7.19Z"/>
      <g>
        <rect class="cls-2" x="96.12" y="92.23" width="26.79" height="26.79" rx="2.56" ry="2.56"/>
        <rect class="cls-7" x="100.3" y="96.41" width="18.43" height="18.43" rx="1.52" ry="1.52"/>
        <g>
          <path class="cls-8" d="M101.42,94.52h0c-.62,0-1.13-.51-1.13-1.13v-3.81c0-.62.51-1.13,1.13-1.13h0c.62,0,1.13.51,1.13,1.13v3.81c0,.62-.51,1.13-1.13,1.13Z"/>
          <path class="cls-8" d="M106.81,94.52h0c-.62,0-1.13-.51-1.13-1.13v-3.81c0-.62.51-1.13,1.13-1.13h0c.62,0,1.13.51,1.13,1.13v3.81c0,.62-.51,1.13-1.13,1.13Z"/>
          <path class="cls-8" d="M112.21,94.52h0c-.62,0-1.13-.51-1.13-1.13v-3.81c0-.62.51-1.13,1.13-1.13h0c.62,0,1.13.51,1.13,1.13v3.81c0,.62-.51,1.13-1.13,1.13Z"/>
          <path class="cls-8" d="M117.6,94.52h0c-.62,0-1.13-.51-1.13-1.13v-3.81c0-.62.51-1.13,1.13-1.13h0c.62,0,1.13.51,1.13,1.13v3.81c0,.62-.51,1.13-1.13,1.13Z"/>
        </g>
        <g>
          <path class="cls-8" d="M101.42,122.8h0c-.62,0-1.13-.51-1.13-1.13v-3.81c0-.62.51-1.13,1.13-1.13h0c.62,0,1.13.51,1.13,1.13v3.81c0,.62-.51,1.13-1.13,1.13Z"/>
          <path class="cls-8" d="M106.81,122.8h0c-.62,0-1.13-.51-1.13-1.13v-3.81c0-.62.51-1.13,1.13-1.13h0c.62,0,1.13.51,1.13,1.13v3.81c0,.62-.51,1.13-1.13,1.13Z"/>
          <path class="cls-8" d="M112.21,122.8h0c-.62,0-1.13-.51-1.13-1.13v-3.81c0-.62.51-1.13,1.13-1.13h0c.62,0,1.13.51,1.13,1.13v3.81c0,.62-.51,1.13-1.13,1.13Z"/>
          <path class="cls-8" d="M117.6,122.8h0c-.62,0-1.13-.51-1.13-1.13v-3.81c0-.62.51-1.13,1.13-1.13h0c.62,0,1.13.51,1.13,1.13v3.81c0,.62-.51,1.13-1.13,1.13Z"/>
        </g>
        <g>
          <path class="cls-8" d="M120.61,97.53h0c0-.62.51-1.13,1.13-1.13h3.81c.62,0,1.13.51,1.13,1.13h0c0,.62-.51,1.13-1.13,1.13h-3.81c-.62,0-1.13-.51-1.13-1.13Z"/>
          <path class="cls-8" d="M120.61,102.93h0c0-.62.51-1.13,1.13-1.13h3.81c.62,0,1.13.51,1.13,1.13h0c0,.62-.51,1.13-1.13,1.13h-3.81c-.62,0-1.13-.51-1.13-1.13Z"/>
          <path class="cls-8" d="M120.61,108.32h0c0-.62.51-1.13,1.13-1.13h3.81c.62,0,1.13.51,1.13,1.13h0c0,.62-.51,1.13-1.13,1.13h-3.81c-.62,0-1.13-.51-1.13-1.13Z"/>
          <path class="cls-8" d="M120.61,113.71h0c0-.62.51-1.13,1.13-1.13h3.81c.62,0,1.13.51,1.13,1.13h0c0,.62-.51,1.13-1.13,1.13h-3.81c-.62,0-1.13-.51-1.13-1.13Z"/>
        </g>
        <g>
          <path class="cls-8" d="M92.33,97.53h0c0-.62.51-1.13,1.13-1.13h3.81c.62,0,1.13.51,1.13,1.13h0c0,.62-.51,1.13-1.13,1.13h-3.81c-.62,0-1.13-.51-1.13-1.13Z"/>
          <path class="cls-8" d="M92.33,102.93h0c0-.62.51-1.13,1.13-1.13h3.81c.62,0,1.13.51,1.13,1.13h0c0,.62-.51,1.13-1.13,1.13h-3.81c-.62,0-1.13-.51-1.13-1.13Z"/>
          <path class="cls-8" d="M92.33,108.32h0c0-.62.51-1.13,1.13-1.13h3.81c.62,0,1.13.51,1.13,1.13h0c0,.62-.51,1.13-1.13,1.13h-3.81c-.62,0-1.13-.51-1.13-1.13Z"/>
          <path class="cls-8" d="M92.33,113.71h0c0-.62.51-1.13,1.13-1.13h3.81c.62,0,1.13.51,1.13,1.13h0c0,.62-.51,1.13-1.13,1.13h-3.81c-.62,0-1.13-.51-1.13-1.13Z"/>
        </g>
      </g>
      <polygon class="cls-9" points="351.45 245.04 357.11 235.24 362.78 245.04 351.45 245.04"/>
      <polygon class="cls-9" points="92.74 55.93 98.41 46.13 104.07 55.93 92.74 55.93"/>
      <polygon class="cls-9" points="296.08 9.81 301.74 0 307.41 9.81 296.08 9.81"/>
      <polygon class="cls-4" points="296.08 19.61 301.74 9.81 307.41 19.61 296.08 19.61"/>
      <polygon class="cls-4" points="324.64 37.3 317.86 37.3 327.86 17.3 334.64 17.3 324.64 37.3"/>
      <g>
        <polygon class="cls-4" points="289.73 266.55 284.1 266.55 251.98 266.55 254.52 271.65 286.64 271.65 290.98 280.31 337.64 280.31 330.76 266.55 289.73 266.55"/>
        <polygon class="cls-4" points="343.26 266.55 335.6 266.55 342.48 280.31 350.14 280.31 343.26 266.55"/>
      </g>
      <polygon class="cls-4" points="335.88 37.3 329.1 37.3 339.1 17.3 345.88 17.3 335.88 37.3"/>
      <polygon class="cls-4" points="347.11 37.3 340.33 37.3 350.33 17.3 357.11 17.3 347.11 37.3"/>
      <polygon class="cls-11" points="305.02 201.8 298.24 201.8 308.24 181.8 315.02 181.8 305.02 201.8"/>
      <polygon class="cls-11" points="316.25 201.8 309.47 201.8 319.47 181.8 326.25 181.8 316.25 201.8"/>
      <polygon class="cls-11" points="327.49 201.8 320.71 201.8 330.71 181.8 337.49 181.8 327.49 201.8"/>
      <polygon class="cls-4" points="358.35 37.3 351.57 37.3 361.57 17.3 368.35 17.3 358.35 37.3"/>
      <polygon class="cls-1" points="369.59 37.3 362.81 37.3 372.81 17.3 379.59 17.3 369.59 37.3"/>
      <polygon class="cls-11" points="216.5 306.11 214.45 304.07 211.09 307.42 207.74 304.07 205.69 306.11 209.05 309.47 205.69 312.83 207.74 314.87 211.09 311.52 214.45 314.87 216.5 312.83 213.14 309.47 216.5 306.11"/>
      <circle class="cls-9" cx="156.24" cy="79.65" r="3.51"/>
      <circle class="cls-11" cx="245" cy="19.61" r="2.51"/>
    </g>
    <g>
      <circle class="cls-2" cx="144.08" cy="181.94" r="14.97"/>
      <circle class="cls-2" cx="193.22" cy="135.86" r="7.31" transform="translate(28.23 304.88) rotate(-80.8)"/>
      <circle class="cls-2" cx="241.83" cy="110.74" r="7.31" transform="translate(93.79 331.71) rotate(-80.78)"/>
      <path class="cls-2" d="M269.46,222.15c0,3.59-2.91,6.49-6.49,6.49s-6.49-2.91-6.49-6.49,2.91-6.49,6.49-6.49,6.49,2.91,6.49,6.49Z"/>
      <path class="cls-2" d="M265.87,218.17l-1.52,9.58s-11.33-4.83-11.75-5.67c-.43-.83.07-8.67.07-8.67l13.2,4.76Z"/>
      <polygon class="cls-2" points="246.28 175.92 252.59 183.91 244.6 189.42 246.28 175.92"/>
      <polygon class="cls-2" points="235.46 109.79 246.17 105.62 252.43 126.17 245.47 129.18 235.46 109.79"/>
      <polygon class="cls-2" points="187.43 137.49 196.34 131.39 212.47 151.33 204.5 157.67 187.43 137.49"/>
      <polygon class="cls-2" points="116.67 300.92 118.27 299.99 77.21 255.17 70.99 264.44 116.67 300.92"/>
      <path class="cls-10" d="M225.83,257.25s-16.5,13-20.33,14.42c-3.83,1.42-5.17-5.58-1-12.92,4.17-7.33,9.39-14.5,9.39-14.5l-40.89-20.17,33.33-45.62,39.17,55.79-19.67,23Z"/>
      <path class="cls-4" d="M224.33,255.17l-18.83,16.5c3.34-1.23,16.28-11.25,19.57-13.82l-.73-2.68Z"/>
      <polygon class="cls-2" points="197.83 191.54 207.08 187.25 200.98 163.82 197.83 191.54"/>
      <path class="cls-7" d="M251.92,218.17l9.74,3.74,3.33,7.25s-31.83,29.92-38.33,31.92-6.25-16.67-3.12-23.33c3.12-6.67,28.38-19.58,28.38-19.58Z"/>
      <polygon class="cls-7" points="253.73 183.75 267.5 217.08 263 220.08 251.83 215.42 240.83 185.58 253.73 183.75"/>
      <polygon class="cls-4" points="255.14 188.61 265.87 218.17 267.5 217.08 255.7 188.61 255.14 188.61"/>
      <circle class="cls-2" cx="246.17" cy="185.85" r="9.93"/>
      <path class="cls-4" d="M255.14,188.61c0,.59-.05,1.16-.12,1.73.69-1.35,1.08-2.87,1.08-4.49,0-5.48-4.44-9.93-9.93-9.93-.1,0-.2.01-.3.02,5.38,1.71,9.27,6.74,9.27,12.68Z"/>
      <polygon class="cls-2" points="256.47 208.58 253.46 216.69 243.21 207.92 246.17 201.92 256.47 208.58"/>
      <path class="cls-3" d="M243.17,206.17l9.5,7.25s1.67,6,.83,5.67c-.83-.33-23.83,15.83-28.5,19.83-4.67,4-9.11-7-5.97-15.17,3.14-8.17,24.14-17.58,24.14-17.58Z"/>
      <polygon class="cls-2" points="202.83 206.17 207.67 203.17 219.79 226.86 213.19 230.67 202.83 206.17"/>
      <polygon class="cls-3" points="241.83 192.08 248.35 187.25 255.52 191.39 259.17 206.17 253.5 211.25 243.17 206.17 241.83 192.08"/>
      <polygon class="cls-3" points="200.08 157.67 246.17 174.42 247 185.08 232.5 199.25 204.5 188.13 200.08 157.67"/>
      <polygon class="cls-4" points="200.98 163.82 243.21 177.68 247 185.08 246.17 174.42 200.08 157.67 200.98 163.82"/>
      <polygon class="cls-7" points="202.99 177.68 238.83 193.42 232.5 199.25 204.5 188.13 202.99 177.68"/>
      <polygon class="cls-3" points="201.08 159.86 200.98 190.16 179.58 224.67 166.58 229.17 157.33 200.67 201.08 159.86"/>
      <polygon class="cls-7" points="201.01 175.92 164.51 222.79 166.58 229.17 179.58 224.67 200.98 190.16 201.01 175.92"/>
      <polygon class="cls-2" points="141.58 178.42 149.33 167.92 167.67 196.92 166.04 198.74 141.58 178.42"/>
      <polygon class="cls-9" points="0 366.58 68.67 262.58 116.67 300.92 93 400.58 0 366.58"/>
      <path class="cls-9" d="M118.27,299.99l-42.94-36.07-1.25-11.75s38.67-47,42.58-52c3.92-5,4.42-12,6.67-14.5,1.21-1.34,6.37-3.33,10.9-4.88,3.91-1.34,14.38,3.47,14.38,3.47l20.06,16.66,2,19.67,16.76,32.56s-2.1,12.44-11.1,21.77-58.06,25.07-58.06,25.07Z"/>
      <path class="cls-7" d="M187.43,253.15l-.93-1.81-21.33,9s-21.33-10.75-28.25-4.58c-6.92,6.17-15.75,2.83-19.58-2.97-3.83-5.8-7.88,0-7.88,0-4.55,27.87,13.38,42.47,16,44.81h0c13.97-4.76,44.03-15.58,50.88-22.68,9-9.33,11.1-21.77,11.1-21.77Z"/>
      <path class="cls-4" d="M110.76,215.83s-1.19,4.97-7.34,12c-6.15,7.03-11.67,9.36-11.67,9.36,0,0,9-1.44,14.09-8.11,5.09-6.67,4.93-13.25,4.93-13.25Z"/>
      <polygon class="cls-4" points="166.66 199.25 167.67 203.67 168.38 219.04 170.55 219.43 168.67 200.92 166.66 199.25"/>
      <path class="cls-4" d="M151.17,286.08c-13,4.83-29.33,7.81-29.33,7.81l3.62,3.71c13.97-4.76,44.03-15.58,50.88-22.68,0,0-12.17,6.33-25.17,11.17Z"/>
      <path class="cls-4" d="M84.98,238.92h3.61l20.87-25.12v-4.73c-6.78,8.3-16.82,20.54-24.48,29.85Z"/>
      <path class="cls-7" d="M177.44,273.71c8.06-9.16,9.99-20.56,9.99-20.56l-4.06-7.89-34.03,29.52s14.45,2.03,28.11-1.06Z"/>
      <polygon class="cls-9" points="151.5 181.42 149.33 167.92 185.46 137.67 192.98 137.01 204.5 151.92 204.5 159.86 171.5 196.92 167.67 196.92 151.5 181.42"/>
      <polygon class="cls-9" points="214 151.58 207 150.42 195.17 135.75 197 128.92 233.5 109.25 239.5 110.92 246.17 123.08 245.33 130.42 214 151.58"/>
      <path class="cls-9" d="M241.83,110.08l5.33-5.5,31.73-6.14c3.38-.65,6.42,2.18,6,5.59h0c-.94,7.72-6.24,14.22-13.62,16.68l-18.11,6.04-5-4-6.33-12.67Z"/>
      <path class="cls-9" d="M144.08,235.92l56.75-29.75h3.67l10.58,20.5s-.85,5.54-.85,5.29-49.9,39.71-49.9,39.71l-20.25-35.75Z"/>
      <path class="cls-9" d="M207.67,206.17v-4.42s28.83-16.5,36.5-11.33c7.67,5.17,3.33,15-1.33,20-4.67,5-21.5,17.33-21.5,17.33l-4.62-2.67-9.05-18.92Z"/>
      <path class="cls-7" d="M164.33,271.67s49.9-39.96,49.9-39.71.85-5.29.85-5.29l-.17-.33c.75-.28,1.46-.64,2.12-1.07l4.3,2.49s16.83-12.33,21.5-17.33c2.88-3.09,5.64-8.03,5.51-12.57-1.81,3.53-5.37,9.15-11.26,13.4-9.25,6.67-13.54,8.83-13.54,8.83l-2.13-5.46-15.58,10.79,4.33,3.76-35.5,26s-1.95-4.89-3.85-8.2c-.91-1.58-7.59,4.8-13.49,12.33l7,12.36Z"/>
      <polygon class="cls-4" points="214.58 229.87 214.23 231.95 164.33 271.67 163.33 268.92 214.58 229.87"/>
      <circle class="cls-2" cx="152.69" cy="255.17" r="19.89"/>
      <circle class="cls-2" cx="211.31" cy="216.69" r="10.31"/>
      <path class="cls-4" d="M210.63,208.73c5.11,0,9.24,4.14,9.24,9.24,0,1.3-.27,2.53-.75,3.65.9-1.43,1.44-3.12,1.44-4.93,0-5.11-4.14-9.24-9.24-9.24-3.81,0-7.08,2.3-8.49,5.59,1.64-2.59,4.52-4.31,7.81-4.31Z"/>
      <path class="cls-4" d="M151.47,240.23c9.52,0,17.24,7.72,17.24,17.24,0,2.42-.5,4.72-1.4,6.81,1.69-2.66,2.68-5.81,2.68-9.2,0-9.52-7.72-17.24-17.24-17.24-7.1,0-13.2,4.3-15.84,10.43,3.05-4.83,8.43-8.04,14.56-8.04Z"/>
      <path class="cls-7" d="M109.87,262.58c0-24.68,20.08-44.75,44.75-44.75,5.71,0,11.17,1.09,16.19,3.04l-.15-.29-.2-1.99c-4.95-1.79-10.28-2.77-15.84-2.77-25.78,0-46.75,20.97-46.75,46.75,0,14.16,6.34,26.86,16.32,35.44.69-.23,1.43-.48,2.21-.75-10.07-8.21-16.52-20.71-16.52-34.69Z"/>
      <line class="cls-12" x1="102.23" y1="289.39" x2="61" y2="383.92"/>
      <line class="cls-12" x1="160.98" y1="190.51" x2="200.53" y2="146.78"/>
      <line class="cls-12" x1="202.83" y1="145.25" x2="244.6" y2="120.23"/>
      <path class="cls-7" d="M246.93,120.27l37-12.03c.26-.75.47-1.53.64-2.31l-38.55,12.53.9,1.81Z"/>
      <polygon class="cls-7" points="107.87 293.89 74.08 393.67 93 400.58 116.67 300.92 107.87 293.89"/>
      <path class="cls-10" d="M265,229.17l-3.33-7.25-33.4,38.42c8.96-5.07,36.73-31.17,36.73-31.17Z"/>
      <path class="cls-10" d="M252.34,219.61l-33.6,15.31c1.21,3.87,3.7,6.18,6.25,3.99,4.12-3.53,22.5-16.52,27.34-19.31Z"/>
      <polygon class="cls-4" points="248.35 187.25 253.21 192.42 256.47 204.04 253.5 211.25 259.17 206.17 255.52 191.39 248.35 187.25"/>
      <g>
        <polygon class="cls-7" points="214 151.58 245.33 130.42 246.17 123.08 207 150.42 214 151.58"/>
        <polygon class="cls-7" points="204.5 159.86 204.5 151.92 167.67 196.92 171.5 196.92 204.5 159.86"/>
        <path class="cls-7" d="M269.46,116.42c-7.63,2.75-21.3,6.33-21.3,6.33l5,4,18.11-6.04c5.11-1.7,9.22-5.34,11.58-9.98-.03.01-5.79,2.94-13.4,5.68Z"/>
      </g>
      <path class="cls-4" d="M265,229.17l-.65-1.42h0l-21.12,21.01c10.5-9,21.78-19.6,21.78-19.6Z"/>
      <path class="cls-4" d="M269.46,222.15c0-1.64-.61-3.13-1.61-4.27l-.79.45c1.01,1.33,1.63,2.99,1.63,4.79,0,1.06-.21,2.07-.59,3,.85-1.1,1.36-2.47,1.36-3.96Z"/>
      <path class="cls-4" d="M278.9,98.44l-31.73,6.14,37-3.83c-1.06-1.7-3.09-2.73-5.27-2.31Z"/>
      <polygon class="cls-4" points="195.17 135.75 198.09 130.42 232.33 112.55 239.5 110.92 233.5 109.25 197 128.92 195.17 135.75"/>
      <polygon class="cls-4" points="151.5 181.42 152.83 169.25 185.91 140.58 192.98 137.01 185.46 137.67 149.33 167.92 151.5 181.42"/>
      <path class="cls-4" d="M134.23,180.78c-4.53,1.56-9.69,3.54-10.9,4.88-2.25,2.5-2.75,9.5-6.67,14.5-.71.91-2.56,3.19-5.11,6.32l1.59,5.3,2.56-5.62s7.96-7.08,8.79-11.65c.83-4.57,2.17-5.93,7.5-9.43,5.33-3.5,16.61-.83,16.61-.83,0,0-10.46-4.81-14.38-3.47Z"/>
      <path class="cls-7" d="M113.15,211.25c0-2.04-.21-4.04-.62-5.96-.52.64-1.08,1.33-1.67,2.05.19,1.28.29,2.58.29,3.91,0,14.44-11.37,26.27-25.63,27-.57.69-1.13,1.37-1.67,2.03.09,0,.17,0,.26,0,16.01,0,29.04-13.03,29.04-29.04Z"/>
      <polygon class="cls-4" points="116.67 300.92 113.78 298.61 104.95 350.24 116.67 300.92"/>
      <polygon class="cls-4" points="122.46 298.61 118.27 295.79 115.42 297.6 118.27 299.99 122.46 298.61"/>
      <path class="cls-4" d="M144.36,169.56l.58-2.56c-.29-.02-.57-.04-.86-.04-7.27,0-13.33,5.19-14.69,12.06,2.54-5.58,8.15-9.47,14.69-9.47.09,0,.19,0,.28.01Z"/>
      <polygon class="cls-4" points="82.73 241.65 85.67 241.65 76.67 253.42 75.33 263.92 74.08 252.17 82.73 241.65"/>
      <polygon class="cls-4" points="74.08 266.91 0 366.58 68.67 262.58 74.08 266.91"/>
      <g>
        <path class="cls-4" d="M244.17,190.42c-7.67-5.17-36.5,11.33-36.5,11.33v4.42s1.17-3.08,1.58-3.62c.42-.54,12.08-4.96,21.08-8.96,9-4,15.17-2.11,15.17-2.11-.4-.37-.84-.72-1.33-1.05Z"/>
        <path class="cls-4" d="M205.16,207.45h0l-.66-1.28h-3.67l-56.75,29.75c4.92.17,56.44-28.47,56.44-28.47h4.63Z"/>
      </g>
      <g>
        <path class="cls-4" d="M214,151.58l31.33-21.17.28-2.46c-.18.05-.28.09-.28.09l-32.86,23.29,1.53.25Z"/>
        <polygon class="cls-4" points="204.5 156.64 204.46 156.67 169.83 196.92 171.5 196.92 204.5 159.86 204.5 156.64"/>
        <path class="cls-4" d="M271.28,120.72c3.8-1.27,7.04-3.61,9.43-6.63-.12.08-3.61,2.34-9.75,5.19-3.84,1.78-12.62,4.68-18.83,6.65l1.03.83,18.11-6.04Z"/>
      </g>
      <path class="cls-4" d="M195.8,129.03c-.8-.3-1.67-.48-2.58-.48-3.88,0-7.05,3.03-7.28,6.85.85-3.1,3.67-5.38,7.04-5.38.81,0,1.58.14,2.31.38l.52-1.37Z"/>
      <path class="cls-4" d="M245.86,104.64c-1.15-.76-2.54-1.21-4.02-1.21-2.39,0-4.51,1.16-5.84,2.93,1.25-.96,2.81-1.53,4.51-1.53,1.41,0,2.72.4,3.84,1.07.46-.38,1.01-.84,1.52-1.27Z"/>
      <path class="cls-4" d="M242.83,210.42c2.15-2.3,4.22-5.62,5.09-9.04,0,0,0,0,0,0,0,0-4.59,7.55-10.09,12.05s-18.04,13.44-18.04,13.44l1.54.89s16.83-12.33,21.5-17.33Z"/>
      <path class="cls-4" d="M253.46,216.69s-20.93,14.83-24.03,18.78h0c8.25-6.15,23.39-16.65,24.07-16.38.39.15.23-1.05-.04-2.39Z"/>
    </g>
  </g>
</svg>