<?xml version="1.0" encoding="UTF-8"?>
<svg id="Layer_2" data-name="Layer 2" xmlns="http://www.w3.org/2000/svg" viewBox="0 0 391.07 388.23">
  <defs>
    <style>
      .cls-1, .cls-2, .cls-3, .cls-4, .cls-5, .cls-6, .cls-7, .cls-8, .cls-9, .cls-10, .cls-11, .cls-12, .cls-13, .cls-14, .cls-15, .cls-16, .cls-17, .cls-18, .cls-19, .cls-20, .cls-21, .cls-22, .cls-23, .cls-24, .cls-25, .cls-26, .cls-27, .cls-28, .cls-29, .cls-30 {
        stroke-width: 0px;
      }

      .cls-1, .cls-4, .cls-15 {
        fill: #7790f1;
      }

      .cls-2 {
        fill: #263238;
      }

      .cls-3 {
        fill: #455a64;
      }

      .cls-4, .cls-7, .cls-29 {
        opacity: .3;
      }

      .cls-5 {
        fill: #ffa8a7;
      }

      .cls-6, .cls-7, .cls-14, .cls-18, .cls-21, .cls-24 {
        fill: #fff;
      }

      .cls-6, .cls-31 {
        opacity: .6;
      }

      .cls-8 {
        fill: #b16668;
      }

      .cls-9 {
        fill: #2c4593;
      }

      .cls-10 {
        fill: #f28f8f;
      }

      .cls-11 {
        fill: #f0f0f0;
      }

      .cls-12 {
        fill: #9a4a4d;
      }

      .cls-13 {
        opacity: .15;
      }

      .cls-13, .cls-16, .cls-26, .cls-27, .cls-29, .cls-30 {
        fill: #000;
      }

      .cls-14 {
        opacity: .7;
      }

      .cls-15 {
        opacity: .65;
      }

      .cls-16 {
        opacity: .35;
      }

      .cls-17 {
        fill: #f5f5f5;
      }

      .cls-18 {
        opacity: .4;
      }

      .cls-19 {
        fill: #ebebeb;
      }

      .cls-20 {
        fill: #e0e0e0;
      }

      .cls-21, .cls-30 {
        opacity: .2;
      }

      .cls-22 {
        fill: #ffbda7;
      }

      .cls-23 {
        fill: #f0997a;
      }

      .cls-25 {
        fill: #fafafa;
      }

      .cls-26 {
        opacity: .25;
      }

      .cls-27 {
        opacity: .1;
      }

      .cls-28 {
        fill: #37474f;
      }
    </style>
  </defs>
  <g id="Shadows">
    <path id="Shadow" class="cls-27" d="M127.11,258.62c-35.21,20.33-35.21,53.29,0,73.62,35.21,20.33,92.31,20.33,127.52,0,35.21-20.33,35.21-53.29,0-73.62-35.21-20.33-92.31-20.33-127.52,0Z"/>
    <path id="Shadow-2" data-name="Shadow" class="cls-27" d="M284.86,231.05c-11.5-6.64-11.5-17.4,0-24.04,11.5-6.64,30.14-6.64,41.63,0,11.5,6.64,11.49,17.4,0,24.04-11.5,6.64-30.14,6.64-41.63,0Z"/>
    <path id="Shadow-3" data-name="Shadow" class="cls-27" d="M90.31,231.05c11.5-6.64,11.5-17.4,0-24.04-11.5-6.64-30.14-6.64-41.63,0-11.49,6.64-11.49,17.4,0,24.04,11.5,6.64,30.14,6.64,41.63,0Z"/>
    <path id="Shadow-4" data-name="Shadow" class="cls-27" d="M16.55,324.02c-22.07,12.74-22.07,33.4,0,46.14,22.07,12.74,57.85,12.74,79.92,0,22.07-12.74,22.07-33.4,0-46.14-22.07-12.74-57.85-12.74-79.92,0Z"/>
    <path id="Shadow-5" data-name="Shadow" class="cls-27" d="M294.6,332.53c-22.07,12.74-22.07,33.4,0,46.14,22.07,12.74,57.85,12.74,79.92,0,22.07-12.74,22.07-33.4,0-46.14-22.07-12.74-57.85-12.74-79.92,0Z"/>
  </g>
  <g id="Gears">
    <path id="Gear" class="cls-11" d="M82.27,56.02s-.03,0-.04,0c-1.15,0-2.34-.09-3.51-.29-1.18-.19-2.33-.48-3.42-.85-.52-.18-.83-.7-.74-1.25l.48-2.92c-1.48-.66-2.85-1.5-4.08-2.52l-2.39,1.72c-.45.32-1.06.28-1.45-.11-1.68-1.66-3.06-3.58-4.11-5.71-.24-.49-.09-1.1.36-1.41l2.4-1.73c-.58-1.5-.95-3.07-1.1-4.66l-2.91-.48c-.55-.09-.95-.55-.95-1.1,0-1.18.09-2.37.28-3.53.19-1.16.48-2.31.86-3.42.18-.52.7-.84,1.25-.74l2.91.48c.65-1.47,1.5-2.83,2.53-4.08l-1.72-2.39c-.32-.44-.27-1.07.11-1.46,1.67-1.68,3.6-3.06,5.71-4.1.49-.24,1.09-.09,1.41.36l1.72,2.39c1.51-.58,3.08-.95,4.67-1.09l.48-2.92c.09-.55.55-.96,1.1-.95,1.16,0,2.34.09,3.52.29,1.18.19,2.33.48,3.42.85.52.18.83.7.74,1.25l-.48,2.92c1.47.64,2.84,1.49,4.08,2.52l2.39-1.72c.44-.32,1.07-.27,1.45.11,1.68,1.66,3.06,3.58,4.11,5.71.24.49.09,1.1-.36,1.42l-2.4,1.72c.58,1.51.95,3.08,1.1,4.67l2.91.48c.55.09.95.55.95,1.1,0,1.15-.09,2.33-.29,3.52-.19,1.15-.48,2.3-.85,3.43-.18.52-.7.84-1.25.75h0s-2.91-.48-2.91-.48c-.65,1.47-1.5,2.83-2.53,4.07l1.72,2.39c.32.45.28,1.06-.11,1.45-1.67,1.69-3.59,3.07-5.71,4.11-.49.24-1.09.09-1.41-.36l-1.72-2.39c-1.49.57-3.06.94-4.67,1.09l-.48,2.92c-.09.54-.53.93-1.06.95ZM70.95,46.98c.13,0,.27.04.37.13,1.33,1.16,2.84,2.09,4.5,2.78.23.1.36.34.32.58l-.54,3.33c1.07.42,2.16.69,3.28.87,1.12.18,2.24.27,3.34.27l.6-3.38c.04-.25.24-.43.49-.45,1.79-.12,3.53-.53,5.16-1.2.23-.09.49-.02.64.18l1.96,2.73c2.08-.97,3.91-2.28,5.49-3.88l-1.96-2.81c-.14-.2-.13-.48.03-.66,1.17-1.34,2.11-2.85,2.79-4.49.1-.23.34-.36.58-.32l3.32.54s.06-.01.07-.03c.36-1.07.63-2.17.81-3.26.18-1.12.28-2.25.27-3.34l-3.37-.6c-.25-.04-.43-.24-.45-.49-.12-1.77-.53-3.5-1.21-5.16-.09-.23-.02-.49.18-.64l2.74-1.96c-.97-2.09-2.29-3.92-3.88-5.49l-2.81,1.96c-.2.14-.48.13-.66-.03-1.35-1.17-2.86-2.11-4.5-2.78-.23-.09-.37-.34-.33-.58l.55-3.33c-1.07-.42-2.16-.69-3.28-.87-1.12-.18-2.24-.27-3.34-.27l-.6,3.38c-.04.25-.24.43-.49.45-1.77.11-3.5.52-5.15,1.2-.23.09-.49.02-.64-.18l-1.96-2.73c-2.08.97-3.91,2.28-5.5,3.87l1.97,2.81c.14.2.13.48-.03.66-1.17,1.35-2.11,2.87-2.79,4.5-.1.23-.34.36-.58.32l-3.32-.54c-.43,1.09-.7,2.18-.88,3.28-.18,1.1-.27,2.23-.26,3.35l3.37.6c.25.04.43.24.45.49.12,1.77.53,3.5,1.21,5.15.1.23.02.49-.18.64l-2.74,1.97c.98,2.09,2.29,3.92,3.88,5.49l2.81-1.96c.09-.06.19-.1.29-.1ZM82.71,44.93c-3.54.14-6.85-1.42-8.9-4.28-2.38-3.32-2.57-7.67-.48-11.37,1.38-2.44,3.84-4.21,6.59-4.74,4.17-.8,8.24.76,10.62,4.08,2.39,3.32,2.57,7.67.48,11.37-1.38,2.44-3.84,4.21-6.59,4.73h0c-.58.11-1.15.18-1.72.2ZM81.67,25.42c-.51.02-1.03.08-1.55.18-2.44.47-4.63,2.04-5.86,4.21-1.88,3.33-1.72,7.24.42,10.22,2.14,2.98,5.8,4.38,9.55,3.65h0c2.44-.47,4.63-2.04,5.86-4.21,1.88-3.33,1.72-7.24-.42-10.22-1.84-2.56-4.81-3.96-8-3.83Z"/>
    <path id="Gear-2" data-name="Gear" class="cls-11" d="M121.52,9.07c-2.23.43-4.24,1.87-5.36,3.85-1.69,3-1.54,6.54.39,9.23,1.43,1.99,3.66,3.23,6.11,3.45.37.03.74.04,1.12.03.46-.02.93-.07,1.39-.16,2.23-.43,4.24-1.87,5.36-3.85,1.69-3,1.54-6.54-.39-9.23-1.94-2.7-5.24-3.96-8.62-3.31ZM129.63,21.11c-.97,1.72-2.71,2.97-4.65,3.34-2.98.58-5.89-.54-7.59-2.9-1.7-2.37-1.83-5.48-.33-8.12.97-1.72,2.71-2.97,4.65-3.34.41-.08.83-.13,1.24-.14.33-.01.67,0,.99.02,2.15.19,4.11,1.28,5.36,3.02,1.7,2.36,1.83,5.48.33,8.12ZM140.62,17.22c0-.49-.35-.89-.84-.97l-2.27-.37c-.12-1.24-.41-2.47-.86-3.65l1.87-1.34c.39-.28.53-.82.31-1.25-.85-1.72-1.97-3.27-3.32-4.61-.34-.34-.89-.38-1.28-.1l-1.87,1.34c-.97-.8-2.04-1.46-3.19-1.97l.37-2.28c.08-.48-.2-.95-.66-1.1-.88-.3-1.81-.53-2.77-.69-.95-.16-1.91-.23-2.84-.23-.48-.01-.9.35-.98.84l-.37,2.28c-1.25.12-2.47.4-3.65.85l-1.34-1.87c-.29-.4-.81-.53-1.24-.32-1.71.84-3.26,1.96-4.62,3.31-.34.34-.38.89-.1,1.28l1.35,1.87c-.8.97-1.46,2.05-1.98,3.19l-2.27-.37c-.48-.08-.95.19-1.1.65-.31.9-.54,1.83-.69,2.77-.15.93-.23,1.89-.22,2.85,0,.48.35.89.84.97l2.27.37c.12,1.24.41,2.47.86,3.64l-1.87,1.35c-.39.28-.53.82-.31,1.25.85,1.72,1.96,3.27,3.32,4.61.35.34.88.38,1.28.1l1.87-1.34c.96.79,2.03,1.45,3.19,1.97l-.37,2.28c-.08.48.2.95.66,1.1.88.3,1.81.53,2.77.69.43.07.86.13,1.29.16.52.05,1.04.07,1.56.07h.02c.47-.02.86-.37.94-.84l.37-2.28c1.26-.12,2.48-.41,3.65-.85l1.34,1.87c.29.4.81.53,1.24.32,1.71-.84,3.27-1.96,4.61-3.32.34-.34.38-.88.1-1.28l-1.34-1.87c.8-.97,1.46-2.04,1.98-3.18l2.27.37c.48.08.95-.2,1.1-.66.3-.91.54-1.84.69-2.77.16-.95.23-1.91.23-2.84ZM139.37,19.89c-.14.86-.35,1.72-.64,2.57l-2.64-.43c-.24-.04-.47.09-.56.31-.55,1.31-1.3,2.52-2.23,3.59-.16.18-.17.44-.03.64l1.54,2.2c-1.27,1.27-2.7,2.28-4.27,3.02l-1.54-2.14c-.14-.2-.39-.27-.62-.18-1.3.54-2.69.86-4.12.96-.24.02-.43.19-.47.43l-.47,2.65c-.86,0-1.73-.08-2.6-.22-.95-.15-1.78-.37-2.56-.67l.43-2.61c.04-.24-.09-.47-.31-.56-1.32-.55-2.53-1.3-3.6-2.22-.1-.09-.23-.13-.36-.13-.1,0-.2.04-.28.1l-2.2,1.54c-1.26-1.26-2.28-2.7-3.02-4.28l2.14-1.54c.2-.14.27-.4.17-.62-.54-1.31-.87-2.7-.97-4.11-.02-.24-.19-.43-.43-.47l-2.64-.47c0-.87.07-1.75.21-2.61.15-.93.37-1.76.68-2.56l2.6.43s.03,0,.04,0c.22.02.43-.11.52-.32.54-1.31,1.29-2.52,2.23-3.6.16-.18.17-.44.03-.64l-1.54-2.2c1.27-1.26,2.71-2.28,4.28-3.01l1.54,2.14c.14.19.39.27.62.18,1.32-.55,2.71-.87,4.12-.96.24-.02.44-.19.48-.43l.47-2.65c.85,0,1.73.07,2.6.22.95.15,1.78.37,2.56.67l-.43,2.61c-.04.24.09.47.31.56,1.31.54,2.52,1.28,3.59,2.22.18.16.44.17.64.03l2.2-1.54c1.26,1.26,2.28,2.7,3.02,4.28l-2.14,1.53c-.2.14-.27.39-.18.62.54,1.32.87,2.71.97,4.12.02.24.2.44.43.47l2.64.47c0,.85-.07,1.72-.22,2.6Z"/>
    <path id="Gear-3" data-name="Gear" class="cls-11" d="M290.5,55.07l-.48-2.92c-1.61-.15-3.18-.52-4.67-1.09l-1.72,2.39c-.32.45-.92.6-1.41.36-2.12-1.04-4.04-2.43-5.71-4.11-.39-.39-.43-1-.11-1.45l1.72-2.39c-1.03-1.24-1.88-2.6-2.53-4.07l-2.91.48h0c-.56.09-1.08-.23-1.25-.75-.38-1.13-.66-2.28-.85-3.43-.19-1.18-.29-2.37-.29-3.52,0-.55.4-1.02.95-1.1l2.91-.48c.15-1.6.52-3.16,1.1-4.67l-2.4-1.72c-.44-.32-.6-.93-.36-1.42,1.05-2.13,2.43-4.05,4.11-5.71.38-.38,1.01-.43,1.45-.11l2.39,1.72c1.24-1.03,2.61-1.88,4.08-2.52l-.48-2.92c-.09-.55.22-1.08.74-1.25,1.09-.37,2.24-.66,3.42-.85,1.18-.19,2.36-.29,3.52-.29.55-.01,1.02.4,1.1.95l.48,2.92c1.6.14,3.17.51,4.67,1.09l1.72-2.39c.32-.45.92-.6,1.41-.36,2.12,1.04,4.04,2.42,5.71,4.1.38.39.43,1.01.11,1.46l-1.72,2.39c1.03,1.24,1.88,2.61,2.53,4.08l2.91-.48c.55-.09,1.07.22,1.25.74.38,1.11.67,2.27.86,3.42.19,1.16.28,2.35.28,3.53,0,.55-.4,1.01-.95,1.1l-2.91.48c-.15,1.6-.52,3.16-1.1,4.66l2.4,1.73c.45.32.6.93.36,1.41-1.05,2.13-2.43,4.05-4.11,5.71-.39.39-1,.43-1.45.11l-2.39-1.72c-1.23,1.02-2.6,1.87-4.08,2.52l.48,2.92c.09.55-.22,1.07-.74,1.25-1.09.37-2.25.66-3.42.85-1.18.19-2.36.29-3.51.29-.01,0-.03,0-.04,0-.53-.02-.98-.41-1.06-.95ZM303.18,47.08l2.81,1.96c1.59-1.58,2.91-3.4,3.88-5.49l-2.74-1.97c-.2-.14-.28-.41-.18-.64.68-1.64,1.09-3.38,1.21-5.15.02-.25.2-.45.45-.49l3.37-.6c0-1.12-.08-2.25-.26-3.35-.18-1.1-.45-2.19-.88-3.28l-3.32.54c-.24.04-.48-.09-.58-.32-.68-1.64-1.62-3.15-2.79-4.5-.16-.19-.17-.46-.03-.66l1.97-2.81c-1.59-1.6-3.42-2.91-5.5-3.87l-1.96,2.73c-.14.2-.41.28-.64.18-1.65-.68-3.39-1.09-5.15-1.2-.25-.02-.45-.2-.49-.45l-.6-3.38c-1.1,0-2.22.09-3.34.27-1.12.18-2.22.45-3.28.87l.55,3.33c.04.25-.1.49-.33.58-1.64.67-3.15,1.61-4.5,2.78-.19.16-.46.18-.66.03l-2.81-1.96c-1.59,1.58-2.91,3.4-3.88,5.49l2.74,1.96c.2.14.28.41.18.64-.68,1.65-1.09,3.39-1.21,5.16-.02.25-.2.45-.45.49l-3.37.6c0,1.09.09,2.22.27,3.34.18,1.09.45,2.19.81,3.26,0,.02.04.04.07.03l3.32-.54c.24-.04.48.09.58.32.68,1.64,1.62,3.15,2.79,4.49.16.19.18.46.03.66l-1.96,2.81c1.59,1.6,3.41,2.92,5.49,3.88l1.96-2.73c.14-.2.41-.28.64-.18,1.63.67,3.36,1.08,5.16,1.2.25.02.45.2.49.45l.6,3.38c1.1,0,2.22-.09,3.34-.27,1.12-.18,2.22-.45,3.28-.87l-.54-3.33c-.04-.24.09-.49.32-.58,1.66-.69,3.17-1.63,4.5-2.78.11-.09.24-.14.37-.13.1,0,.2.04.29.1ZM289.42,44.73h0c-2.75-.53-5.21-2.3-6.59-4.73-2.09-3.69-1.9-8.05.48-11.37,2.38-3.32,6.45-4.88,10.62-4.08,2.75.53,5.21,2.3,6.59,4.74,2.09,3.69,1.9,8.05-.48,11.37-2.06,2.86-5.36,4.42-8.9,4.28-.57-.02-1.14-.09-1.72-.2ZM284.18,29.25c-2.14,2.98-2.3,6.89-.42,10.22,1.22,2.17,3.41,3.74,5.86,4.21h0c3.75.72,7.41-.68,9.55-3.65,2.14-2.98,2.3-6.89.42-10.22-1.22-2.17-3.41-3.74-5.86-4.21-.52-.1-1.04-.16-1.55-.18-3.18-.12-6.15,1.27-8,3.83Z"/>
    <path id="Gear-4" data-name="Gear" class="cls-11" d="M243.7,12.39c-1.94,2.7-2.09,6.23-.39,9.23,1.12,1.98,3.12,3.42,5.36,3.85.46.09.93.14,1.39.16.38.01.75,0,1.12-.03,2.45-.22,4.68-1.46,6.11-3.45,1.94-2.7,2.09-6.23.39-9.23-1.12-1.98-3.12-3.42-5.36-3.85-3.38-.65-6.69.62-8.62,3.31ZM244.54,12.99c1.25-1.74,3.21-2.83,5.36-3.02.33-.03.66-.04.99-.02.41.02.83.06,1.24.14,1.94.37,3.68,1.62,4.65,3.34,1.49,2.64,1.37,5.76-.33,8.12-1.7,2.37-4.61,3.48-7.59,2.9-1.94-.37-3.68-1.62-4.65-3.34-1.49-2.64-1.37-5.76.33-8.12ZM233.45,20.06c.15.93.38,1.86.69,2.77.15.46.62.74,1.1.66l2.27-.37c.52,1.14,1.18,2.21,1.98,3.18l-1.34,1.87c-.29.4-.24.93.1,1.28,1.35,1.36,2.9,2.48,4.61,3.32.43.21.96.08,1.24-.32l1.34-1.87c1.17.44,2.39.73,3.65.85l.37,2.28c.08.47.47.82.94.83h.02c.52,0,1.04-.02,1.56-.07.43-.04.86-.09,1.29-.16.95-.15,1.88-.39,2.77-.69.46-.16.74-.62.66-1.1l-.37-2.28c1.15-.52,2.22-1.18,3.19-1.97l1.87,1.34c.4.28.93.24,1.28-.1,1.36-1.34,2.47-2.9,3.32-4.61.21-.43.08-.97-.31-1.25l-1.87-1.35c.45-1.17.74-2.4.86-3.64l2.27-.37c.48-.08.83-.49.84-.97,0-.96-.07-1.92-.22-2.85-.15-.93-.39-1.87-.69-2.77-.16-.46-.63-.74-1.1-.65l-2.27.37c-.51-1.14-1.18-2.21-1.98-3.19l1.35-1.87c.28-.39.24-.94-.1-1.28-1.35-1.36-2.9-2.47-4.62-3.31-.44-.21-.96-.08-1.24.32l-1.34,1.87c-1.18-.45-2.4-.73-3.65-.85l-.37-2.28c-.08-.49-.5-.85-.98-.84-.93,0-1.89.07-2.84.23-.95.16-1.88.39-2.77.69-.46.16-.74.62-.66,1.1l.37,2.28c-1.14.51-2.22,1.17-3.19,1.97l-1.87-1.34c-.39-.28-.94-.24-1.28.1-1.35,1.34-2.47,2.89-3.32,4.61-.21.43-.08.96.31,1.25l1.87,1.34c-.45,1.18-.73,2.41-.86,3.65l-2.27.37c-.48.08-.84.49-.84.97,0,.93.07,1.89.23,2.84ZM234.26,17.29l2.64-.47c.24-.04.41-.23.43-.47.1-1.41.42-2.8.97-4.12.09-.22.02-.48-.18-.62l-2.14-1.53c.74-1.58,1.76-3.01,3.02-4.28l2.2,1.54c.2.14.46.13.64-.03,1.08-.94,2.29-1.69,3.59-2.22.22-.09.35-.32.31-.56l-.43-2.61c.77-.3,1.61-.52,2.56-.67.87-.14,1.75-.22,2.6-.22l.47,2.65c.04.24.24.42.48.43,1.41.09,2.79.41,4.12.96.22.09.48.02.62-.18l1.54-2.14c1.57.74,3.01,1.75,4.28,3.01l-1.54,2.2c-.14.19-.13.46.03.64.94,1.08,1.69,2.29,2.23,3.6.09.21.3.34.52.32.01,0,.03,0,.04,0l2.6-.43c.3.79.53,1.63.68,2.56.14.86.21,1.74.21,2.61l-2.64.47c-.24.04-.41.23-.43.47-.1,1.42-.43,2.8-.97,4.11-.09.22-.02.48.17.62l2.14,1.54c-.74,1.58-1.76,3.01-3.02,4.28l-2.2-1.54c-.08-.06-.18-.09-.28-.1-.13,0-.26.04-.36.13-1.06.93-2.27,1.67-3.6,2.22-.22.09-.35.32-.31.56l.43,2.61c-.77.3-1.61.52-2.56.67-.87.14-1.74.22-2.6.22l-.47-2.65c-.04-.24-.23-.41-.47-.43-1.43-.1-2.82-.42-4.12-.96-.22-.09-.48-.02-.62.18l-1.54,2.14c-1.57-.74-3.01-1.75-4.27-3.02l1.54-2.2c.14-.2.13-.46-.03-.64-.93-1.07-1.68-2.28-2.23-3.59-.09-.22-.32-.35-.56-.31l-2.64.43c-.28-.85-.5-1.71-.64-2.57-.14-.88-.22-1.75-.22-2.6Z"/>
  </g>
  <g id="Robot_Arms" data-name="Robot Arms">
    <g id="Robot_Arm" data-name="Robot Arm">
      <g id="Robot_Arm-2" data-name="Robot Arm">
        <g>
          <g>
            <path class="cls-19" d="M345.46,75.02h0c-.3-.3-.61-.54-.94-.73-1.14-.65-6.04-3.49-6.37-3.68-2.83-1.61-6.8.77-9.58,5.98l-38.31,71.85c-4.92,9.22-5.3,20.89-.83,25.43h0c.41.41.84.75,1.29,1.02,1.12.66,5.95,3.44,6.41,3.71,4.51,2.61,10.99-1.91,14.9-10.82l33.6-76.63c2.72-6.21,2.65-13.25-.17-16.12Z"/>
            <path class="cls-20" d="M345.64,91.14l-33.6,76.63c-4.31,9.84-11.76,14.33-16.23,9.78h0c-4.47-4.54-4.09-16.22.83-25.43l38.31-71.85c3.1-5.82,7.71-8.12,10.53-5.25h0c2.82,2.87,2.9,9.91.17,16.12Z"/>
            <path class="cls-13" d="M345.64,91.14l-33.6,76.63c-4.31,9.84-11.76,14.33-16.23,9.78h0c-4.47-4.54-4.09-16.22.83-25.43l38.31-71.85c3.1-5.82,7.71-8.12,10.53-5.25h0c2.82,2.87,2.9,9.91.17,16.12Z"/>
          </g>
          <g>
            <path class="cls-2" d="M301.76,171.16c1.14.51,2.6.28,4.13-.79,3.04-2.15,5.16-6.9,4.73-10.61-.22-1.85-1.03-3.09-2.17-3.6-.69-.31-1.74-.76-2.43-1.07-1.14-.51-2.6-.28-4.13.79-3.04,2.15-5.16,6.9-4.73,10.61.22,1.85,1.03,3.09,2.17,3.6.69.31,1.74.76,2.43,1.07Z"/>
            <path class="cls-3" d="M310.61,159.76c-.22-1.85-1.03-3.09-2.17-3.6s-2.6-.28-4.13.79c-3.04,2.15-5.16,6.9-4.73,10.61.22,1.85,1.03,3.09,2.17,3.6,1.14.51,2.6.28,4.13-.79,3.04-2.15,5.16-6.9,4.73-10.61Z"/>
          </g>
          <g>
            <path class="cls-2" d="M339.43,89.66c.63.28,1.43.16,2.27-.44,1.67-1.18,2.84-3.8,2.6-5.83-.12-1.02-.57-1.7-1.19-1.98-.38-.17-.96-.42-1.34-.59-.63-.28-1.43-.16-2.27.44-1.67,1.18-2.84,3.8-2.6,5.83.12,1.02.57,1.7,1.19,1.98.38.17.96.42,1.34.59Z"/>
            <path class="cls-3" d="M344.29,83.39c-.12-1.02-.57-1.7-1.19-1.98s-1.43-.16-2.27.44c-1.67,1.18-2.84,3.8-2.6,5.83.12,1.02.57,1.7,1.19,1.98.63.28,1.43.16,2.27-.44,1.67-1.18,2.84-3.8,2.6-5.83Z"/>
          </g>
        </g>
        <g>
          <path class="cls-11" d="M344.88,74.43c-1.06-.62-2.4-.81-3.96-.48l-59.19,12.59c-3.3.7-6.88,4.67-8.15,9.02-.95,3.26-.34,5.88,1.36,6.88.57.33,3.55,2.05,4.3,2.47.56.31,1.23.45,2,.39l56.87-4.63c5.07-.41,11.02-6.6,13.05-13.55h0c1.43-4.91.48-8.79-2.05-10.25-.71-.41-3.51-2.02-4.23-2.44Z"/>
          <path class="cls-20" d="M281.24,105.3l56.87-4.63c5.07-.41,11.02-6.6,13.05-13.55h0c2.02-6.96-.71-11.85-5.99-10.73l-59.19,12.59c-3.3.7-6.88,4.67-8.15,9.02h0c-1.26,4.35.23,7.56,3.4,7.3Z"/>
        </g>
        <g>
          <g>
            <path class="cls-2" d="M330.28,218.26h0v-7.21h-5.41c-.56-.37-1.15-.75-1.8-1.12-9.61-5.55-25.19-5.55-34.8,0-.64.37-1.24.74-1.8,1.12h-5.41v7.21h0c-.1,2.92,2.3,5.84,7.2,8.67,9.61,5.55,25.19,5.55,34.8,0,4.9-2.83,7.3-5.75,7.2-8.67Z"/>
            <path class="cls-28" d="M288.28,221.1c-9.61-5.55-9.61-14.54,0-20.09,9.61-5.55,25.19-5.55,34.8,0,9.61,5.55,9.61,14.54,0,20.09s-25.19,5.55-34.8,0Z"/>
          </g>
          <path class="cls-3" d="M322.65,210.46h0v-39.15s0,0,0,0c0-8.87-7.19-16.06-16.06-16.06s-16.06,7.19-16.06,16.06v39.21h0c0,2.37,1.57,4.73,4.72,6.52,6.3,3.58,16.47,3.56,22.71-.04,3.1-1.79,4.66-4.13,4.68-6.48h0v-.05Z"/>
          <g>
            <path class="cls-1" d="M312.38,193.4c0-1.36.96-3.01,2.15-3.7.61-.35,1.16-.37,1.56-.12h0s.97.58.97.58l-.39.69s0,.05,0,.08c0,1.36-.96,3.01-2.15,3.7,0,0,0,0,0,0l-.45.78-1.06-.63s0,0-.01,0l-.04-.02h0c-.36-.24-.59-.7-.59-1.35Z"/>
            <path class="cls-29" d="M312.38,193.4c0-1.36.96-3.01,2.15-3.7.61-.35,1.16-.37,1.56-.12h0s.97.58.97.58l-.39.69s0,.05,0,.08c0,1.36-.96,3.01-2.15,3.7,0,0,0,0,0,0l-.45.78-1.06-.63s0,0-.01,0l-.04-.02h0c-.36-.24-.59-.7-.59-1.35Z"/>
            <path class="cls-1" d="M317.73,191.55c0,1.36-.96,3.01-2.15,3.7-1.19.68-2.15.14-2.15-1.22s.96-3.01,2.15-3.7c1.18-.68,2.15-.14,2.15,1.22Z"/>
          </g>
          <g>
            <path class="cls-20" d="M312.38,202.58c0-1.36.96-3.01,2.15-3.7.61-.35,1.16-.37,1.56-.12h0s.97.58.97.58l-.39.69s0,.05,0,.08c0,1.36-.96,3.01-2.15,3.7,0,0,0,0,0,0l-.45.78-1.06-.63s0,0-.01,0l-.04-.02h0c-.36-.24-.59-.7-.59-1.35Z"/>
            <path class="cls-17" d="M317.73,200.73c0,1.36-.96,3.01-2.15,3.7-1.19.68-2.15.14-2.15-1.22s.96-3.01,2.15-3.7c1.18-.68,2.15-.14,2.15,1.22Z"/>
          </g>
        </g>
        <g>
          <g>
            <path class="cls-19" d="M356.3,81.16h0c-.3-.3-.61-.54-.94-.73-1.14-.65-6.04-3.49-6.37-3.68-2.83-1.61-6.8.77-9.58,5.98l-38.31,71.85c-4.92,9.22-5.3,20.89-.83,25.43h0c.41.41.84.75,1.29,1.02,1.12.66,5.95,3.44,6.41,3.71,4.51,2.61,10.99-1.91,14.9-10.82l33.6-76.63c2.72-6.21,2.65-13.25-.17-16.12Z"/>
            <path class="cls-17" d="M356.48,97.28l-33.6,76.63c-4.31,9.84-11.76,14.33-16.23,9.78h0c-4.47-4.54-4.09-16.22.83-25.43l38.31-71.85c3.1-5.82,7.71-8.12,10.53-5.25h0c2.82,2.87,2.9,9.91.17,16.12Z"/>
          </g>
          <g>
            <path class="cls-2" d="M312.6,177.3c1.14.51,2.6.28,4.13-.79,3.04-2.15,5.16-6.9,4.73-10.61-.22-1.85-1.03-3.09-2.17-3.6-.69-.31-1.74-.76-2.43-1.07-1.14-.51-2.6-.28-4.13.79-3.04,2.15-5.16,6.9-4.73,10.61.22,1.85,1.03,3.09,2.17,3.6.69.31,1.74.76,2.43,1.07Z"/>
            <path class="cls-3" d="M321.45,165.9c-.22-1.85-1.03-3.09-2.17-3.6-1.14-.51-2.6-.28-4.13.79-3.04,2.15-5.16,6.9-4.73,10.61.22,1.85,1.03,3.09,2.17,3.6,1.14.51,2.6.28,4.13-.79,3.04-2.15,5.16-6.9,4.73-10.61Z"/>
          </g>
          <g>
            <path class="cls-2" d="M350.27,95.8c.63.28,1.43.16,2.27-.44,1.67-1.18,2.84-3.8,2.6-5.83-.12-1.02-.57-1.7-1.19-1.98-.38-.17-.96-.42-1.34-.59-.63-.28-1.43-.16-2.27.44-1.67,1.18-2.84,3.8-2.6,5.83.12,1.02.57,1.7,1.19,1.98.38.17.96.42,1.34.59Z"/>
            <path class="cls-3" d="M355.13,89.54c-.12-1.02-.57-1.7-1.19-1.98-.63-.28-1.43-.16-2.27.44-1.67,1.18-2.84,3.8-2.6,5.83.12,1.02.57,1.7,1.19,1.98.63.28,1.43.16,2.27-.44,1.67-1.18,2.84-3.8,2.6-5.83Z"/>
          </g>
        </g>
        <g>
          <path class="cls-1" d="M275.31,83.46c2.05-1.53,4.02-1.86,5.54-1.16h0s9.33,5.42,9.33,5.42l-.26.6c.59.84,1,1.95,1.17,3.33.6,4.98-2.17,11.45-6.19,14.46-1.1.82-2.17,1.29-3.17,1.45l-.27.62-9.31-5.42h0c-1.59-.61-2.74-2.27-3.05-4.84-.6-4.98,2.17-11.45,6.19-14.46Z"/>
          <path class="cls-13" d="M275.31,83.46c2.05-1.53,4.02-1.86,5.54-1.16h0s9.33,5.42,9.33,5.42l-.26.6c.59.84,1,1.95,1.17,3.33.6,4.98-2.17,11.45-6.19,14.46-1.1.82-2.17,1.29-3.17,1.45l-.27.62-9.31-5.42h0c-1.59-.61-2.74-2.27-3.05-4.84-.6-4.98,2.17-11.45,6.19-14.46Z"/>
          <path class="cls-1" d="M284.84,88.97c-4.01,3.01-6.78,9.48-6.19,14.46.6,4.98,4.34,6.58,8.35,3.57,4.01-3.01,6.78-9.48,6.19-14.46-.6-4.98-4.33-6.58-8.35-3.57Z"/>
          <path class="cls-1" d="M282.44,100.58c.07.6.24,1.09.48,1.47.7,1.15,2.08,1.31,3.52.24,1.91-1.44,3.24-4.53,2.95-6.91-.19-1.55-.99-2.41-2.07-2.42-.59-.03-1.24.21-1.92.72-1.92,1.44-3.25,4.53-2.96,6.91Z"/>
          <path class="cls-29" d="M282.44,100.58c.07.6.24,1.09.48,1.47.7,1.15,2.08,1.31,3.52.24,1.91-1.44,3.24-4.53,2.95-6.91-.19-1.55-.99-2.41-2.07-2.42-.59-.03-1.24.21-1.92.72-1.92,1.44-3.25,4.53-2.96,6.91Z"/>
          <path class="cls-2" d="M282.44,100.58c.07.6.24,1.09.48,1.47.59.03,1.25-.21,1.93-.72,1.91-1.44,3.24-4.53,2.95-6.91-.07-.6-.24-1.09-.48-1.47-.59-.03-1.24.21-1.92.72-1.92,1.44-3.25,4.53-2.96,6.91Z"/>
        </g>
        <g>
          <path class="cls-2" d="M268.71,82.81c-.67-.38-1.58-.31-2.59.28-2.02,1.19-3.63,4.05-3.61,6.39.01,1.17.43,1.99,1.1,2.37.41.23,9.23,5.22,9.64,5.45.67.38,1.59.31,2.59-.28,2.02-1.19,3.63-4.05,3.61-6.39-.01-1.17-.43-1.99-1.1-2.37-.41-.23-9.23-5.22-9.64-5.45Z"/>
          <path class="cls-3" d="M262.5,89.48c.01,1.17.43,1.99,1.1,2.37s1.59.31,2.59-.28c2.02-1.19,3.63-4.05,3.61-6.39-.01-1.17-.43-1.99-1.1-2.37s-1.59-.31-2.59.28c-2.02,1.19-3.63,4.05-3.61,6.39Z"/>
        </g>
        <g>
          <polyline class="cls-1" points="268.11 87.94 249.99 98.6 240.61 83.19 245.6 79.67 251.67 89.55 261.79 83.27"/>
          <polygon class="cls-1" points="258.19 79.27 248.69 84.7 251.67 89.55 261.79 83.27 258.19 79.27"/>
          <polygon class="cls-16" points="258.19 79.27 248.69 84.7 251.67 89.55 261.79 83.27 258.19 79.27"/>
          <polygon class="cls-1" points="240.61 83.19 236.73 79.67 241.7 76.25 245.6 79.67 240.61 83.19"/>
          <polygon class="cls-21" points="240.61 83.19 236.73 79.67 241.7 76.25 245.6 79.67 240.61 83.19"/>
          <polygon class="cls-1" points="236.73 79.67 245.83 94.69 249.99 98.6 240.61 83.19 236.73 79.67"/>
          <polygon class="cls-26" points="236.73 79.67 245.83 94.69 249.99 98.6 240.61 83.19 236.73 79.67"/>
        </g>
      </g>
      <g>
        <polygon class="cls-1" points="267.15 62.99 248.58 62.1 248.53 68.29 261.28 69.22 261.79 83.27 268.11 87.94 267.15 62.99"/>
        <g>
          <polygon class="cls-1" points="261.28 69.22 257.73 68.96 258.19 79.27 261.79 83.27 261.28 69.22"/>
          <polygon class="cls-26" points="261.28 69.22 257.73 68.96 258.19 79.27 261.79 83.27 261.28 69.22"/>
        </g>
        <polygon class="cls-1" points="248.53 68.29 243.96 64.09 243.96 57.9 263.19 58.77 267.15 62.99 248.58 62.1 248.53 68.29"/>
        <polygon class="cls-21" points="248.53 68.29 243.96 64.09 243.96 57.9 263.19 58.77 267.15 62.99 248.58 62.1 248.53 68.29"/>
        <polygon class="cls-1" points="243.96 57.9 248.58 62.1 248.53 68.29 243.96 64.09 243.96 57.9"/>
        <polygon class="cls-27" points="243.96 57.9 248.58 62.1 248.53 68.29 243.96 64.09 243.96 57.9"/>
      </g>
    </g>
    <g id="Robot_Arm-3" data-name="Robot Arm">
      <g id="Robot_Arm-4" data-name="Robot Arm">
        <g>
          <g>
            <path class="cls-19" d="M29.7,75.02h0c.3-.3.61-.54.94-.73,1.14-.65,6.04-3.49,6.37-3.68,2.83-1.61,6.8.77,9.58,5.98l38.31,71.85c4.92,9.22,5.3,20.89.83,25.43h0c-.41.41-.84.75-1.29,1.02-1.12.66-5.95,3.44-6.41,3.71-4.51,2.61-10.99-1.91-14.9-10.82L29.53,91.14c-2.72-6.21-2.65-13.25.17-16.12Z"/>
            <path class="cls-20" d="M29.53,91.14l33.6,76.63c4.31,9.84,11.76,14.33,16.23,9.78h0c4.47-4.54,4.09-16.22-.83-25.43l-38.31-71.85c-3.1-5.82-7.71-8.12-10.53-5.25h0c-2.82,2.87-2.9,9.91-.17,16.12Z"/>
            <path class="cls-13" d="M29.53,91.14l33.6,76.63c4.31,9.84,11.76,14.33,16.23,9.78h0c4.47-4.54,4.09-16.22-.83-25.43l-38.31-71.85c-3.1-5.82-7.71-8.12-10.53-5.25h0c-2.82,2.87-2.9,9.91-.17,16.12Z"/>
          </g>
          <g>
            <path class="cls-2" d="M73.41,171.16c-1.14.51-2.6.28-4.13-.79-3.04-2.15-5.16-6.9-4.73-10.61.22-1.85,1.03-3.09,2.17-3.6.69-.31,1.74-.76,2.43-1.07,1.14-.51,2.6-.28,4.13.79,3.04,2.15,5.16,6.9,4.73,10.61-.22,1.85-1.03,3.09-2.17,3.6-.69.31-1.74.76-2.43,1.07Z"/>
            <path class="cls-3" d="M64.56,159.76c.22-1.85,1.03-3.09,2.17-3.6s2.6-.28,4.13.79c3.04,2.15,5.16,6.9,4.73,10.61-.22,1.85-1.03,3.09-2.17,3.6-1.14.51-2.6.28-4.13-.79-3.04-2.15-5.16-6.9-4.73-10.61Z"/>
          </g>
          <g>
            <path class="cls-2" d="M35.74,89.66c-.63.28-1.43.16-2.27-.44-1.67-1.18-2.84-3.8-2.6-5.83.12-1.02.57-1.7,1.19-1.98.38-.17.96-.42,1.34-.59.63-.28,1.43-.16,2.27.44,1.67,1.18,2.84,3.8,2.6,5.83-.12,1.02-.57,1.7-1.19,1.98-.38.17-.96.42-1.34.59Z"/>
            <path class="cls-3" d="M30.87,83.39c.12-1.02.57-1.7,1.19-1.98s1.43-.16,2.27.44c1.67,1.18,2.84,3.8,2.6,5.83-.12,1.02-.57,1.7-1.19,1.98-.63.28-1.43.16-2.27-.44-1.67-1.18-2.84-3.8-2.6-5.83Z"/>
          </g>
        </g>
        <g>
          <path class="cls-11" d="M30.29,74.43c1.06-.62,2.4-.81,3.96-.48l59.19,12.59c3.3.7,6.88,4.67,8.15,9.02.95,3.26.34,5.88-1.36,6.88-.57.33-3.55,2.05-4.3,2.47-.56.31-1.23.45-2,.39l-56.87-4.63c-5.07-.41-11.02-6.6-13.05-13.55h0c-1.43-4.91-.48-8.79,2.05-10.25.71-.41,3.51-2.02,4.23-2.44Z"/>
          <path class="cls-20" d="M93.93,105.3l-56.87-4.63c-5.07-.41-11.02-6.6-13.05-13.55h0c-2.02-6.96.71-11.85,5.99-10.73l59.19,12.59c3.3.7,6.88,4.67,8.15,9.02h0c1.26,4.35-.23,7.56-3.4,7.3Z"/>
        </g>
        <g>
          <g>
            <path class="cls-2" d="M44.89,218.26h0v-7.21h5.41c.56-.37,1.15-.75,1.8-1.12,9.61-5.55,25.19-5.55,34.8,0,.64.37,1.24.74,1.8,1.12h5.41v7.21h0c.1,2.92-2.3,5.84-7.2,8.67-9.61,5.55-25.19,5.55-34.8,0-4.9-2.83-7.3-5.75-7.2-8.67Z"/>
            <path class="cls-28" d="M86.89,221.1c9.61-5.55,9.61-14.54,0-20.09-9.61-5.55-25.19-5.55-34.8,0-9.61,5.55-9.61,14.54,0,20.09s25.19,5.55,34.8,0Z"/>
          </g>
          <path class="cls-3" d="M52.52,210.46h0v-39.15s0,0,0,0c0-8.87,7.19-16.06,16.06-16.06s16.06,7.19,16.06,16.06v39.21h0c0,2.37-1.57,4.73-4.72,6.52-6.3,3.58-16.47,3.56-22.71-.04-3.1-1.79-4.66-4.13-4.68-6.48h0v-.05Z"/>
          <g>
            <path class="cls-1" d="M62.78,193.4c0-1.36-.96-3.01-2.15-3.7-.61-.35-1.16-.37-1.56-.12h0s-.97.58-.97.58l.39.69s0,.05,0,.08c0,1.36.96,3.01,2.15,3.7,0,0,0,0,0,0l.45.78,1.06-.63s0,0,.01,0l.04-.02h0c.36-.24.59-.7.59-1.35Z"/>
            <path class="cls-29" d="M62.78,193.4c0-1.36-.96-3.01-2.15-3.7-.61-.35-1.16-.37-1.56-.12h0s-.97.58-.97.58l.39.69s0,.05,0,.08c0,1.36.96,3.01,2.15,3.7,0,0,0,0,0,0l.45.78,1.06-.63s0,0,.01,0l.04-.02h0c.36-.24.59-.7.59-1.35Z"/>
            <path class="cls-1" d="M57.44,191.55c0,1.36.96,3.01,2.15,3.7,1.19.68,2.15.14,2.15-1.22s-.96-3.01-2.15-3.7c-1.18-.68-2.15-.14-2.15,1.22Z"/>
          </g>
          <g>
            <path class="cls-20" d="M62.78,202.58c0-1.36-.96-3.01-2.15-3.7-.61-.35-1.16-.37-1.56-.12h0s-.97.58-.97.58l.39.69s0,.05,0,.08c0,1.36.96,3.01,2.15,3.7,0,0,0,0,0,0l.45.78,1.06-.63s0,0,.01,0l.04-.02h0c.36-.24.59-.7.59-1.35Z"/>
            <path class="cls-17" d="M57.44,200.73c0,1.36.96,3.01,2.15,3.7,1.19.68,2.15.14,2.15-1.22s-.96-3.01-2.15-3.7c-1.18-.68-2.15-.14-2.15,1.22Z"/>
          </g>
        </g>
        <g>
          <g>
            <path class="cls-19" d="M18.87,81.16h0c.3-.3.61-.54.94-.73,1.14-.65,6.04-3.49,6.37-3.68,2.83-1.61,6.8.77,9.58,5.98l38.31,71.85c4.92,9.22,5.3,20.89.83,25.43h0c-.41.41-.84.75-1.29,1.02-1.12.66-5.95,3.44-6.41,3.71-4.51,2.61-10.99-1.91-14.9-10.82L18.69,97.28c-2.72-6.21-2.65-13.25.17-16.12Z"/>
            <path class="cls-17" d="M18.69,97.28l33.6,76.63c4.31,9.84,11.76,14.33,16.23,9.78h0c4.47-4.54,4.09-16.22-.83-25.43L29.39,86.41c-3.1-5.82-7.71-8.12-10.53-5.25h0c-2.82,2.87-2.9,9.91-.17,16.12Z"/>
          </g>
          <g>
            <path class="cls-2" d="M62.57,177.3c-1.14.51-2.6.28-4.13-.79-3.04-2.15-5.16-6.9-4.73-10.61.22-1.85,1.03-3.09,2.17-3.6.69-.31,1.74-.76,2.43-1.07,1.14-.51,2.6-.28,4.13.79,3.04,2.15,5.16,6.9,4.73,10.61-.22,1.85-1.03,3.09-2.17,3.6-.69.31-1.74.76-2.43,1.07Z"/>
            <path class="cls-3" d="M53.72,165.9c.22-1.85,1.03-3.09,2.17-3.6,1.14-.51,2.6-.28,4.13.79,3.04,2.15,5.16,6.9,4.73,10.61-.22,1.85-1.03,3.09-2.17,3.6-1.14.51-2.6.28-4.13-.79-3.04-2.15-5.16-6.9-4.73-10.61Z"/>
          </g>
          <g>
            <path class="cls-2" d="M24.9,95.8c-.63.28-1.43.16-2.27-.44-1.67-1.18-2.84-3.8-2.6-5.83.12-1.02.57-1.7,1.19-1.98.38-.17.96-.42,1.34-.59.63-.28,1.43-.16,2.27.44,1.67,1.18,2.84,3.8,2.6,5.83-.12,1.02-.57,1.7-1.19,1.98-.38.17-.96.42-1.34.59Z"/>
            <path class="cls-3" d="M20.03,89.54c.12-1.02.57-1.7,1.19-1.98.63-.28,1.43-.16,2.27.44,1.67,1.18,2.84,3.8,2.6,5.83-.12,1.02-.57,1.7-1.19,1.98-.63.28-1.43.16-2.27-.44-1.67-1.18-2.84-3.8-2.6-5.83Z"/>
          </g>
        </g>
        <g>
          <path class="cls-1" d="M99.86,83.46c-2.05-1.53-4.02-1.86-5.54-1.16h0s-9.33,5.42-9.33,5.42l.26.6c-.59.84-1,1.95-1.17,3.33-.6,4.98,2.17,11.45,6.19,14.46,1.1.82,2.17,1.29,3.17,1.45l.27.62,9.31-5.42h0c1.59-.61,2.74-2.27,3.05-4.84.6-4.98-2.17-11.45-6.19-14.46Z"/>
          <path class="cls-13" d="M99.86,83.46c-2.05-1.53-4.02-1.86-5.54-1.16h0s-9.33,5.42-9.33,5.42l.26.6c-.59.84-1,1.95-1.17,3.33-.6,4.98,2.17,11.45,6.19,14.46,1.1.82,2.17,1.29,3.17,1.45l.27.62,9.31-5.42h0c1.59-.61,2.74-2.27,3.05-4.84.6-4.98-2.17-11.45-6.19-14.46Z"/>
          <path class="cls-1" d="M90.33,88.97c4.01,3.01,6.78,9.48,6.19,14.46-.6,4.98-4.34,6.58-8.35,3.57-4.01-3.01-6.78-9.48-6.19-14.46.6-4.98,4.33-6.58,8.35-3.57Z"/>
          <path class="cls-1" d="M92.73,100.58c-.07.6-.24,1.09-.48,1.47-.7,1.15-2.08,1.31-3.52.24-1.91-1.44-3.24-4.53-2.95-6.91.19-1.55.99-2.41,2.07-2.42.59-.03,1.24.21,1.92.72,1.92,1.44,3.25,4.53,2.96,6.91Z"/>
          <path class="cls-29" d="M92.73,100.58c-.07.6-.24,1.09-.48,1.47-.7,1.15-2.08,1.31-3.52.24-1.91-1.44-3.24-4.53-2.95-6.91.19-1.55.99-2.41,2.07-2.42.59-.03,1.24.21,1.92.72,1.92,1.44,3.25,4.53,2.96,6.91Z"/>
          <path class="cls-2" d="M92.73,100.58c-.07.6-.24,1.09-.48,1.47-.59.03-1.25-.21-1.93-.72-1.91-1.44-3.24-4.53-2.95-6.91.07-.6.24-1.09.48-1.47.59-.03,1.24.21,1.92.72,1.92,1.44,3.25,4.53,2.96,6.91Z"/>
        </g>
        <g>
          <path class="cls-2" d="M106.46,82.81c.67-.38,1.58-.31,2.59.28,2.02,1.19,3.63,4.05,3.61,6.39-.01,1.17-.43,1.99-1.1,2.37-.41.23-9.23,5.22-9.64,5.45-.67.38-1.59.31-2.59-.28-2.02-1.19-3.63-4.05-3.61-6.39.01-1.17.43-1.99,1.1-2.37.41-.23,9.23-5.22,9.64-5.45Z"/>
          <path class="cls-3" d="M112.67,89.48c-.01,1.17-.43,1.99-1.1,2.37s-1.59.31-2.59-.28c-2.02-1.19-3.63-4.05-3.61-6.39.01-1.17.43-1.99,1.1-2.37s1.59-.31,2.59.28c2.02,1.19,3.63,4.05,3.61,6.39Z"/>
        </g>
        <g>
          <polyline class="cls-1" points="107.06 87.94 125.18 98.6 134.56 83.19 129.57 79.67 123.49 89.55 113.38 83.27"/>
          <polygon class="cls-1" points="116.98 79.27 126.47 84.7 123.49 89.55 113.38 83.27 116.98 79.27"/>
          <polygon class="cls-16" points="116.98 79.27 126.47 84.7 123.49 89.55 113.38 83.27 116.98 79.27"/>
          <polygon class="cls-1" points="134.56 83.19 138.44 79.67 133.46 76.25 129.57 79.67 134.56 83.19"/>
          <polygon class="cls-21" points="134.56 83.19 138.44 79.67 133.46 76.25 129.57 79.67 134.56 83.19"/>
          <polygon class="cls-1" points="138.44 79.67 129.34 94.69 125.18 98.6 134.56 83.19 138.44 79.67"/>
          <polygon class="cls-26" points="138.44 79.67 129.34 94.69 125.18 98.6 134.56 83.19 138.44 79.67"/>
        </g>
      </g>
      <g>
        <polygon class="cls-1" points="108.02 62.99 126.59 62.1 126.64 68.29 113.88 69.22 113.38 83.27 107.06 87.94 108.02 62.99"/>
        <g>
          <polygon class="cls-1" points="113.88 69.22 117.44 68.96 116.98 79.27 113.38 83.27 113.88 69.22"/>
          <polygon class="cls-26" points="113.88 69.22 117.44 68.96 116.98 79.27 113.38 83.27 113.88 69.22"/>
        </g>
        <polygon class="cls-1" points="126.64 68.29 131.2 64.09 131.2 57.9 111.98 58.77 108.02 62.99 126.59 62.1 126.64 68.29"/>
        <polygon class="cls-21" points="126.64 68.29 131.2 64.09 131.2 57.9 111.98 58.77 108.02 62.99 126.59 62.1 126.64 68.29"/>
        <polygon class="cls-1" points="131.2 57.9 126.59 62.1 126.64 68.29 131.2 64.09 131.2 57.9"/>
        <polygon class="cls-27" points="131.2 57.9 126.59 62.1 126.64 68.29 131.2 64.09 131.2 57.9"/>
      </g>
    </g>
  </g>
  <g id="Character_2" data-name="Character 2">
    <g id="Character">
      <g id="Bottom">
        <path class="cls-5" d="M365.86,335.78c-.82-10.69.53-17.88-.4-34.57h0c-.08-4.28-.25-8.86-.55-12.93-1.01-13.7-3.23-18.38-3.43-21.02,0,0-1.09-26.25-2.03-56.22-.44-14.1-4.73-18.37-8.16-25.85h-40.73c-4.55,18.47-7.46,63.63-7.32,82.66.07,9.7,3.29,55.67,3.38,56.86.29,4.24-.49,6.64-1.32,8.24-2.38,4.57-8.3,7.05-12.87,10.3.66,1.67,6.16,1.61,8.88.34,4.35-2.03,8.67-5.12,10.15-6.17,3.76-2.65,8.56-4.78,8.62-8.81.01-.5.15-.64.13-.72.07-2.35,5.56-31.45,6.04-39.51.41-6.93-.47-18.68-.47-18.68l6.3-34.23s3.6,22.28,6.53,34.13c2.38,9.64,6.31,26.09,8.99,37.96h0c2.57,13.67,6.27,22.39,6.92,29.24.2,1.63,2.14,17.67,2.94,21.34.8,3.67,9.2,3.77,9.74-2.55.36-4.2-1.19-17.78-1.34-19.79Z"/>
        <g>
          <path class="cls-2" d="M284.65,347.51c-.23,0-.61,2.44.64,3.49,1.44,1.21,5.7,3.22,11.36,2.58,5.66-.64,8.74-2.27,11.03-4.06,2.28-1.78,5.48-4.29,8.05-4.8,2.38-.47,4.97-1.47,5.74-2.17.77-.69.7-3.8.7-3.8l-37.52,8.76Z"/>
          <path class="cls-28" d="M320.33,326.75s.43.02.56.74c.16.86.32,3.35.68,4.76.5,1.96.8,5.97.47,7.56-.33,1.59-4.22,2.66-6.7,3.53-2.54.89-5.48,2.75-8.07,4.74-2.68,2.06-8.29,4.1-11.98,4.11-5.63.02-9.25-1.47-10.36-3.41-1.37-2.4-.26-3.77,6.24-6.56,1.23-.53,5.56-2.91,7.03-3.77,1.56-.91,3.05-1.93,4.43-3.07.47-.39,1-.78,1.34-1.27.34-.49.61-1.02.85-1.56.49-1.11.84-2.27,1.31-3.39.1-.23.21-.47.38-.66.4-.43.98-.49,1.54-.46.74.04,1.47.04,2.2.14,1.45.2,2.88.61,4.2,1.23.38.18.76.33.92.71.17.43.15.99.17,1.44.01.36,0,.72,0,1.08,0,.15-.07.43.15.37.22-.06.46-.59.55-.78.18-.4.3-.83.5-1.22.23-.45.49-.91.82-1.3.31-.36.65-.7,1.03-.98.35-.26.8-.38,1.11-.67.4-.37.58-1.03.62-1.33Z"/>
          <path class="cls-25" d="M290.13,342.7c8.14.62,10.65,5.44,10.96,8.41-2.03.66-4.11,1.09-5.8,1.1-5.63.02-9.49-1.47-10.59-3.41-1.29-2.26-.38-4.07,5.42-6.1Z"/>
          <g>
            <path class="cls-11" d="M302.34,342.9c.09,0,.18-.03.25-.08.17-.13.2-.37.06-.53-1.12-1.33-4.37-3.12-7.33-2.84-.22.02-.38.21-.36.41.02.21.21.36.43.34,2.77-.25,5.75,1.5,6.64,2.56.08.09.19.14.31.14Z"/>
            <path class="cls-11" d="M305.87,340.99c.09,0,.18-.03.25-.08.17-.13.2-.37.06-.53-1.12-1.34-4.37-3.12-7.33-2.84-.22.02-.38.21-.36.41.02.21.21.36.43.34,2.77-.25,5.75,1.5,6.64,2.56.08.09.19.14.31.14Z"/>
            <path class="cls-11" d="M309.15,338.8c.09,0,.18-.03.25-.08.17-.13.2-.37.06-.53-1.12-1.34-4.38-3.12-7.33-2.84-.22.02-.38.21-.36.41.02.21.21.36.43.34,2.76-.25,5.75,1.5,6.64,2.56.08.09.19.14.31.14Z"/>
            <path class="cls-11" d="M312.36,336.61c.09,0,.17-.03.25-.08.17-.13.21-.37.07-.53-1.54-1.89-5.05-3.16-8.01-2.89-.22.02-.38.21-.36.41.02.21.21.35.43.34,2.67-.25,5.94.92,7.31,2.6.08.1.19.15.31.15Z"/>
          </g>
        </g>
        <g>
          <path class="cls-2" d="M354.82,360.98c.22,3.66.82,6.09,2.18,8.23,1.36,2.15,3.93,2.82,6.54,2.19,2.6-.63,5.94-2.31,6.69-5.47.75-3.16,1.18-5.32.59-8.72l-16,3.76Z"/>
          <path class="cls-28" d="M365.77,334.47c1.07.08,1.39,4.99,2.01,9.92.66,5.27,2.32,7.46,2.91,11.78.68,4.94-.18,7.15-2,10.14-1.82,2.99-8.25,5.92-11.42,1.64-2.58-3.49-2.69-7.36-2.46-12.29.24-5.1-.13-8.63-.35-12.5-.21-3.7-1.07-7.43-.14-7.84.07.54.14,1.23.22,1.77.09.66.1,1.35.35,1.97.11.27.35.56.45.12.07-.3.03-.62,0-.92-.16-1.36.56-1.47.95-1.58.84-.23,4.17-.62,4.98-.67.82-.05,3.65-.17,4.02.27.25.3.28.81.36,1.43.09.74.27,1.29.29,1.05.05-.53-.06-1.92-.07-2.25-.01-.32-.07-.76-.07-1.08,0-.32,0-.63-.03-.95Z"/>
          <path class="cls-25" d="M370.98,359.03c.18,3.07-.58,5.17-2.01,7.51-1.82,2.99-8.77,5.93-11.94,1.65-1.58-2.13-2-4.65-2.22-7.21,1.9-3.3,13.17-4.75,16.16-1.94Z"/>
          <g>
            <path class="cls-11" d="M357.16,355.6s.09-.02.13-.03c.04-.02,5.01-1.98,9.84-.91.21.04.43-.08.48-.28.05-.2-.08-.41-.3-.45-5.11-1.12-10.18.88-10.36.96-.2.09-.28.32-.19.51.07.15.24.23.4.21Z"/>
            <path class="cls-11" d="M366.9,350.98c.15-.01.29-.11.34-.26.07-.2-.04-.41-.25-.48-4.81-1.55-10.15.78-10.35.88-.2.1-.27.33-.17.51.1.18.35.25.54.16.05-.02,5.25-2.28,9.73-.83.06.02.11.02.17.02Z"/>
            <path class="cls-11" d="M366.73,347.5c.15-.01.28-.11.33-.25.07-.2-.03-.41-.24-.48-5.29-1.81-10.36.74-10.55.85-.19.11-.25.34-.13.52.11.18.36.24.55.13.04-.02,4.94-2.46,9.87-.78.06.02.12.03.17.02Z"/>
            <path class="cls-19" d="M366.46,344.09c.15-.01.28-.1.33-.24.08-.2-.03-.41-.23-.49-4.96-1.77-10.41.84-10.62.96-.19.1-.26.34-.15.52.11.18.35.25.54.14.05-.03,5.34-2.55,9.94-.9.06.02.12.03.18.02Z"/>
          </g>
        </g>
        <g>
          <path class="cls-28" d="M352.39,185.31c4.82,8.38,9.3,14.12,10.21,39.85.89,24.92,1.35,37.04,1.45,40.05.1,3.01,1.84,7.92,2.97,22.76.98,12.92-.84,39.89-.84,39.89,0,0-1.99,2.93-7.12,3.49-5.13.56-6.74-1.76-6.74-1.76,0,0-9.34-36.06-11.42-44.98-2.08-8.92-8.83-43.18-8.83-43.18l-5.19,28.67s1.67,8.17,0,21.15c-1.67,12.98-5.2,32.16-5.2,32.16,0,0-3.14.87-7.83.81s-7.79-2.04-7.79-2.04c0,0-4.26-43.8-4.26-58.52,0-14.72,2.91-56.4,7.78-78.18l42.81-.16Z"/>
          <path class="cls-2" d="M312.92,210.21c1.09,4.9,7.87,7.51,11.59,8.36l4.46,23.54-2.08,27.99,5.19-28.67-4.45-25.71s-8.97.21-14.71-5.51Z"/>
        </g>
      </g>
      <g id="Top">
        <g id="Arm">
          <g>
            <path class="cls-8" d="M286.43,154.49s-9.99-6.21-13.91-8.92c-.32-.22-.63-.44-.93-.68-1.21-.93-2.28-2-3.09-3.3-.74-1.19-1.31-2.49-2.09-3.64-.22-.33-.46-.64-.71-.94-.47-.56-1-1.08-1.54-1.57-1.1-1.01-2.24-1.96-3.19-3.13-1.97-2.43-2.6-4.1-3.71-2.56-1.12,1.54.91,4.98,1.23,5.78.19.49,1.9,2.63.29,2.44-.84-.1-1.66-.9-2.22-1.49-1.8-1.9-4.54-4.93-6.55-6.6-.41-.34-.88-.67-1.41-.71-.54-.04-1.13.34-1.14.88,0,.25.11.48.23.7.75,1.44,1.57,2.85,2.43,4.22-.31-.01-.55-.26-.75-.48-1.01-1.09-2.02-2.18-3.03-3.27-.44-.47-.9-.96-1.49-1.21-.59-.25-1.37-.21-1.79.28-.3.35-.36.85-.28,1.3.09.45.31.86.52,1.27.21.39.42.78.62,1.16.07.12.13.25.14.39,0,.27-.21.49-.36.72-.31.48-.31,1.1-.15,1.64.16.54.47,1.03.77,1.51.6.96-.22,1.54.04,2.58.14.57.47,1.07.81,1.55,3.03,4.29,7.38,7.64,12.3,9.49,1.45.54,2.66,1.21,3.85,2.19,4.69,3.83,7.38,7.64,14.56,13.13,6.8,5.21,8.98,7.54,14.27,3.64l-3.71-16.36Z"/>
            <path class="cls-12" d="M262.11,147.47c-1.27-1.35-2.15-2.95-2.15-4.84,0-1.05.26-2.09.2-3.13-.7-.17-1.15,2-1.2,2.45-.11.97,0,1.99.37,2.9.49,1.22,1.51,2.25,2.77,2.62Z"/>
          </g>
          <path class="cls-1" d="M285.04,152.93s12.19-11.11,16.82-15.18c4.25-3.73,6.36-5.43,8.83-6.71,3.19-1.64,6.2-1.84,9.46-2.33l-1.98,23.13s-11.57,9.84-20.3,15.55c-4.17,2.73-8.48,5.71-12.53,6.07-2.32-.17-4.24-1.72-8.16-4.64-1.26-.94-9.5-8.51-9.5-8.51,4.7-2.58,6.96-6.91,7.09-13.42l10.28,6.04Z"/>
          <path class="cls-18" d="M285.04,152.93s12.19-11.11,16.82-15.18c4.25-3.73,6.36-5.43,8.83-6.71,3.19-1.64,6.2-1.84,9.46-2.33l-1.98,23.13s-11.57,9.84-20.3,15.55c-4.17,2.73-8.48,5.71-12.53,6.07-2.32-.17-4.24-1.72-8.16-4.64-1.26-.94-9.5-8.51-9.5-8.51,4.7-2.58,6.96-6.91,7.09-13.42l10.28,6.04Z"/>
          <path class="cls-15" d="M285.04,152.93c3.92,1.95,5.34,4.5,5.34,4.5,0,0-.64-4.08-3.98-5.74l-1.35,1.23Z"/>
        </g>
        <g id="Chest">
          <path id="Chest-2" data-name="Chest" class="cls-2" d="M342.88,127.26c8.19,1.84,10.65,2.63,14.52,3.53,0,0,7.21,20.41,3.74,34.64-.8,3.27-1.4,12.3-1.94,19.27-.45,5.72-.61,8.16,0,16.31,0,0-10.95,7.68-33.86,5.34-17.98-1.84-20.15-8.54-20.15-8.54,0,0,.44-24.58,1.26-37.85,1.08-17.44,6.27-27.86,8.3-30.24.64-.37,12.85-2.21,12.85-2.21l15.28-.25Z"/>
        </g>
        <g id="Coat">
          <g>
            <path class="cls-1" d="M342.38,126.1l-.04,3.34c-1.02,5.27-2.34,8.25-2.86,18.51-.53,10.45-.46,23.87-.36,42.48.12,21.49.88,59.5.88,59.5,0,0,19.28,4.24,27.13-6.26,0,0-1.32-22.8-2.35-38.67-.71-10.95-1.87-21.32-1.57-24.59.73-8-.79-15.36,0-24.06.74-8.09,3.55-17.61-5.81-25.57l-15.02-4.69Z"/>
            <path class="cls-6" d="M342.38,126.1l-.04,3.34c-1.02,5.27-2.34,8.25-2.86,18.51-.53,10.45-.46,23.87-.36,42.48.12,21.49.88,59.5.88,59.5,0,0,19.28,4.24,27.13-6.26,0,0-1.32-22.8-2.35-38.67-.71-10.95-1.87-21.32-1.57-24.59.73-8-.79-15.36,0-24.06.74-8.09,3.55-17.61-5.81-25.57l-15.02-4.69Z"/>
          </g>
          <path class="cls-15" d="M343.4,165.75c.47-1.95,1-3.88,1.56-5.8.56-1.91,1.18-3.8,1.81-5.68.62-1.81,1.22-3.63,1.9-5.42l-2.24-7.49-.08-.28.18-.18,2.75-2.71c-.32-1.3-.64-2.59-.93-3.9-.32-1.37-.64-2.74-.94-4.12.42,1.33.81,2.67,1.21,4.01.4,1.34.78,2.68,1.16,4.03l.05.19-.13.14-2.59,2.8,2.31,7.36.06.18-.07.19c-.66,1.85-1.35,3.69-1.99,5.55-.66,1.86-1.27,3.74-1.89,5.61-.63,1.87-1.22,3.76-1.76,5.67-.56,1.9-1.07,3.83-1.42,5.82.17-2.03.61-4.01,1.06-5.97Z"/>
          <path class="cls-1" d="M325.06,127.83c-3.38.78-7.29,5.41-10,15.18-2.71,9.77-3.08,21.46-3.65,32.26-.56,10.8-1.96,63.6-1.96,63.6,0,0-3.7.14-6.87-1.01,0,0,2.12-67.64,3.44-81.5,1.35-14.17,4.63-23.19,8.73-26.64,2.83-1.01,4.42-1.61,10.32-3.29v1.4Z"/>
          <g class="cls-31">
            <path class="cls-24" d="M325.06,127.83c-3.38.78-7.29,5.41-10,15.18-2.71,9.77-3.08,21.46-3.65,32.26-.56,10.8-1.96,63.6-1.96,63.6,0,0-3.7.14-6.87-1.01,0,0,2.12-67.64,3.44-81.5,1.35-14.17,4.63-23.19,8.73-26.64,2.83-1.01,4.42-1.61,10.32-3.29v1.4Z"/>
          </g>
          <path class="cls-15" d="M308.88,163.59c-.13-1.51-.18-3.02-.25-4.53-.05-1.51-.07-3.02-.09-4.53-.05-3.02-.02-6.03.04-9.05v-.18s.11-.14.11-.14c1.88-2.41,3.79-4.78,5.72-7.13l-.71-2.28-.07-.22.12-.15c.81-.96,1.61-1.94,2.44-2.88.83-.94,1.64-1.9,2.49-2.82-.72,1.06-3.75,4.88-4.47,5.85l.67,2.39.09.24-.15.2c-1.86,2.46-3.75,4.89-5.66,7.29-.08,2.94-.26,17.94-.26,17.94Z"/>
        </g>
        <g id="Head">
          <g>
            <g>
              <path class="cls-2" d="M348.43,93.75c-.26-.37-.55-.73-.88-1.08-.16-.17-.34-.35-.41-.58-.05-.15-.05-.32-.05-.48-.01-2.04-.79-4.08-2.16-5.6-2.98-3.32-7.81-3.42-11.92-3.32-2.83.07-5.67-.1-8.49-.28-1.18-.07-2.38-.27-3.42-.83-1.04-.56-1.91-1.53-2.12-2.69-.9.98-1.82,1.99-2.32,3.23-.49,1.24-.47,2.77.41,3.78-1.2.09-2.34.81-2.93,1.87-.59,1.05-.6,2.4-.04,3.47-.89,1.37-1,3.21-.27,4.67,1.68,3.37,6.97,4.06,10.25,4.66,3.9.71,8.03,1.26,11.38,3.55,2.51,1.71,5.09,4.82,5.8,7.84.34,1.42-.08,3.33-.1,4.81,0,.34.23,2.4-.04,2.63,2.5-2.18,4.93-6.33,6.09-8.94,2.22-5.03,4.69-11.76,1.22-16.7Z"/>
              <path class="cls-8" d="M347.74,115.42c-3.46,1.74-5.08-1-5.08-1l-.35,15.09c-6.57,9.03-24.45,5.65-17.22-1.14l-.03-4.25s-1.17-.01-3.02-.29c-3.09-.45-6.12-2.62-7.08-5.94-1.42-4.92-.99-12.82.77-21.25.33-1.57.88-3.12,1.76-4.47.83-1.26,1.73-2.49,3.27-2.92,1.08-.3,2.54-.03,3.32.82.42.45.67,1.06,1.17,1.43.28.2.61.31.95.36,1.42.19,2.74-.65,4.04-1.24,1.43-.65,2.99-1.01,4.56-1.06.7-.02,1.41.02,2.08.23.9.28,1.68.86,2.34,1.54.27.29.53.6.69.96,1.15,2.55.07,5.35-.4,7.93-.2,1.12-.31,2.25-.31,3.39,0,.98.23,1.99.71,2.84.27.48.73,1.34,1.34,1.46,2.12.42,2.34-1.4,3.27-2.4.94-1,4.49-1.93,6.06,1.31,1.59,3.3.34,6.98-2.86,8.59Z"/>
              <path class="cls-12" d="M338.18,119.97c-.68,3.42-5.27,5.72-13.1,6.01v-1.86s2.39,0,5.72-.59c3.66-.65,7.38-3.56,7.38-3.56Z"/>
            </g>
            <g>
              <path class="cls-2" d="M330.4,100.63l3.42,1.44c.38-.98-.08-2.09-1.03-2.49-.94-.4-2.02.08-2.39,1.05Z"/>
              <path class="cls-2" d="M317.52,101.59l3.58-1.08c-.26-1.01-1.28-1.58-2.27-1.28-.99.3-1.57,1.36-1.31,2.37Z"/>
              <path class="cls-2" d="M332.58,104.29c-.02.83-.71,1.5-1.55,1.48-.83-.02-1.5-.71-1.48-1.55.02-.83.71-1.5,1.55-1.48.83.02,1.5.71,1.48,1.55Z"/>
              <path class="cls-2" d="M321.18,104.15c-.02.83-.71,1.5-1.55,1.48-.83-.02-1.5-.71-1.48-1.55.02-.83.71-1.5,1.55-1.48.96.02,1.5.59,1.48,1.55Z"/>
              <path class="cls-12" d="M325.93,102.43l-1.43,8.98-4.65-1.11c1.77-4.04,3.69-6.07,6.08-7.87Z"/>
            </g>
            <g>
              <path class="cls-12" d="M329.52,112.53l-5.21,2.02c.53,1.49,2.13,2.25,3.57,1.7,1.44-.56,2.17-2.22,1.64-3.71Z"/>
              <path class="cls-10" d="M329.01,113.51c.22-.06.45-.09.67-.1.05,1.22-.64,2.38-1.8,2.83-.29.11-.59.16-.88.17-.28-1.23.6-2.51,2.01-2.9Z"/>
            </g>
          </g>
          <g>
            <path class="cls-7" d="M325.26,107.07c.08.14.17.28.26.41.42.56,1.04.96,1.69,1.22.65.26,1.35.39,2.04.51,1.29.23,2.55.39,3.85.29,1.13-.08,2.2-.13,3.06-.98.56-.56.81-1.52,1-2.27.34-1.34.42-2.73.37-4.11-.03-.94-.13-1.95-.74-2.66-.41-.49-1.01-.78-1.6-1.03-5.07-2.16-10.77-2.34-16.25-1.85-1.87.17-4.17.39-4.75,2.5-.56,2.02-.34,4.18,0,6.25.11.69.27,1.45.82,1.88.45.36,1.49.72,2.06.76,1.02.07,2.77.22,4.14-.37.22-.17.34-.47.49-.7.21-.31.42-.62.65-.92.27-.36.7-.9,1.2-.88.5.01.95.6,1.18.99.19.31.34.65.52.97Z"/>
            <path class="cls-3" d="M329.18,109.63c-.73-.13-1.45-.27-2.13-.53-.82-.32-1.45-.78-1.88-1.36-.11-.15-.2-.3-.29-.46h0c-.08-.15-.16-.29-.23-.44-.09-.18-.18-.35-.28-.52-.27-.46-.6-.77-.82-.78,0,0,0,0,0,0-.3,0-.68.5-.84.71-.22.29-.43.59-.63.9-.04.06-.07.12-.11.19-.12.21-.25.44-.47.62l-.1.06c-1.41.6-3.17.48-4.21.41h-.13c-.64-.05-1.76-.43-2.3-.86-.67-.53-.86-1.39-.98-2.16-.34-2.1-.58-4.33,0-6.44.67-2.42,3.25-2.65,5.13-2.81,6.8-.61,12.03,0,16.46,1.88.6.25,1.27.57,1.76,1.15.69.81.81,1.89.84,2.93.05,1.62-.08,3-.39,4.23-.2.77-.46,1.82-1.12,2.47-.94.93-2.09,1.01-3.21,1.09h-.13c-.27.03-.54.04-.81.04-1.1,0-2.16-.15-3.15-.33ZM318.98,97.03c-2.11.19-3.9.48-4.37,2.18-.54,1.95-.31,4.06.01,6.06.1.63.24,1.28.66,1.61.36.29,1.3.63,1.82.66h.13c.95.07,2.54.18,3.75-.31.08-.08.15-.21.22-.33.05-.08.09-.16.14-.24.21-.32.43-.64.66-.95.28-.38.85-1.1,1.56-1.06.73.02,1.28.76,1.54,1.2.11.19.21.38.31.57.07.14.14.28.21.41h0c.07.13.15.25.23.37.33.44.85.81,1.5,1.07.6.24,1.24.36,1.96.49,1.18.21,2.45.38,3.75.29h.13c1.04-.08,1.94-.15,2.66-.86.48-.48.72-1.4.89-2.07.29-1.15.41-2.45.36-3.99-.03-.88-.12-1.79-.64-2.4-.37-.43-.93-.7-1.44-.91-3.22-1.37-6.89-2.04-11.32-2.04-1.49,0-3.06.08-4.73.22Z"/>
          </g>
        </g>
        <g id="Arm-2" data-name="Arm">
          <g id="Arm-3" data-name="Arm">
            <path class="cls-12" d="M334.2,154.61c-2.79-2.36-4.21-3.3-5.55-3.77-1.34-.47-6-2.76-7.81-3.33-1.15-.36-1.73,1.46-.33,2.82,1.08,1.05,3.97,2.52,5.22,3.31,1.26.79,3.62,4.06,3.62,4.06l4.84-3.1Z"/>
            <path class="cls-8" d="M369.47,142.04c-2.52-6.36-4.98-8.26-11.53-10.39-7,6.03-3.08,22.73-3.08,22.73l4.05,15.8s-11.92-3.06-13.82-4.45c-1.9-1.39-6.85-7.43-8.53-9.25-2.28-2.48-3.5-2.24-4.74-2.13-4.07.35-4.98.64-5.86,1.13-.89.49-.88,1.52-.88,1.52-1.08.07-2.68-.07-3,1.68-.21,1.15-.15,1.41-.15,1.41,0,0-.39.01-.72.36-.96.98.35,4.65,1.27,5.58.64.65,1.61.79,2.9.7,1.09-.08.66-1.22.66-1.22l1.51.18c3.14,2.53,3.01,7.16,7.29,8.45.9.27,2.79.36,5.23,1.36,9.14,3.72,20.84,14.17,29.11,15.4,8.08,1.2,9.12-3.52,9.07-8.5-.09-7.96-6.26-34.02-8.77-40.36Z"/>
            <g>
              <path class="cls-12" d="M325.08,157.01l5.14-.16-5.01-.49c-.09.22-.13.43-.13.65Z"/>
              <path class="cls-12" d="M321.93,160.09l5.56-.37-5.52-.27c-.04.2-.04.41-.03.64Z"/>
              <path class="cls-12" d="M326.53,164.73c-.6-.71-.62-1.1-.62-1.1,0,0-1.33-.11-1.91-.25-.25-.07-.49-.16-.72-.26-.28-.14-.57-.3-.77-.56.15.29.41.53.7.69.25.15.53.26.81.34l.27.7c-.21,0-.41.07-.59.19-.25.17-.42.43-.53.69.16-.24.37-.44.6-.57.23-.11.51-.15.75-.09,1.2.36,1.51.99,1.51.99l1.51.18s-.69-.58-1.01-.96Z"/>
            </g>
          </g>
          <g>
            <path class="cls-1" d="M357.4,130.79c-2.06,1.19-6.04,8.16-3.6,19.79,2.44,11.62,4.95,19.41,4.95,19.41l-10.55-3.23s1.5,2.59,1.37,7.41c-.17,6.12-3.47,6.38-3.47,6.38,0,0,6.65,4.4,9.71,6.08,6.35,3.48,13.34,5.59,17.77,4.79,5.04-.91,5.19-4.84,4.99-10.41-.2-5.57-5.09-25.43-6.41-31.21-1.33-5.77-2.2-15.92-14.75-19Z"/>
            <path class="cls-18" d="M357.4,130.79c-2.06,1.19-6.04,8.16-3.6,19.79,2.44,11.62,4.95,19.41,4.95,19.41l-10.55-3.23s1.5,2.59,1.37,7.41c-.17,6.12-3.47,6.38-3.47,6.38,0,0,6.65,4.4,9.71,6.08,6.35,3.48,13.34,5.59,17.77,4.79,5.04-.91,5.19-4.84,4.99-10.41-.2-5.57-5.09-25.43-6.41-31.21-1.33-5.77-2.2-15.92-14.75-19Z"/>
            <path class="cls-15" d="M358.75,169.98c3.5.94,10.14,6.61,11,8.57-1-4.28-5.9-10.15-11.88-11.53l.89,2.96Z"/>
          </g>
        </g>
      </g>
    </g>
  </g>
  <g id="Platform">
    <g id="Platform-2" data-name="Platform">
      <g>
        <path class="cls-9" d="M248.95,273.86c-2.92-3.01-6.54-5.86-10.98-8.42-26.01-15.02-68.19-15.02-94.2,0-4.44,2.56-8.06,5.41-10.98,8.42h-8.53v18.77h0c0,9.84,6.5,19.68,19.51,27.19,26.01,15.02,68.19,15.02,94.2,0,13.01-7.51,19.51-17.35,19.51-27.19v-18.77h-8.53Z"/>
        <path class="cls-9" d="M143.77,249.94c-26.01,15.02-26.01,39.37,0,54.39,26.01,15.02,68.19,15.02,94.2,0,26.01-15.02,26.01-39.37,0-54.39-26.01-15.02-68.19-15.02-94.2,0Z"/>
        <path class="cls-9" d="M190.87,240.43c17.49,0,33.9,3.92,46.22,11.03,12.02,6.94,18.63,16.05,18.63,25.67s-6.62,18.74-18.63,25.67c-12.32,7.11-28.73,11.03-46.22,11.03s-33.9-3.92-46.22-11.03c-12.01-6.94-18.63-16.05-18.63-25.67s6.62-18.74,18.63-25.67c12.32-7.11,28.73-11.03,46.22-11.03M190.87,238.68c-17.05,0-34.09,3.75-47.1,11.26-26.01,15.02-26.01,39.37,0,54.39,13.01,7.51,30.05,11.26,47.1,11.26s34.09-3.75,47.1-11.26c26.01-15.02,26.01-39.37,0-54.39-13.01-7.51-30.05-11.26-47.1-11.26h0Z"/>
      </g>
      <g>
        <path class="cls-9" d="M238.97,256.66c-2.42-2.49-5.42-4.85-9.09-6.97-21.54-12.44-56.46-12.44-78.01,0-3.67,2.12-6.67,4.48-9.09,6.97h-7.06v15.54h0c0,8.15,5.39,16.3,16.16,22.52,21.54,12.44,56.47,12.44,78.01,0,10.77-6.22,16.16-14.37,16.16-22.52v-15.54h-7.06Z"/>
        <path class="cls-9" d="M152.46,237.35c-21.22,12.25-21.22,32.11,0,44.36,21.22,12.25,55.62,12.25,76.83,0,21.22-12.25,21.22-32.11,0-44.36-21.22-12.25-55.62-12.25-76.83,0Z"/>
        <path class="cls-9" d="M190.87,229.44c14.43,0,27.97,3.23,38.13,9.09,9.85,5.69,15.28,13.15,15.28,21s-5.43,15.31-15.28,21c-10.16,5.86-23.69,9.09-38.12,9.09s-27.97-3.23-38.13-9.09c-9.85-5.69-15.28-13.15-15.28-21s5.43-15.31,15.28-21c10.15-5.86,23.69-9.09,38.12-9.09M190.87,227.69c-14.12,0-28.23,3.11-39,9.33-21.54,12.44-21.54,32.6,0,45.04,10.77,6.22,24.89,9.33,39,9.33s28.23-3.11,39-9.33c21.54-12.44,21.54-32.6,0-45.04-10.77-6.22-24.89-9.33-39-9.33h0Z"/>
      </g>
    </g>
  </g>
  <g id="Robot">
    <g id="Robot-2" data-name="Robot">
      <g>
        <polygon class="cls-3" points="198.81 180.99 199 189.08 211.79 188.8 211.7 180.61 198.81 180.99"/>
        <g>
          <path class="cls-1" d="M213.76,112.07c2.83,7.52,1.92,37.58,1.46,48.32-.46,10.74-1.61,17.99-4.98,22.7-2.55,3.56-9.3,2.02-11.21.39-2.93-2.49-5.17-9.21-6.8-20.49-2.25-15.5-3.7-31.49-3.7-31.49,0,0,10.6-17.17,25.23-19.43Z"/>
          <path class="cls-6" d="M213.76,112.07c2.83,7.52,1.92,37.58,1.46,48.32-.46,10.74-1.61,17.99-4.98,22.7-2.55,3.56-9.3,2.02-11.21.39-2.93-2.49-5.17-9.21-6.8-20.49-2.25-15.5-3.7-31.49-3.7-31.49,0,0,10.6-17.17,25.23-19.43Z"/>
          <path class="cls-1" d="M200.14,166.18c-.06-1.78-.06-3.37-.06-4.78,0-4.29,0-7.12-1.75-9.26-1.25-1.53-2.68-1.89-4.2-2.28-1.14-.29-2.41-.64-3.82-1.5,0,0,0,.01,0,.02.03.29.07.59.11.89,0,.02,0,.04,0,.05,1.29.7,2.46,1,3.52,1.27,1.51.39,2.71.69,3.8,2.02,1.4,1.71,1.56,3.93,1.58,7.37-3.39.29-5.99-.3-7.76-1.73.05.35.09.7.14,1.04,1.54,1.01,3.53,1.52,5.98,1.52.52,0,1.08-.04,1.64-.08,0,.22,0,.42,0,.65,0,1.41,0,3.01.06,4.8.05,1.57.16,3.4.32,5.3-2.44.23-4.47,0-6.09-.67.07.3.13.59.2.89,1.19.41,2.56.63,4.12.63.58,0,1.2-.04,1.83-.09.41,4.75,1.12,9.83,2.05,12.53.29.08.58.15.89.22,0,0,0,0,0,0-1.26-3.13-2.32-11.84-2.56-18.83Z"/>
        </g>
        <path class="cls-3" d="M213.08,115.36c-.24-1.14-.56-2.12-.95-2.97-13.78,3.21-23.61,19.11-23.61,19.11,0,0,.47,5.15,1.28,12.43,4.14.37,10.49-1.74,14.5-4.89,5.38-4.23,11.27-11.8,8.78-23.69Z"/>
        <g>
          <g>
            <path class="cls-2" d="M231.65,253.65c.32.74.18,2.12-.25,2.97-.43.86-4.91,3.29-10.85,2.69-5.93-.6-9.95-3.2-12.17-4.82-2.22-1.62-3.9-1.98-6.84-2.25-2.94-.26-5.5-1.45-6.1-2.9-.6-1.44.21-3.87.21-3.87l36,8.16Z"/>
            <path class="cls-28" d="M211.24,236.74c.61,1.37,1.48,2.17,2.63,3.11,1.65,1.34,3.32,2.23,5.17,3.21,1.95,1.04,4.09,2.06,6.13,2.88,1.7.68,3.57,1.13,5.08,2.25,2.29,1.7,2.47,5.79-.23,7.32-2.33,1.32-8.41,2.64-14.69.59-3.42-1.11-7.14-5.04-11.65-5.54-1.67-.19-3.33-.48-4.95-.93-1.56-.43-3.18-1.74-3.29-3.52-.03-.47.05-.95.14-1.41.33-1.83.65-3.65.98-5.48.17-.92.42-1.88.5-2.81.05-.57-.15-1.28.27-1.75.14-.16.35-.25.54-.34,1.29-.57,2.72-.79,4.09-1.1,1.8-.41,3.64-.68,5.48-.79.64-.04,1.33-.05,1.89.28.97.57,1.2,1.86,1.6,2.93.05.14.26.97.32,1.1Z"/>
          </g>
          <path class="cls-1" d="M220.57,257.1c4.2.28,7.78-.65,9.45-1.6,2.25-1.28,2.5-4.32,1.19-6.29-2,2.72-5.1,2.51-6.74,3.12-.67.25-.4,1.58-.53,2.98-.11,1.16-1.44,1.61-3.37,1.79Z"/>
          <path class="cls-6" d="M220.57,257.1c4.2.28,7.78-.65,9.45-1.6,2.25-1.28,2.5-4.32,1.19-6.29-2,2.72-5.1,2.51-6.74,3.12-.67.25-.4,1.58-.53,2.98-.11,1.16-1.44,1.61-3.37,1.79Z"/>
        </g>
        <g>
          <path class="cls-1" d="M203.88,187.74c-3.06,0-5.83-1.95-5.83-1.95,0,0-4.44,3.96-4.14,13.13.3,9.17,2.89,37.45,2.89,37.45,0,0,6.66,4.73,14.39-.53,0,0,2.45-29.88,3.1-40.49.54-8.84.61-11.55-1.37-10.83-1.98.72-5.27,3.22-9.05,3.22Z"/>
          <path class="cls-6" d="M203.88,187.74c-3.06,0-5.83-1.95-5.83-1.95,0,0-4.44,3.96-4.14,13.13.3,9.17,2.89,37.45,2.89,37.45,0,0,6.66,4.73,14.39-.53,0,0,2.45-29.88,3.1-40.49.54-8.84.61-11.55-1.37-10.83-1.98.72-5.27,3.22-9.05,3.22Z"/>
          <path class="cls-1" d="M207.37,211.91c2.31-.14,4.4-.75,5.87-1.74.02-.32.05-.65.07-.97-2.59,2.19-8.59,2.68-13.13.84.02-2.37.07-4.81.18-7.5.26-6.41-2.4-8.6-4.53-10.36-.35-.29-.65-.56-.95-.84-.08.26-.16.53-.24.81.23.2.46.41.71.61,2.11,1.74,4.5,3.71,4.25,9.74-.34,8.34-.16,14.44.09,22.87l.12,4.08c.09,3.15.22,5.96.36,8.39.24.07.5.13.77.18-.15-2.47-.28-5.35-.38-8.59l-.12-4c2.23.82,4.72,1.16,7.02,1.02,1.7-.11,3.26-.48,4.57-1.05.02-.28.05-.57.07-.86-2.93,1.44-7.8,1.62-11.68.09-.15-5.07-.27-9.34-.25-13.82,2.28.87,4.83,1.22,7.19,1.08Z"/>
        </g>
        <g>
          <path class="cls-1" d="M211.8,174.9c-3.96.37-5.32,5.54-5.31,7.31.01,1.77-.24,7.61,5.27,7.19,7.44-.57,6.76-14.25.04-14.5Z"/>
          <path class="cls-30" d="M214.06,186.87c-1.52.12-3.11-.42-4.12-1.56-1.08-1.22-1.39-2.94-1.36-4.56.04-2.08.7-4.29,2.22-5.63-3.2,1.05-4.33,5.48-4.32,7.09.01,1.77-.24,7.61,5.27,7.19,2.13-.16,3.57-1.42,4.42-3.1-.67.31-1.38.52-2.12.58Z"/>
        </g>
      </g>
      <g>
        <path class="cls-28" d="M191.55,141.61c-8.73,0-21.02-.65-25.54-16.12.97-8.72,8.73-8.47,14.64-5.55,5.92,2.92,14.22,12.33,10.9,21.67Z"/>
        <path class="cls-1" d="M214.25,118.55c-.44,2.52-.71,4.39-1.78,6.72-2.1,4.61-4.15,7.43-9.7,11.65-2.74,2.08-7.63,4.49-11.22,4.7.23-6.31-4.91-17.3-14.91-21.36-5.32-2.18-8.76.57-10.63,5.24-1.36-2.22-.38-10.23,1.03-14.65,1.03-3.25,3.04-6.59,5.33-8.34.79-.66,1.66-1.28,2.66-1.87,8.78-5.06,22.99-5.06,31.77,0,1.99,1.15,3.5,2.46,4.59,3.87,1.47,1.68,2.31,4.02,2.69,6.22.38,2.15.6,5.38.18,7.83Z"/>
        <path class="cls-6" d="M214.25,118.55c-.44,2.52-.71,4.39-1.78,6.72-2.1,4.61-4.15,7.43-9.7,11.65-2.74,2.08-7.63,4.49-11.22,4.7.23-6.31-4.91-17.3-14.91-21.36-5.32-2.18-8.76.57-10.63,5.24-1.36-2.22-.38-10.23,1.03-14.65,1.03-3.25,3.04-6.59,5.33-8.34.79-.66,1.66-1.28,2.66-1.87,8.78-5.06,22.99-5.06,31.77,0,1.99,1.15,3.5,2.46,4.59,3.87,1.47,1.68,2.31,4.02,2.69,6.22.38,2.15.6,5.38.18,7.83Z"/>
        <path class="cls-4" d="M177.8,101.38c-7.24,4.18-7.24,10.95,0,15.13,7.24,4.18,18.97,4.18,26.21,0,7.24-4.18,7.24-10.95,0-15.13-7.24-4.18-18.97-4.18-26.21,0Z"/>
      </g>
      <g>
        <g>
          <path class="cls-2" d="M155.83,257.67c-.09,1.15-.03,2.42.46,3.21.48.79,1.85,1.56,2.29,2.82.42,1.19.12,2.85.42,4.27.26,1.25.96,3.8,4.5,5.97,3.54,2.17,9.2,1.87,12.74,1.43,3.54-.44,6.05-1.97,6.29-3.88.25-1.92-.61-4.03-.61-4.03l-26.08-9.77Z"/>
          <path class="cls-28" d="M157.81,247.34c-.38,3.32-2.29,9-1.93,10.57.35,1.57,1.98,2.29,3.12,4,1.14,1.71-.74,5.76,3.3,8.92,4.05,3.17,8.14,3.33,13.27,2.94,2.92-.22,4.76-1.08,5.63-1.88,1.81-1.66,1.69-5.05.11-6.63-.82-.82-2.13-2.07-2.85-3-.9-1.15-1.78-2.22-2.88-3.89-2-3.02-3.45-9.15-3.23-11.13.78-7.05-12.51-8.79-14.53.1Z"/>
          <path class="cls-1" d="M181.92,270.99c-.02-.55-.1-1.13-.17-1.56-.3-1.92-1.35-2.41-3.23-2.41s-8.06.26-8.06,2.5c0,3.41-2.98,3.88-4.94,3.24,3.05,1.3,6.27,1.32,10.05,1.03,2.92-.22,4.76-1.08,5.63-1.88.32-.3.56-.56.72-.91Z"/>
          <path class="cls-6" d="M181.92,270.99c-.02-.55-.1-1.13-.17-1.56-.3-1.92-1.35-2.41-3.23-2.41s-8.06.26-8.06,2.5c0,3.41-2.98,3.88-4.94,3.24,3.05,1.3,6.27,1.32,10.05,1.03,2.92-.22,4.76-1.08,5.63-1.88.32-.3.56-.56.72-.91Z"/>
        </g>
        <g>
          <polygon class="cls-3" points="163.8 197.01 164.84 183.09 176.49 184.34 175.23 198.24 163.8 197.01"/>
          <g>
            <path class="cls-1" d="M176.35,123.52c-7.62-2.83-10.57,5.2-12.24,15.7-1.67,10.5-2.71,32.17-1.87,40.8.44,4.56,1.04,11.28,7.34,11.48s8.27-3.88,10.61-8.61c2.33-4.73,8.56-30.16,8.33-40.35s-6.33-16.86-12.17-19.03Z"/>
            <path class="cls-6" d="M176.35,123.52c-7.62-2.83-10.57,5.2-12.24,15.7-1.67,10.5-2.71,32.17-1.87,40.8.44,4.56,1.04,11.28,7.34,11.48s8.27-3.88,10.61-8.61c2.33-4.73,8.56-30.16,8.33-40.35s-6.33-16.86-12.17-19.03Z"/>
            <path class="cls-1" d="M173.31,139.62c1.03-3.94.86-6.34-.53-7.34-1.38-.99-3.86-.44-7.66,1.72-.08.32-.15.65-.22.98,2.42-1.44,5.92-3.19,7.44-2.08,1.07.77,1.15,3.03.24,6.53-1.67,6.41-2.74,11.25-3.54,16.43-2.82-.1-4.97-1.38-6.38-2.7-.02.32-.05.63-.07.95,1.51,1.26,3.64,2.38,6.34,2.5-.44,2.96-.8,6.06-1.13,9.64-.09.92-.16,1.87-.23,2.85-2.3-.03-4.17-.86-5.57-1.87,0,.3-.01.6-.02.9,1.45.95,3.31,1.68,5.53,1.72-.49,7.72-.39,16.64.72,21.49.25.05.52.09.8.11-1.34-5.42-1.28-16.7-.48-25.13.95-10.15,2.07-16.38,4.76-26.69Z"/>
          </g>
          <g>
            <path class="cls-1" d="M172.24,194.15c-5.22.27-6.59-1.47-8.39-2.85-1.8-1.38-7.52,7.93-7.7,18.42-.21,12.15,1.21,36.87,1.21,36.87,1.37,3.25,12.92,4.74,15.6-.11,0,0,4.41-40.16,5.46-46.45s-.71-7.97-6.18-5.87Z"/>
            <path class="cls-6" d="M172.24,194.15c-5.22.27-6.59-1.47-8.39-2.85-1.8-1.38-7.52,7.93-7.7,18.42-.21,12.15,1.21,36.87,1.21,36.87,1.37,3.25,12.92,4.74,15.6-.11,0,0,4.41-40.16,5.46-46.45s-.71-7.97-6.18-5.87Z"/>
            <path class="cls-1" d="M163.17,216.46c.16-2.37.37-4.8.64-7.47.66-6.38-1.86-8.73-3.88-10.62-.4-.38-.77-.74-1.1-1.1-.11.25-.21.52-.31.78.28.29.58.58.89.87,2,1.87,4.26,3.98,3.64,9.99-.86,8.3-1.05,14.4-1.32,22.83l-.13,4.08c-.19,5.55-.18,10.12-.13,13.25.25.06.5.13.76.18-.05-3.12-.06-7.75.13-13.4l.13-4c2.18.96,4.63,1.45,6.94,1.45,1.9,0,3.68-.33,5.1-.93.03-.29.06-.57.1-.86-2.96,1.47-8.15,1.4-12.12-.45.16-5.07.31-9.34.6-13.8,2.22,1.01,4.74,1.52,7.11,1.52s4.49-.49,6.02-1.4c.04-.32.07-.64.11-.95-2.7,2.05-8.76,2.17-13.19.04Z"/>
          </g>
          <g>
            <path class="cls-1" d="M174.37,182.61c-3.34-.48-6.14,1.78-7.02,6.43-.93,4.92,2.03,8.01,4.68,8.22,2.65.21,5.12-1.51,6.32-6.15.86-3.32.43-7.86-3.98-8.49Z"/>
            <path class="cls-30" d="M172.03,197.26c2.41.19,4.66-1.24,5.95-4.98-.82.65-1.75,1.15-2.77,1.38-1.98.43-4.3-.36-5.22-2.16-.33-.64-.47-1.36-.55-2.08-.22-2.02.1-4.14,1.06-5.91-1.5,1.03-2.65,2.88-3.15,5.54-.93,4.92,2.03,8.01,4.68,8.22Z"/>
          </g>
        </g>
      </g>
      <g>
        <path class="cls-1" d="M202.54,97.25c-5.81-1.8-11.8-8.75-11.8-8.75,0,0,8.13-14.4,15.43-9.19,7.29,5.2,6.98,21.23-3.62,17.94Z"/>
        <path class="cls-28" d="M206.14,86.85c1.55,9.22.17,17.65-1.56,23.31-.72,2.7-6.45,5.23-13.85,5.34s-13.13-3.42-14.08-5.98c-.95-2.56,1-7.27-6.2-24.78,0,0,10.72-13.15,22.84-10.43,12.12,2.71,12.85,12.55,12.85,12.55Z"/>
        <path class="cls-1" d="M185.75,45.25c-12.21.71-22.27,5-24.94,10.41-2.67,5.4-.78,16.31,2.9,24.52,2.53,5.64,7.45,15.97,11.66,18.68s10.72,2.94,13.92-2.55c3.2-5.49,8.37-17.74,14.46-12.18,5.52,5.04,5.07,10.59,3.95,11.94-.29.35-.6.63-.93.85l-.03,1.25c1.05-.19,2.15-.73,3.26-1.96,3.57-3.93,4.64-16.74,2.88-30.03-1.76-13.29-7.08-22.08-27.13-20.92Z"/>
        <path class="cls-6" d="M185.75,45.25c-12.21.71-22.27,5-24.94,10.41-2.67,5.4-.78,16.31,2.9,24.52,2.53,5.64,7.45,15.97,11.66,18.68s10.72,2.94,13.92-2.55c3.2-5.49,8.37-17.74,14.46-12.18,5.52,5.04,5.07,10.59,3.95,11.94-.29.35-.6.63-.93.85l-.03,1.25c1.05-.19,2.15-.73,3.26-1.96,3.57-3.93,4.64-16.74,2.88-30.03-1.76-13.29-7.08-22.08-27.13-20.92Z"/>
        <path class="cls-28" d="M163.11,55.79c2.87-3.16,7.52-1.12,9.94,2.81,2.99,4.86,4,12.63,1.41,16.72-2.65,4.19-7.9,2.51-10.7-2.06-3.32-5.44-3.08-14.8-.65-17.47Z"/>
        <path class="cls-1" d="M169.6,91.8c.28.45.54.89.82,1.32-.18-3.28.75-6.51,2.7-9.5.91,2.88,2.12,6.08,3.66,9.08,1.54,3.01,3.43,5.83,5.72,7.97.35-.04.69-.09,1.03-.16-4.89-4.23-8.01-11.75-9.83-17.71,1.52-2.1,3.54-4.07,6.03-5.82,4.37-3.07,12.98-5.7,20.79-6.14.21,1.91.34,3.95.37,6.08.03,1.86-.02,3.8-.15,5.81.26,0,.52.04.78.1.28-4.27.16-8.32-.25-12.02,2.61-.1,5.11.04,7.32.52,2.09.45,3.75,1.15,4.98,2.09-.02-.34-.05-.67-.07-1.01-1.26-.83-2.83-1.45-4.75-1.87-2.27-.49-4.86-.63-7.57-.53-.92-7.69-3.04-13.76-5.24-16.95l-.76.31c1.98,2.84,4.28,8.71,5.24,16.68-7.97.48-16.71,3.15-21.16,6.26-2.38,1.67-4.34,3.53-5.86,5.51-.5-1.7-.89-3.25-1.18-4.51-.24.11-.48.2-.74.25.32,1.4.76,3.15,1.34,5.06-1.01,1.43-1.78,2.93-2.32,4.46-.54,1.54-.85,3.11-.9,4.69Z"/>
      </g>
      <g>
        <path class="cls-3" d="M142.38,138.42c-.14.08-.27.18-.39.31-1.74,1.86-2.53,3.06-3.28,4.94-.93,2.34-.87,4.62-.71,6.35.08.87.85,1.51,1.72,1.43.87-.08,1.51-.85,1.43-1.72-.13-1.46-.18-3.18.5-4.89.6-1.5,1.19-2.39,2.66-3.95.6-.64.56-1.64-.08-2.24-.51-.48-1.26-.55-1.85-.23Z"/>
        <path class="cls-3" d="M145,102.05c.96-12.97,6.05-25.63,16-39.84,1.44-2.06,4.28-2.56,6.34-1.12,2.06,1.44,2.56,4.28,1.12,6.34-8.98,12.82-13.55,24.03-14.38,35.3-.85,11.5-.45,27.83-.44,28.04.06,2.51-1.92,4.6-4.44,4.66,0,0,0,0-.01,0-2.51.06-4.59-1.93-4.65-4.44-.02-.88-.42-16.99.47-28.94Z"/>
        <g>
          <path class="cls-1" d="M150.11,96.66c-4.95-1.2-6.66.91-7.18,6.46-.48,5.08,1.52,23.02,1.52,23.02,0,0,1.15-1.83,4.26-1.78s4.79,1.9,4.79,1.9c0,0,2.41-19.68,2.5-22.06.08-2.38-.69-6.29-5.88-7.54Z"/>
          <path class="cls-6" d="M150.11,96.66c-4.95-1.2-6.66.91-7.18,6.46-.48,5.08,1.52,23.02,1.52,23.02,0,0,1.15-1.83,4.26-1.78s4.79,1.9,4.79,1.9c0,0,2.41-19.68,2.5-22.06.08-2.38-.69-6.29-5.88-7.54Z"/>
          <path class="cls-1" d="M148.2,113.53c-.05-5.62.06-7.99.24-11.22.05-.93-.2-1.6-.74-1.99-.92-.65-2.54-.38-4.36.22-.06.28-.14.55-.19.86,1.7-.6,3.37-.99,4.1-.47.32.23.46.67.42,1.33-.18,3.16-.3,5.65-.24,11.28.04,4.43.34,9.03.48,10.87.24-.02.48-.05.76-.04-.13-1.82-.44-6.41-.48-10.83Z"/>
        </g>
        <g>
          <path class="cls-1" d="M165.41,56.34c-4.24.24-12.41,9.6-15.36,16.78-2.95,7.18-5.13,14.86-3.51,19.1,4.75-2.35,8.86,2.18,8.86,2.18,2.2-1.77,3.49-5,7.15-12.1,3.27-6.34,7.41-10.45,9.27-15,2.54-6.2-2.7-11.76-6.4-10.97Z"/>
          <path class="cls-6" d="M165.41,56.34c-4.24.24-12.41,9.6-15.36,16.78-2.95,7.18-5.13,14.86-3.51,19.1,4.75-2.35,8.86,2.18,8.86,2.18,2.2-1.77,3.49-5,7.15-12.1,3.27-6.34,7.41-10.45,9.27-15,2.54-6.2-2.7-11.76-6.4-10.97Z"/>
          <path class="cls-1" d="M158.9,60.41c-.23.23-.46.45-.69.69,1.95.14,3.22.59,3.61,1.27.23.42.13.97-.31,1.65-.6.92-1.18,1.69-1.8,2.5-1.21,1.58-2.46,3.22-3.93,6.17-1.65,3.3-2.44,5.59-2.96,7.1-.19.55-.35,1.01-.5,1.4-1.49,3.69-1.95,4.83-6,4.02-.04.25-.08.49-.11.73.77.15,1.46.25,2.03.26,2.69.05,3.46-1.45,4.78-4.73.16-.4.32-.88.52-1.44.55-1.59,1.29-3.76,2.92-7.01,1.45-2.89,2.67-4.5,3.86-6.05.63-.82,1.22-1.6,1.84-2.55.61-.93.72-1.75.34-2.43-.53-.96-1.97-1.41-3.57-1.6Z"/>
        </g>
        <path class="cls-1" d="M140.79,135.18c.44-4.85,4.74-8.42,9.59-7.98s8.42,4.74,7.98,9.59c-.44,4.85-4.74,8.42-9.59,7.98-4.85-.44-8.42-4.74-7.98-9.59Z"/>
        <path class="cls-6" d="M140.79,135.18c.44-4.85,4.74-8.42,9.59-7.98s8.42,4.74,7.98,9.59c-.44,4.85-4.74,8.42-9.59,7.98-4.85-.44-8.42-4.74-7.98-9.59Z"/>
        <path class="cls-3" d="M146.11,143c-.29.16-.54.42-.68.75-.67,1.53-1.01,3.36-1.06,5.73-.05,2.57.61,4.84,1.92,6.56.53.7,1.53.83,2.22.3.7-.53.83-1.52.3-2.22-.87-1.15-1.31-2.73-1.27-4.58.04-1.95.29-3.39.79-4.53.35-.8-.01-1.73-.81-2.08-.47-.21-.99-.16-1.4.06Z"/>
        <path class="cls-3" d="M150.94,142c-.55.3-.89.92-.81,1.58l.05.38c.23,1.89.39,3.14.96,5.06.75,2.5,2.11,4.6,3.73,5.77.71.51,1.7.35,2.21-.36.51-.71.35-1.7-.36-2.21-.39-.28-1.74-1.42-2.55-4.12-.5-1.67-.62-2.69-.85-4.54l-.05-.38c-.11-.87-.9-1.48-1.76-1.38-.21.03-.4.09-.57.18Z"/>
        <path class="cls-3" d="M157.04,135.85c-.3.06-.59.22-.82.46-.6.63-.58,1.64.06,2.24.78.74,1.74,2.08,1.07,5.18-.19.85.36,1.7,1.21,1.88.85.19,1.7-.36,1.88-1.21.75-3.45.08-6.19-1.98-8.14-.39-.37-.93-.51-1.42-.4Z"/>
      </g>
      <g>
        <path class="cls-28" d="M172.04,20.11c.3,3.37,1.48,7.32,3.85,10.76,2.05,2.97,3.89,5.52,3.94,8.64.05,3.12.12,7.92.12,7.92,0,0,5.66,7.82,13.67,6.36,8.27-1.51,0-7.12,0-7.12l-.1-6.88s.87-8.63-4.64-14.04c-5.51-5.41-16.82-5.63-16.82-5.63Z"/>
        <g>
          <path class="cls-1" d="M172.05,22.65c-1.27-6.43.56-13.23,8.2-18.24,7.64-5,24.46-1.69,26.55,10.31,1.83,10.41.86,15.93-.64,21.66-.93,3.57-2.9,6.55-6.22,6.77-3.14.21-8.29-.06-12.08-1.6-1.53-.63-2.84-1.8-4.16-6.02-1.66-5.29-3.61-12.58-11.66-12.88Z"/>
          <path class="cls-6" d="M172.05,22.65c-1.27-6.43.56-13.23,8.2-18.24,7.64-5,24.46-1.69,26.55,10.31,1.83,10.41.86,15.93-.64,21.66-.93,3.57-2.9,6.55-6.22,6.77-3.14.21-8.29-.06-12.08-1.6-1.53-.63-2.84-1.8-4.16-6.02-1.66-5.29-3.61-12.58-11.66-12.88Z"/>
        </g>
        <path class="cls-28" d="M188.23,20.51c-4.86-.53-4.06,1.57-3.13,4.62.98,3.17,3.75,5.98,11.33,6.1,5.03.08,8.67-.86,11.2-2.68.26-2.86.23-6.11-.28-10.18-1.29.9-3.53,1.71-5.67,2.03-4.68.7-8.48.66-13.46.12Z"/>
        <path class="cls-1" d="M180.1,8.33c-3.76,5.13-4.16,11.68-4.06,15.19.28.13.55.27.81.42-.15-3.39.13-10.43,4.26-15.65,1.66,0,3.43.22,5.35.79,5.72,1.68,6.96,3.96,8.27,6.36l.31.57c.99,1.78,3.14,2.3,5.2,2.27,1.04-.02,2.04-.17,2.86-.38.14.68.26,1.38.37,2.1.26-.07.52-.14.77-.23-.11-.71-.23-1.4-.37-2.07,1.14-.34,2.29-.89,3.1-1.9-.06-.37-.11-.71-.18-1.09,0-.03-.01-.05-.01-.09-.65,1.28-1.83,1.91-3.07,2.3-1.21-5.29-3.44-9.34-6.7-12.11-1.05-.88-2.14-1.57-3.22-2.12-1.47-.32-2.96-.51-4.43-.54-3,.78-5.55,2.17-7.6,4.21-.37.37-.74.76-1.07,1.16-1.82.05-3.5.39-5.07.86-.32.36-.62.74-.88,1.12,1.66-.6,3.42-1.05,5.34-1.17ZM181.78,7.53c.18-.2.35-.41.55-.6,2.34-2.32,5.36-3.78,9.02-4.38,1.72.57,3.48,1.48,5.14,2.88,3.13,2.66,5.29,6.58,6.46,11.72-2.13.51-5.96.77-7.23-1.51l-.3-.57c-1.39-2.56-2.72-4.97-8.74-6.75-1.75-.5-3.38-.75-4.91-.79ZM198.98,43.19c.34,0,.66-.02.96-.05.18-.01.36-.04.53-.06.06-.06.13-.1.19-.17,1.75-1.66,3.71-5.22,4.05-12.85-.26.09-.53.18-.8.26-.36,7.13-2.15,10.45-3.77,11.99-.41.39-.79.67-1.17.87Z"/>
      </g>
    </g>
  </g>
  <g id="Character_1" data-name="Character 1">
    <g id="Character-2" data-name="Character">
      <g id="Bottom-2" data-name="Bottom">
        <path class="cls-22" d="M20,329.43c.8-11.05-.53-23.2.39-40.45h0c.08-4.42.24-9.16.54-13.37,1-14.16,3.18-19,3.38-21.73,0,0,1.07-27.14,2-58.12.44-14.58,4.66-18.99,8.03-26.73h40.12c4.48,19.09,5.76,60.72,5.62,80.4-.07,10.03-4.12,63.69-4.2,64.93-.29,4.38.1,6.11,1.81,7.95,3.59,3.86,8.8,7.53,13.31,10.89-.65,1.72-6.07,1.66-8.75.35-4.28-2.1-8.54-5.29-10-6.37-3.7-2.74-8.43-4.94-8.49-9.11-.01-.52-.15-.66-.12-.74-.07-2.43-5.74-38.33-6.22-46.66-.41-7.16.47-19.32.47-19.32l-4.62-30.34s-3.55,23.04-6.43,35.28c-2.35,9.97-6.21,26.97-8.86,39.24h0c-2.54,14.13-6.17,27.87-6.82,34.94-.19,1.69-2.11,18.27-2.9,22.06-.79,3.8-9.06,3.9-9.6-2.63-.35-4.35,1.17-18.38,1.32-20.46Z"/>
        <g>
          <path class="cls-2" d="M98.67,337.59c.23,0,.6,2.52-.63,3.6-1.42,1.25-5.62,3.33-11.19,2.67-5.58-.66-8.61-2.35-10.86-4.19-2.25-1.84-5.4-4.44-7.93-4.97-2.35-.49-4.9-1.52-5.66-2.24-.76-.72-.69-3.93-.69-3.93l36.95,9.06Z"/>
          <path class="cls-28" d="M63.53,316.13s-.42.02-.56.76c-.16.89-.32,3.47-.67,4.93-.49,2.03-.79,6.17-.46,7.82.32,1.64,4.15,2.75,6.6,3.65,2.5.92,5.4,2.85,7.95,4.9,2.64,2.13,8.17,4.24,11.8,4.25,5.54.02,9.11-1.52,10.2-3.52,1.34-2.48.25-3.89-6.15-6.78-1.21-.55-5.47-3.01-6.93-3.9-1.54-.94-3.01-2-4.37-3.18-.69-.6-1.35-1.23-1.96-1.9-.54-.59-1.31-1.3-1.64-2.04-.07-.17-.13-.36-.19-.54-.19-.5-.32-.96-.43-1.49-.11-.53-.18-1.3-.69-1.61-.58-.36-1.62-.3-2.28-.24-.82.07-1.65.18-2.45.37-.94.22-2.02.32-2.56,1.2-.42.68-.47,1.53-.5,2.31-.01.37,0,.75,0,1.12,0,.16.07.44-.15.38-.21-.06-.45-.61-.54-.8-.18-.41-.3-.86-.5-1.27-.23-.47-.48-.94-.81-1.34-.3-.37-.64-.72-1.02-1.02-.35-.26-.79-.39-1.1-.69-.39-.38-.57-1.06-.61-1.38Z"/>
          <path class="cls-25" d="M93.28,332.62c-8.02.64-10.49,5.62-10.8,8.69,2,.68,4.05,1.13,5.71,1.14,5.54.02,9.34-1.52,10.43-3.52,1.27-2.34.37-4.2-5.34-6.3Z"/>
          <g>
            <path class="cls-11" d="M81.25,332.83c-.09,0-.18-.03-.25-.09-.17-.14-.2-.38-.06-.55,1.1-1.38,4.3-3.22,7.22-2.94.22.02.37.21.35.43-.02.21-.21.37-.43.35-2.73-.26-5.66,1.55-6.54,2.65-.08.1-.19.15-.3.15Z"/>
            <path class="cls-11" d="M77.77,330.86c-.09,0-.18-.03-.25-.09-.17-.13-.2-.38-.06-.55,1.1-1.38,4.31-3.23,7.22-2.94.22.02.37.21.35.43-.02.21-.2.37-.43.35-2.72-.26-5.66,1.55-6.54,2.65-.08.1-.19.15-.3.15Z"/>
            <path class="cls-11" d="M74.55,328.59c-.09,0-.18-.03-.25-.09-.17-.13-.2-.38-.06-.55,1.1-1.38,4.32-3.23,7.22-2.94.22.02.37.21.35.43-.02.22-.2.37-.43.35-2.72-.26-5.66,1.55-6.54,2.65-.08.1-.19.15-.3.15Z"/>
            <path class="cls-11" d="M71.39,326.32c-.09,0-.17-.03-.24-.08-.17-.13-.2-.38-.07-.55,1.52-1.96,4.97-3.27,7.89-2.98.22.02.37.21.35.43-.02.21-.21.37-.43.35-2.63-.26-5.85.95-7.2,2.68-.08.1-.19.15-.3.15Z"/>
          </g>
        </g>
        <g>
          <path class="cls-2" d="M30.87,355.48c-.22,3.78-.81,6.29-2.15,8.51-1.34,2.22-3.88,2.92-6.44,2.27-2.57-.65-5.85-2.39-6.59-5.65-.74-3.26-1.16-5.5-.58-9.01l15.76,3.88Z"/>
          <path class="cls-28" d="M20.09,328.07c-1.06.08-1.37,5.16-1.98,10.25-.65,5.45-2.28,7.71-2.86,12.18-.67,5.11.18,7.39,1.97,10.48,1.79,3.09,8.13,6.12,11.25,1.69,2.55-3.61,2.65-7.61,2.42-12.71-.24-5.27.12-8.92.34-12.93.21-3.82,1.05-7.68.13-8.11-.07.56-.14,1.27-.21,1.83-.09.68-.09,1.39-.34,2.04-.11.28-.34.58-.44.12-.07-.31-.03-.64,0-.95.15-1.41-.56-1.52-.94-1.63-.83-.24-4.11-.64-4.9-.69-.81-.06-3.6-.18-3.96.28-.24.31-.28.83-.36,1.48-.09.77-.27,1.33-.29,1.09-.05-.55.06-1.98.07-2.33.01-.33.07-.78.07-1.12,0-.33,0-.65.03-.98Z"/>
          <path class="cls-25" d="M14.95,353.46c-.18,3.17.58,5.34,1.98,7.76,1.79,3.09,8.64,6.13,11.76,1.71,1.55-2.2,1.97-4.8,2.18-7.46-1.87-3.41-12.97-4.91-15.92-2.01Z"/>
          <g>
            <path class="cls-11" d="M28.57,349.92s-.09-.02-.13-.04c-.04-.02-4.93-2.04-9.69-.94-.21.05-.42-.08-.47-.29-.05-.21.08-.42.29-.47,5.03-1.16,10.02.91,10.21,1,.2.09.28.33.18.52-.07.15-.23.24-.39.22Z"/>
            <path class="cls-11" d="M18.98,345.14c-.15-.02-.28-.11-.33-.26-.07-.21.04-.43.25-.5,4.74-1.61,10,.8,10.2.91.19.1.27.34.16.53-.1.19-.34.26-.53.16-.04-.02-5.17-2.36-9.58-.86-.05.02-.11.02-.17.02Z"/>
            <path class="cls-11" d="M19.15,341.55c-.15-.01-.28-.11-.33-.26-.07-.2.03-.43.24-.5,5.21-1.87,10.2.77,10.39.88.19.11.24.35.13.54-.11.19-.36.24-.54.13-.04-.03-4.87-2.55-9.72-.81-.06.02-.12.03-.17.02Z"/>
            <path class="cls-19" d="M19.4,338.01c-.14-.01-.27-.11-.33-.25-.08-.2.03-.43.23-.5,4.88-1.83,10.26.87,10.46.99.19.11.25.35.14.53-.11.19-.35.26-.53.14-.05-.03-5.26-2.63-9.79-.93-.06.02-.12.03-.18.02Z"/>
          </g>
        </g>
        <g>
          <path class="cls-3" d="M33.27,169.15c-4.75,8.67-8.28,15.75-8.76,41.52-.48,25.77-1.1,38.09-1.2,41.2-.1,3.11-1.91,8.66-3.5,23.97-1.59,15.31-.13,33.23-.13,33.23,0,0,1.51,2.78,7.37,3.3,5.4.48,8.07-1.54,8.07-1.54,0,0,7.4-29.81,9.45-39.03,2.05-9.22,8.7-44.64,8.7-44.64l3.53,24.59s-1.65,8.45,0,21.87c1.65,13.42,4.55,27.17,4.55,27.17,0,0,3.67,1.42,8.29,1.35,4.62-.07,7.28-1.9,7.28-1.9,0,0,4.59-39.94,4.59-55.15,0-15.21-1.29-53.25-6.07-75.77l-42.16-.17Z"/>
          <path class="cls-28" d="M21.11,310.48c.22.17.48.34.8.52-1.49-24.05,1.5-37.87,3.49-47.07.19-.88.37-1.72.54-2.53,1.51-7.2,2.19-21.65,2.16-33.48,0-3.56-.01-7.24.02-11.15.04-4.57.18-9.31.55-13.99,8.39-1,10.21-9.28,12.5-19.74.31-1.43.64-2.91.99-4.43l-.75-.17c-.35,1.52-.68,3-.99,4.43-2.3,10.48-3.98,18.09-11.69,19.11.91-10.64,3.11-20.95,8.33-28.4l-.63-.44c-7.76,11.08-8.95,28.27-9.08,43.62-.03,3.91-.03,7.6-.02,11.16.02,11.79-.66,26.2-2.15,33.32-.17.8-.35,1.64-.54,2.52-1.99,9.18-4.96,22.9-3.55,46.72ZM57.65,200.58l-4.38,26.58,3.53,24.59-.47-23.88,3.27-18.14c.12,1.8.25,3.65.38,5.53,1.06,15.55,2.27,33.18,1.45,36.89-2.23,10.17-1.57,16.59-.38,28.24.12,1.18.25,2.42.38,3.72.65,6.58,1.38,13.04,1.87,17.27.24.06.51.12.79.19-.49-4.23-1.23-10.81-1.9-17.53-.13-1.3-.26-2.53-.38-3.72-1.18-11.57-1.84-17.94.37-27.99.84-3.82-.32-20.74-1.44-37.11-.2-2.97-.4-5.84-.58-8.58l.56-3.09c3.67-.88,10.34-3.58,11.42-8.64-5.65,5.91-14.49,5.69-14.49,5.69Z"/>
        </g>
      </g>
      <g id="Top-2" data-name="Top">
        <g id="Arm-4" data-name="Arm">
          <path class="cls-1" d="M65.02,125.23c6.11,1.74,9.59,2.08,13.56,8.06,4.07,6.14,9.4,13.67,15.52,23.07l16.06-7.5,6.44,11.19s-17.27,11.1-23.66,13.26c-4.78,1.61-5.9-.49-9.43-4.17-3.93-4.1-15.47-17.49-15.47-17.49l-3.03-26.42Z"/>
          <path class="cls-18" d="M65.02,125.23c6.11,1.74,9.59,2.08,13.56,8.06,4.07,6.14,9.4,13.67,15.52,23.07l16.06-7.5,6.44,11.19s-17.27,11.1-23.66,13.26c-4.78,1.61-5.9-.49-9.43-4.17-3.93-4.1-15.47-17.49-15.47-17.49l-3.03-26.42Z"/>
        </g>
        <path id="Chest-3" data-name="Chest" class="cls-2" d="M25.36,187.01c1.8-8.23,4.07-17.44,4.31-19.24,1.41-10.47-.45-15.78-1.14-20.36-1.49-9.97,1.37-18.33,3.69-20.29,0,0,2.41-.55,5.3-1.24,1.73-.41,2.33-.52,4.97-.89,5.87-.83,11.12-.59,13.32-.37,1.08.11,6.2.99,6.2.99,1.55.36,4.38.88,4.39.88,0,0,3.54,2.89,6.86,8.82,2.53,4.52,3.97,8.3,4.41,17.98.57,12.33.84,26.09,1.92,35.77-10.21,6.28-41.4,8.9-54.23-2.05Z"/>
        <g id="Head-2" data-name="Head">
          <path class="cls-2" d="M42.41,125.29c6.85,1.04,13.91.77,20.81.3,2.8-.19,5.62-.45,8.26-1.41-.52-3.08-.8-6.2-.84-9.32.89,3.04,2.76,5.79,5.26,7.73-1.97-3.01-2.97-6.57-3.4-10.14-.69-5.74.07-11.51-.53-17.26-.49-4.68-1.5-9.88-4.67-13.54-2.87-3.31-16.68-9.11-26.04-.56-.65.59-3.35,3.38-3.77,6.82-4.81,1.85-4.25,8.78-4.31,12.86-.11,6.92-.05,13.84.17,20.76,0,.21.01.42.02.62,0,.22.02.45.16.63.12.16.32.23.51.29,1.21.4,2.45.68,3.72.84.29-1.75.59-3.5.88-5.26.33,2,.67,4.01,1,6.01.91.29,1.84.49,2.78.64Z"/>
          <path class="cls-22" d="M43,121.94c.02-1.63-.21-9.83-.21-9.83-.07.61-3.05,2.27-5.7-.89-2.72-3.24-2.83-6.52-1.23-8.66,1.77-2.36,6.38-2.3,6.82,1.69,2.29-.09,3.4-1.08,2.49-4.85-.31-1.27,1.66-3.22,2.17-4.26.55-1.12.83-2.32.94-3.56.11-1.26.17-2.89,1.14-3.83.73-.72,1.85-.88,2.87-.84,1.06.04,2.12.26,3.11.64.81.31,1.59.74,2.43.96.84.22,1.81.2,2.51-.31.76-.56,1.12-1.61,1.99-1.97.82-.34,1.76.09,2.48.61,5.13,3.69,5.25,11.54,5.03,17.22-.33,8.7-1.89,12-4.48,13.79-1.87,1.29-4.53,1.77-7.79,1.49l.15,2.73c.06,1.37-.06,2.38,1.26,2.83.89.3,3.01.71,3.01.71,0,0,3.09,5.35-5.44,5.83-13.6.76-19.05-5.56-19.05-5.56,0,0,.92-.28,3.01-.93,2.22-.69,2.46-1.37,2.47-3.01Z"/>
          <g>
            <g>
              <path class="cls-8" d="M54.91,109.03l5.14,1.65c-.43,1.47-1.93,2.29-3.35,1.84-1.42-.46-2.22-2.02-1.79-3.49Z"/>
              <path class="cls-23" d="M55.23,110.22c1.44-.03,2.66.97,2.97,2.32-.48.14-.99.14-1.5-.02-1.02-.33-1.71-1.23-1.87-2.25.13-.02.26-.05.4-.05Z"/>
            </g>
            <path class="cls-2" d="M66.96,96.61l-3.4-1.43c.36-.96,1.42-1.42,2.36-1.02.94.4,1.4,1.5,1.04,2.46Z"/>
            <path class="cls-2" d="M50.48,97.2l3.18-1.95c-.51-.91-1.64-1.2-2.52-.67-.88.54-1.18,1.71-.67,2.62Z"/>
            <path class="cls-2" d="M63.07,99.23c-.07.84.57,1.59,1.41,1.68.85.09,1.59-.52,1.65-1.35.07-.84-.57-1.59-1.41-1.68-.85-.09-1.59.52-1.65,1.35Z"/>
            <path class="cls-2" d="M51.76,99.77c-.07.84.57,1.59,1.41,1.68.85.09,1.59-.52,1.65-1.35.07-.84-.57-1.59-1.41-1.68-.85-.09-1.59.52-1.65,1.35Z"/>
          </g>
          <path class="cls-23" d="M63.72,105.3l-4.79,2.19-1.77-9.25c1.93-.12,4.28,3.44,6.55,7.05Z"/>
          <path class="cls-23" d="M57.59,119.34c-5.84-.6-10.09-1.9-12.74-6.89,0,0,.7,3.8,2.81,5.57,3.9,3.26,10.04,3.39,10.04,3.39l-.11-2.07Z"/>
          <g>
            <path class="cls-7" d="M58.54,102.87c-.08.14-.17.28-.26.41-.42.56-1.04.96-1.69,1.22-.65.26-1.35.39-2.04.51-1.29.23-2.55.39-3.85.29-1.13-.08-2.2-.13-3.06-.98-.56-.56-.81-1.52-1-2.27-.34-1.34-.42-2.73-.37-4.11.03-.94.13-1.95.74-2.66.41-.49,1.01-.78,1.6-1.03,5.07-2.16,10.77-2.34,16.25-1.85,1.87.17,4.17.39,4.75,2.5.56,2.02.34,4.18,0,6.25-.11.69-.27,1.45-.82,1.88-.45.36-1.49.72-2.06.76-1.02.07-2.77.22-4.14-.37-.22-.17-.34-.47-.49-.7-.21-.31-.42-.62-.65-.92-.27-.36-.7-.9-1.2-.88-.5.01-.95.6-1.18.99-.19.31-.34.65-.52.97Z"/>
            <path class="cls-3" d="M51.47,105.77c-.27,0-.54,0-.81-.03h-.13c-1.11-.09-2.26-.17-3.21-1.1-.65-.65-.92-1.7-1.12-2.47-.31-1.23-.44-2.61-.39-4.23.03-1.04.16-2.12.84-2.93.49-.58,1.17-.9,1.76-1.15,4.43-1.89,9.67-2.49,16.46-1.88,1.88.17,4.46.4,5.13,2.81.59,2.11.35,4.34,0,6.44-.12.76-.31,1.62-.98,2.16-.55.43-1.67.81-2.3.85h-.13c-1.05.08-2.8.2-4.21-.4l-.1-.06c-.22-.17-.36-.41-.47-.62-.04-.07-.07-.13-.11-.19-.2-.31-.41-.6-.63-.9-.16-.21-.54-.71-.84-.71,0,0,0,0,0,0-.21,0-.54.32-.82.78-.1.17-.19.34-.28.52-.08.15-.15.3-.23.44h0c-.09.16-.18.31-.29.46-.43.58-1.07,1.04-1.88,1.36-.68.27-1.39.4-2.13.53-.99.17-2.05.33-3.15.33ZM60.09,92.61c-4.43,0-8.1.67-11.32,2.04-.5.22-1.07.48-1.44.91-.52.61-.61,1.51-.64,2.4-.05,1.54.07,2.84.36,3.99.17.67.4,1.59.89,2.07.71.71,1.61.77,2.66.85h.13c1.3.1,2.57-.07,3.75-.28.71-.12,1.35-.25,1.96-.49.65-.26,1.17-.63,1.5-1.07.09-.12.16-.24.23-.37h0c.07-.13.14-.27.21-.41.1-.19.2-.39.31-.57.26-.44.81-1.18,1.54-1.2.71-.04,1.28.68,1.56,1.06.23.31.45.62.66.95.05.07.09.15.14.24.07.13.14.26.22.33,1.21.49,2.8.38,3.75.32h.13c.53-.04,1.46-.39,1.82-.67.43-.34.56-.98.66-1.61.33-2,.55-4.12.01-6.06-.47-1.7-2.26-1.99-4.37-2.18-1.67-.15-3.24-.22-4.73-.22Z"/>
          </g>
        </g>
        <g id="Coat-2" data-name="Coat">
          <g>
            <path class="cls-1" d="M57.76,122.65c.63.23,7.27,2.58,7.27,2.58,7.11,6.01,11.11,12.21,12.84,16.2,2.08,4.79,2.35,10.07,2.48,17.59.11,6.55,4.36,64.72,4.36,74.25-.71,2.53-6.07,5.95-6.07,5.95-.31-19.02-3.14-72.79-4.92-90.2-2.29-15.34-11.89-22.26-14.46-24.02-1.08-.33-1.47-.78-1.5-2.34Z"/>
            <path class="cls-6" d="M57.76,122.65c.63.23,7.27,2.58,7.27,2.58,7.11,6.01,11.11,12.21,12.84,16.2,2.08,4.79,2.35,10.07,2.48,17.59.11,6.55,4.36,64.72,4.36,74.25-.71,2.53-6.07,5.95-6.07,5.95-.31-19.02-3.14-72.79-4.92-90.2-2.29-15.34-11.89-22.26-14.46-24.02-1.08-.33-1.47-.78-1.5-2.34Z"/>
            <path class="cls-15" d="M74.77,149.65c-.02-1.13-.11-2.25-.18-3.38-.09-1.12-.21-2.25-.32-3.37-.22-2.24-.52-4.48-.84-6.71l-.02-.14-.11-.09c-1.88-1.64-3.78-3.26-5.69-4.86l.43-1.74.04-.17-.12-.1c-.81-.65-1.6-1.32-2.41-1.95-.82-.64-1.62-1.29-2.45-1.91.74.73,1.49,1.44,2.24,2.15.71.68,1.44,1.33,2.16,1.99l-.54,1.76-.06.19.15.14c1.87,1.68,3.75,3.35,5.66,4.99.33,2.18.65,4.36,1.01,6.54l1.05,6.67Z"/>
          </g>
          <g>
            <path class="cls-1" d="M42.99,122.4c.03.86.04,1.68-.06,2.12,7.58,13.56,7.17,22.56,7.25,32.99.16,21.89-1.88,88.23-1.88,88.23,0,0-21.11,2.92-27.3-5.45,0,0,.41-50.27,6.1-67.59,2.38-7.24-1.83-25.25-.54-36.14.54-4.55,1.77-8.98,5.18-10.06,2.82-.88,11.24-4.11,11.24-4.11Z"/>
            <path class="cls-6" d="M42.99,122.4c.03.86.04,1.68-.06,2.12,7.58,13.56,7.17,22.56,7.25,32.99.16,21.89-1.88,88.23-1.88,88.23,0,0-21.11,2.92-27.3-5.45,0,0,.41-50.27,6.1-67.59,2.38-7.24-1.83-25.25-.54-36.14.54-4.55,1.77-8.98,5.18-10.06,2.82-.88,11.24-4.11,11.24-4.11Z"/>
            <path class="cls-15" d="M45.24,153.21c-.48-1.58-1.02-3.15-1.59-4.7-.57-1.55-1.2-3.08-1.84-4.6-.63-1.47-1.25-2.94-1.94-4.39l2.28-6.06.08-.23-.18-.14-2.8-2.2c.32-1.05.65-2.1.95-3.16.32-1.11.65-2.22.96-3.34-.43,1.08-.82,2.16-1.23,3.25-.41,1.08-.8,2.17-1.18,3.26l-.05.15.13.11,2.64,2.27-2.35,5.96-.06.14.07.15c.67,1.5,1.37,2.99,2.03,4.49.67,1.5,1.29,3.03,1.92,4.54.64,1.52,1.24,3.05,1.79,4.59.57,1.54,1.09,3.1,1.45,4.71-.18-1.65-.62-3.25-1.08-4.84Z"/>
          </g>
        </g>
        <g id="Tablet">
          <g>
            <g>
              <path class="cls-3" d="M129.24,136.16h.03s-1.25-1.16-1.25-1.16v.02c-.28-.25-.73-.34-1.33-.2l-38.5,8.91c-1.31.3-2.77,1.56-3.27,2.82l-11.24,28.68c-.26.66-.19,1.19.13,1.49h-.01s1.29,1.21,1.29,1.21v-.02c.28.25.74.35,1.34.21l38.5-8.91c1.31-.3,2.77-1.56,3.27-2.82,2.21-5.64,9.03-23.04,11.24-28.68.28-.71.18-1.25-.19-1.55Z"/>
              <path class="cls-2" d="M87.88,145.64c-.75.55-1.41,1.32-1.71,2.07l-11.24,28.67c-.24.64-.2,1.16.08,1.46l-1.21-1.12h.01c-.32-.32-.39-.84-.13-1.5l11.25-28.68c.27-.71.88-1.41,1.58-1.96l1.38,1.07Z"/>
              <path class="cls-28" d="M74.93,176.39l11.24-28.68c.49-1.25,1.95-2.51,3.27-2.82l38.5-8.91c1.31-.3,1.98.47,1.49,1.72-2.21,5.64-9.03,23.04-11.24,28.68-.49,1.25-1.95,2.51-3.27,2.82l-38.5,8.91c-1.31.3-1.98-.47-1.49-1.72Z"/>
            </g>
            <path class="cls-1" d="M85.95,153.81l2.1-5.37c.09-.23.37-.47.61-.53l2.65-.61c.25-.06.37.09.28.32-.41,1.05-1.69,4.31-2.1,5.37-.09.23-.37.47-.61.53l-2.65.61c-.25.06-.37-.09-.28-.32Z"/>
            <path class="cls-2" d="M88.13,149.75c.22-.57.92-1.15,1.56-1.3.63-.15.97.2.74.77-.23.57-.92,1.15-1.56,1.3-.63.15-.97-.2-.74-.77Z"/>
            <path class="cls-2" d="M87.1,152.46c.22-.57.92-1.15,1.56-1.3.63-.15.97.2.74.77-.23.57-.92,1.15-1.56,1.3-.63.15-.97-.2-.74-.77Z"/>
          </g>
          <g>
            <path class="cls-22" d="M125.33,155.04c1.47-1.64,1.37-1.89.78-2.87-.59-.98-1.97-2.64-4.3-2.83-1.57-.12-3.14-.33-3.99,0-.85.33-.35,2.1,1.63,2.78,3.13,1.07,3.01,1.94,3.01,1.94,0,0-2.88-.98-4.06-1.18-1.18-.2-3.4.13-4.78.2-1.38.07-1.83,1.78.39,2.63,0,0-1.74.09-2.52.13-1.76.09-2.46.95-1.21,2.17.3.29.71.63,1.51.76,0,0-1.85-.2-1.95.41-.3,1.75.79,2.34,4.4,3.83,3.45,1.42,3.97,3.42,3.12,4.66,0,0,1.53-.68,2.9-1.42,1.01-.54,1.88-1.18,1.62-2.69,0,0,2.03.26,2.29-.98.26-1.24-.2-2.75-.2-2.75,0,0,1.26-.46,1.35-1.96.09-1.51-.5-2.29-.5-2.29l.5-.52Z"/>
            <path class="cls-23" d="M114.03,155.71c.76-.03,1.48-.12,2.28,0,.81.16,1.46.57,2.1.93,1.28.76,2.54,1.56,3.69,2.53-1.42-.52-2.73-1.22-4.02-1.95-.64-.37-1.27-.79-1.9-1.01-.66-.18-1.44-.28-2.15-.5Z"/>
            <path class="cls-23" d="M111.8,158.76c.8-.15,1.66-.07,2.44.19.79.24,1.52.61,2.24.98,1.41.78,2.76,1.66,3.99,2.73-1.5-.62-2.9-1.39-4.31-2.15-1.41-.75-2.75-1.55-4.37-1.76Z"/>
          </g>
        </g>
        <g id="Arm-5" data-name="Arm">
          <g>
            <path class="cls-23" d="M58.8,149.79c2.91-2.17,4.38-3.01,5.73-3.39,1.36-.38,6.12-2.36,7.94-2.82,1.16-.29,1.63,1.55.15,2.82-1.14.98-4.09,2.25-5.38,2.96-1.3.71-3.84,3.8-3.84,3.8l-4.61-3.37Z"/>
            <path class="cls-22" d="M17.65,137.44c2.89-6.15,5.59-6.51,12.57-9.36,3.41,4.58,1.24,20.74,1.24,20.74l-3.52,17.27s17.4-4.68,19.37-5.94c1.97-1.26,7.25-6.94,9.02-8.64,2.41-2.31,3.61-2,4.83-1.82,4.01.6,4.89.94,5.74,1.48.85.54.78,1.56.78,1.56,1.07.13,2.66.1,2.87,1.85.14,1.16.06,1.4.06,1.4,0,0,.38.04.69.4.89,1.03-.63,4.58-1.6,5.45-.68.61-1.65.68-2.92.51-1.08-.15-.58-1.25-.58-1.25l-1.51.09c-3.26,2.32-3.43,6.91-7.75,7.93-.91.21-2.78.19-5.27,1.02-9.29,3.12-24.52,12.58-32.8,13.29-8.08.69-7.85-3.61-7.98-8.56-.11-4.42,3.85-31.29,6.73-37.43Z"/>
            <path class="cls-23" d="M28.29,164.39l-.34,1.69c-3.68.95-7.65,3.6-8.54,5.61.69-3.19,2.41-5.57,8.88-7.3Z"/>
            <g>
              <path class="cls-23" d="M67.7,152.73l-4.77-.96,4.67.3c.07.22.11.44.1.66Z"/>
              <path class="cls-23" d="M70.63,155.98l-5.49-.71,5.49.08c.02.2.02.41,0,.64Z"/>
              <path class="cls-23" d="M69.91,158.4c-.17.28-.44.5-.74.64-.3.15-.61.25-.94.32l.07-.05c-.15.29-.3.57-.46.85l-.11-.15c.32-.06.63.03.87.21.24.18.39.45.48.72-.14-.25-.34-.46-.56-.6-.23-.13-.51-.18-.74-.14l-.21.04.1-.19c.15-.29.3-.57.46-.85l.03-.04h.05c.31-.06.62-.15.91-.26.29-.12.58-.26.8-.51Z"/>
              <path class="cls-23" d="M68.45,159.1c-.55.11-1.99.14-1.99.14,0,0-.04.39-.68,1.05-.34.35-1.06.89-1.06.89l1.51-.09s.37-.67,1.73-.93l.49-1.06Z"/>
            </g>
          </g>
          <g>
            <path class="cls-1" d="M30.73,126.97c-8.27,2.95-10.46,3.81-12.99,8.95-2.53,5.14-3.88,14.57-5.06,19.73-1.18,5.16-2.62,19.84-2.62,22.2s1.35,6.08,5.82,6.25c4.47.17,10.55-2.03,17.72-5.15,7.17-3.12,10.63-4.84,10.63-4.84,0,0-1.88-9.76.62-13.43l-16.06,4.43,3.54-17.32s2.49-15.59-1.6-20.82Z"/>
            <path class="cls-18" d="M30.73,126.97c-8.27,2.95-10.46,3.81-12.99,8.95-2.53,5.14-3.88,14.57-5.06,19.73-1.18,5.16-2.62,19.84-2.62,22.2s1.35,6.08,5.82,6.25c4.47.17,10.55-2.03,17.72-5.15,7.17-3.12,10.63-4.84,10.63-4.84,0,0-1.88-9.76.62-13.43l-16.06,4.43,3.54-17.32s2.49-15.59-1.6-20.82Z"/>
            <path class="cls-15" d="M28.79,165.11c-4.22,1.18-8.52,3.98-11.39,8.11.51-4.31,4.32-8.32,11.82-10.2l-.43,2.09Z"/>
          </g>
        </g>
      </g>
    </g>
  </g>
  <g id="Layer_11" data-name="Layer 11">
    <g>
      <path class="cls-3" d="M261.72,131.49c.16.04.31.11.45.21,2.12,1.41,3.17,2.39,4.34,4.05,1.45,2.07,1.91,4.3,2.15,6.01.12.87-.48,1.67-1.34,1.79-.86.12-1.67-.48-1.79-1.34-.21-1.45-.56-3.13-1.61-4.64-.93-1.32-1.71-2.05-3.5-3.23-.73-.48-.93-1.47-.44-2.19.39-.59,1.1-.83,1.74-.65Z"/>
      <path class="cls-3" d="M250.78,96.71c-3.93-12.39-11.8-23.54-24.77-35.07-1.88-1.67-4.75-1.5-6.42.38-1.67,1.88-1.5,4.75.38,6.42,11.69,10.4,18.73,20.26,22.14,31.02,3.49,11,6.86,26.98,6.91,27.18.52,2.46,2.93,4.03,5.39,3.51,0,0,0,0,0,0,2.45-.52,4.02-2.94,3.5-5.39-.18-.86-3.51-16.62-7.13-28.05Z"/>
      <g>
        <path class="cls-1" d="M244.56,92.63c4.54-2.31,6.69-.65,8.48,4.63,1.64,4.84,3.83,22.75,3.83,22.75,0,0-1.54-1.52-4.55-.75-3.02.77-4.22,2.95-4.22,2.95,0,0-6.89-18.59-7.52-20.89-.63-2.3-.78-6.28,3.98-8.7Z"/>
        <path class="cls-6" d="M244.56,92.63c4.54-2.31,6.69-.65,8.48,4.63,1.64,4.84,3.83,22.75,3.83,22.75,0,0-1.54-1.52-4.55-.75-3.02.77-4.22,2.95-4.22,2.95,0,0-6.89-18.59-7.52-20.89-.63-2.3-.78-6.28,3.98-8.7Z"/>
        <path class="cls-1" d="M250.32,108.61c-1.25-5.48-1.9-7.76-2.83-10.86-.27-.89-.18-1.6.26-2.1.74-.85,2.38-.95,4.29-.79.13.26.26.51.38.79-1.79-.19-3.51-.19-4.1.49-.26.3-.3.76-.11,1.39.91,3.03,1.59,5.43,2.84,10.91.98,4.32,1.75,8.87,2.04,10.68-.24.03-.48.07-.74.13-.29-1.8-1.05-6.33-2.04-10.65Z"/>
      </g>
      <g>
        <path class="cls-1" d="M220.37,56.94c4.18-.74,14.3,6.48,18.82,12.78,4.53,6.31,8.42,13.27,7.83,17.77-5.16-1.19-8.12,4.17-8.12,4.17-2.55-1.22-4.55-4.05-9.75-10.12-4.64-5.42-9.62-8.46-12.48-12.45-3.9-5.45-.09-12.06,3.7-12.15Z"/>
        <path class="cls-6" d="M220.37,56.94c4.18-.74,14.3,6.48,18.82,12.78,4.53,6.31,8.42,13.27,7.83,17.77-5.16-1.19-8.12,4.17-8.12,4.17-2.55-1.22-4.55-4.05-9.75-10.12-4.64-5.42-9.62-8.46-12.48-12.45-3.9-5.45-.09-12.06,3.7-12.15Z"/>
        <path class="cls-1" d="M227.64,59.4c.28.17.55.33.84.51-1.86.59-3,1.31-3.22,2.07-.13.46.1.97.69,1.53.79.76,1.54,1.37,2.33,2.02,1.54,1.26,3.13,2.56,5.25,5.1,2.37,2.83,3.66,4.87,4.52,6.23.31.49.57.9.81,1.25,2.3,3.25,3.01,4.25,6.76,2.52.1.23.19.46.28.69-.71.32-1.36.58-1.91.73-2.61.67-3.7-.61-5.74-3.5-.25-.36-.52-.78-.83-1.28-.9-1.42-2.12-3.36-4.46-6.15-2.08-2.48-3.64-3.76-5.15-5-.8-.66-1.56-1.28-2.38-2.06-.8-.77-1.1-1.54-.89-2.28.3-1.05,1.59-1.83,3.11-2.38Z"/>
      </g>
      <path class="cls-1" d="M262.53,127.97c-1.55-4.62-6.55-7.1-11.17-5.55-4.62,1.55-7.1,6.55-5.55,11.17,1.55,4.62,6.55,7.1,11.17,5.55s7.1-6.55,5.55-11.17Z"/>
      <path class="cls-6" d="M262.53,127.97c-1.55-4.62-6.55-7.1-11.17-5.55-4.62,1.55-7.1,6.55-5.55,11.17,1.55,4.62,6.55,7.1,11.17,5.55s7.1-6.55,5.55-11.17Z"/>
      <path class="cls-3" d="M259.15,136.8c.32.09.62.28.84.57,1.01,1.34,1.76,3.03,2.35,5.34.64,2.49.52,4.85-.35,6.82-.35.8-1.3,1.16-2.09.81-.8-.35-1.16-1.29-.81-2.09.58-1.32.65-2.96.18-4.75-.49-1.89-1.06-3.23-1.81-4.22-.53-.7-.39-1.69.31-2.22.41-.31.92-.39,1.38-.26Z"/>
      <path class="cls-3" d="M254.22,136.94c.6.17,1.08.69,1.15,1.35l.04.38c.21,1.89.35,3.14.23,5.15-.15,2.6-.99,4.97-2.29,6.48-.57.66-1.57.73-2.23.16-.66-.57-.73-1.57-.16-2.23.32-.37,1.37-1.78,1.53-4.59.1-1.74-.01-2.76-.22-4.61l-.04-.38c-.1-.87.53-1.65,1.4-1.75.21-.02.41,0,.6.05Z"/>
      <path class="cls-3" d="M246.87,132.37c.31,0,.62.08.9.26.73.48.94,1.46.46,2.19-.59.9-1.21,2.43.16,5.28.38.79.04,1.73-.74,2.11-.79.38-1.73.04-2.11-.74-1.52-3.18-1.51-6,.04-8.38.3-.45.79-.71,1.29-.72Z"/>
    </g>
  </g>
  <g id="Speech_Bubbles" data-name="Speech Bubbles">
    <g id="Speech_Bubble" data-name="Speech Bubble">
      <g id="Speech_Bubble-2" data-name="Speech Bubble">
        <path class="cls-24" d="M352.67,52.4c.01,5.94-2.29,11.35-6.05,15.39l-1.86,1.78c-3.92,3.35-9,5.39-14.55,5.4-12.42.03-22.54-10.05-22.57-22.47-.01-5.55,2-10.64,5.33-14.57l1.77-1.87c4.02-3.78,9.42-6.11,15.36-6.12,12.42-.03,22.54,10.05,22.57,22.46Z"/>
        <path class="cls-3" d="M330.1,28.02c-13.47.03-24.4,11.01-24.37,24.48.03,12.08,8.87,22.12,20.41,24.03l2.76,7.07c.47,1.21,2.18,1.2,2.65,0l2.73-7.08c11.53-1.97,20.33-12.04,20.3-24.12-.03-13.47-11.01-24.4-24.48-24.37ZM352.67,52.4c.01,5.94-2.29,11.35-6.05,15.39l-1.86,1.78c-3.92,3.35-9,5.39-14.55,5.4-12.42.03-22.54-10.05-22.57-22.47-.01-5.55,2-10.64,5.33-14.57l1.77-1.87c4.02-3.78,9.42-6.11,15.36-6.12,12.42-.03,22.54,10.05,22.57,22.46Z"/>
        <path class="cls-14" d="M352.67,52.4c.01,5.94-2.29,11.35-6.05,15.39l-1.86,1.78c-3.92,3.35-9,5.39-14.55,5.4-12.42.03-22.54-10.05-22.57-22.47-.01-5.55,2-10.64,5.33-14.57l1.77-1.87c4.02-3.78,9.42-6.11,15.36-6.12,12.42-.03,22.54,10.05,22.57,22.46Z"/>
      </g>
      <path class="cls-1" d="M343.43,61.86c.1-.14.1-.33-.01-.47l-1.86-2.36c-.42-.53-.5-1.25-.23-1.91.01,0,.01-.02.01-.03h0c.27-.65.84-1.11,1.51-1.18l2.98-.33c.17-.02.31-.15.34-.32.16-.87.24-1.81.24-2.77,0-.92-.07-1.85-.23-2.78-.03-.17-.16-.3-.34-.32l-2.98-.34c-.66-.08-1.24-.53-1.5-1.17,0-.02-.01-.04-.02-.06-.27-.65-.19-1.38.24-1.9l1.87-2.34c.1-.13.11-.33.01-.47-1.06-1.53-2.38-2.86-3.91-3.93-.14-.1-.32-.09-.46,0l-2.35,1.86c-.52.41-1.26.5-1.92.23-.01,0-.02-.01-.03-.01-.66-.28-1.11-.86-1.18-1.52l-.33-2.98c-.02-.17-.15-.31-.32-.34-1.77-.32-3.78-.32-5.55-.01-.17.03-.3.16-.32.34l-.35,2.98c-.07.66-.53,1.24-1.18,1.51-.01,0-.02,0-.04.02-.66.26-1.4.17-1.91-.25l-2.34-1.86c-.14-.11-.33-.11-.47-.02-1.53,1.06-2.85,2.38-3.93,3.91-.1.14-.1.33.01.47l1.86,2.35c.42.52.5,1.25.22,1.9,0,.02-.01.04-.02.05-.28.66-.84,1.09-1.5,1.16l-3,.34c-.16.02-.31.15-.33.32-.16.88-.24,1.81-.25,2.77,0,.95.08,1.88.23,2.76.03.18.17.3.34.32l2.99.36c.66.08,1.23.53,1.51,1.19,0,.01,0,.02,0,.03.28.67.19,1.38-.23,1.9l-1.86,2.35c-.11.14-.12.32-.02.47,1.07,1.54,2.39,2.86,3.92,3.93.14.1.33.09.46-.02l2.35-1.86c.52-.41,1.26-.5,1.91-.22.01,0,.03,0,.04.01.65.27,1.1.85,1.17,1.52l.33,2.98c.02.17.15.31.32.34.88.16,1.81.24,2.77.25.95,0,1.89-.08,2.78-.24.17-.03.29-.17.32-.34l.35-2.98c.07-.66.52-1.24,1.17-1.51.02,0,.03,0,.04-.01.66-.27,1.39-.19,1.92.23l2.34,1.87c.13.11.33.11.47.01,1.54-1.07,2.85-2.38,3.93-3.91ZM330.14,60.67c-4.54-.01-8.22-3.71-8.21-8.24,0-4.54,3.7-8.23,8.24-8.22,4.53.01,8.21,3.72,8.2,8.25,0,4.54-3.71,8.21-8.23,8.2Z"/>
    </g>
    <g id="Speech_Bubble-3" data-name="Speech Bubble">
      <g id="Speech_Bubble-4" data-name="Speech Bubble">
        <path class="cls-24" d="M96.67,52.4c.01,5.94-2.29,11.35-6.05,15.39l-1.86,1.78c-3.92,3.35-9,5.39-14.55,5.4-12.42.03-22.54-10.05-22.57-22.47-.01-5.55,2-10.64,5.33-14.57l1.77-1.87c4.02-3.78,9.42-6.11,15.36-6.12,12.42-.03,22.54,10.05,22.57,22.46Z"/>
        <path class="cls-3" d="M74.1,28.02c-13.47.03-24.4,11.01-24.37,24.48.03,12.08,8.87,22.12,20.41,24.03l2.76,7.07c.47,1.21,2.18,1.2,2.65,0l2.73-7.08c11.53-1.97,20.33-12.04,20.3-24.12-.03-13.47-11.01-24.4-24.48-24.37ZM96.67,52.4c.01,5.94-2.29,11.35-6.05,15.39l-1.86,1.78c-3.92,3.35-9,5.39-14.55,5.4-12.42.03-22.54-10.05-22.57-22.47-.01-5.55,2-10.64,5.33-14.57l1.78-1.87c4.02-3.78,9.42-6.11,15.36-6.12,12.42-.03,22.54,10.05,22.57,22.46Z"/>
        <path class="cls-14" d="M96.67,52.4c.01,5.94-2.29,11.35-6.05,15.39l-1.86,1.78c-3.92,3.35-9,5.39-14.55,5.4-12.42.03-22.54-10.05-22.57-22.47-.01-5.55,2-10.64,5.33-14.57l1.78-1.87c4.02-3.78,9.42-6.11,15.36-6.12,12.42-.03,22.54,10.05,22.57,22.46Z"/>
      </g>
      <g id="Check">
        <path class="cls-1" d="M70.02,66.67c-1.02,0-2-.42-2.71-1.17l-8.41-8.98c-1.4-1.49-1.32-3.84.17-5.24,1.5-1.4,3.84-1.32,5.24.17l5.46,5.83,12.92-16.36c1.27-1.61,3.6-1.88,5.21-.61,1.61,1.27,1.88,3.6.61,5.21l-15.59,19.75c-.67.85-1.67,1.36-2.75,1.41-.05,0-.11,0-.16,0Z"/>
      </g>
    </g>
  </g>
</svg>