<?xml version="1.0" encoding="UTF-8"?>
<svg id="Layer_2" data-name="Layer 2" xmlns="http://www.w3.org/2000/svg" xmlns:xlink="http://www.w3.org/1999/xlink" viewBox="0 0 91.37 91.37">
  <defs>
    <style>
      .cls-1 {
        fill: url(#linear-gradient);
        stroke-width: 0px;
      }
    </style>
    <linearGradient id="linear-gradient" x1="26.3" y1="81.72" x2="65.06" y2="9.68" gradientUnits="userSpaceOnUse">
      <stop offset="0" stop-color="#3c9aef"/>
      <stop offset=".61" stop-color="#c44dce"/>
      <stop offset="1" stop-color="#e54871"/>
    </linearGradient>
  </defs>
  <g id="OBJECTS">
    <path class="cls-1" d="M45.69,91.37c25.19,0,45.69-20.5,45.69-45.69S70.88,0,45.69,0,0,20.49,0,45.69s20.5,45.69,45.69,45.69ZM32.73,32.86c2.31,0,4.19,1.88,4.19,4.19s-1.88,4.19-4.19,4.19-4.19-1.88-4.19-4.19,1.88-4.19,4.19-4.19ZM30.32,14.94v13.43c-3.8,1.06-6.61,4.55-6.61,8.68,0,4.97,4.05,9.02,9.02,9.02s9.02-4.05,9.02-9.02c0-4.14-2.8-7.62-6.61-8.68v-15.43c3.33-1.07,6.86-1.67,10.54-1.67.16,0,.32.02.48.02v35.83h13.1c1.06,3.8,4.55,6.61,8.68,6.61,4.97,0,9.02-4.05,9.02-9.02s-4.05-9.02-9.02-9.02c-4.14,0-7.63,2.8-8.69,6.61h-8.27V11.72c16.46,2.57,29.11,16.8,29.11,33.96,0,4.17-.78,8.15-2.14,11.84h-38.14c-1.06-3.8-4.55-6.61-8.68-6.61-4.98,0-9.02,4.05-9.02,9.02s4.05,9.02,9.02,9.02c4.14,0,7.62-2.8,8.68-6.61h35.95c-5.88,10.57-17.16,17.74-30.08,17.74-18.98,0-34.42-15.44-34.42-34.42,0-13.45,7.77-25.09,19.05-30.75ZM63.76,44.71c0-2.31,1.88-4.19,4.19-4.19s4.19,1.88,4.19,4.19-1.88,4.19-4.19,4.19-4.19-1.88-4.19-4.19ZM35.33,59.95c0,2.31-1.88,4.19-4.19,4.19s-4.19-1.88-4.19-4.19,1.88-4.19,4.19-4.19,4.19,1.88,4.19,4.19Z"/>
  </g>
</svg>