<?xml version="1.0" encoding="UTF-8"?>
<svg id="Layer_2" data-name="Layer 2" xmlns="http://www.w3.org/2000/svg" xmlns:xlink="http://www.w3.org/1999/xlink" viewBox="0 0 122.31 104.25">
  <defs>
    <style>
      .cls-1 {
        fill: url(#linear-gradient);
      }

      .cls-1, .cls-2 {
        stroke-width: 0px;
      }

      .cls-2 {
        fill: url(#linear-gradient-2);
      }
    </style>
    <linearGradient id="linear-gradient" x1="29.67" y1="52.12" x2="122.31" y2="52.12" gradientUnits="userSpaceOnUse">
      <stop offset="0" stop-color="#edd12b"/>
      <stop offset="1" stop-color="#ed3550"/>
    </linearGradient>
    <linearGradient id="linear-gradient-2" x1="75.89" y1="6.97" x2="22.54" y2="94.41" gradientUnits="userSpaceOnUse">
      <stop offset="0" stop-color="#14d0ef"/>
      <stop offset="1" stop-color="#9d15ed"/>
    </linearGradient>
  </defs>
  <g id="OBJECTS">
    <g>
      <path class="cls-1" d="M113.91,43.73c-3.83,0-7.06,2.58-8.07,6.08h-33.58l-9.35-9.35h22.54c1.01,3.51,4.24,6.08,8.07,6.08,4.63,0,8.4-3.77,8.4-8.4s-3.77-8.4-8.4-8.4c-3.83,0-7.06,2.58-8.07,6.08h-27.17l-6.16-6.16-22.45,22.45,22.45,22.45,6.16-6.16h27.17c1.01,3.51,4.24,6.08,8.07,6.08,4.63,0,8.4-3.77,8.4-8.4s-3.77-8.4-8.4-8.4c-3.83,0-7.06,2.58-8.07,6.08h-22.54l9.34-9.34h33.58c1.01,3.51,4.24,6.08,8.07,6.08,4.63,0,8.4-3.77,8.4-8.4s-3.77-8.4-8.4-8.4ZM93.52,34.38c2.08,0,3.77,1.69,3.77,3.77s-1.69,3.77-3.77,3.77-3.77-1.69-3.77-3.77,1.69-3.77,3.77-3.77ZM93.52,62.33c2.08,0,3.77,1.69,3.77,3.77s-1.69,3.77-3.77,3.77-3.77-1.69-3.77-3.77,1.69-3.77,3.77-3.77ZM52.12,68.03l-15.9-15.9,15.9-15.9,15.9,15.9-15.9,15.9ZM113.91,55.89c-2.08,0-3.77-1.69-3.77-3.77s1.69-3.77,3.77-3.77,3.77,1.69,3.77,3.77-1.69,3.77-3.77,3.77Z"/>
      <polygon class="cls-2" points="84.85 71.53 69.56 71.53 52.12 88.96 15.28 52.12 52.12 15.28 69.56 32.72 84.85 32.72 52.12 0 0 52.12 52.12 104.25 84.85 71.53"/>
    </g>
  </g>
</svg>