<?xml version="1.0" encoding="UTF-8"?>
<svg xmlns="http://www.w3.org/2000/svg" xmlns:xlink="http://www.w3.org/1999/xlink" viewBox="0 0 487.09 469.26">
  <defs>
    <style>
      .cls-1 {
        fill: url(#linear-gradient-38);
      }

      .cls-1, .cls-2, .cls-3, .cls-4, .cls-5, .cls-6, .cls-7, .cls-8, .cls-9, .cls-10, .cls-11, .cls-12, .cls-13, .cls-14, .cls-15, .cls-16, .cls-17, .cls-18, .cls-19, .cls-20, .cls-21, .cls-22, .cls-23, .cls-24, .cls-25, .cls-26, .cls-27, .cls-28, .cls-29, .cls-30, .cls-31, .cls-32, .cls-33, .cls-34, .cls-35, .cls-36, .cls-37, .cls-38, .cls-39, .cls-40, .cls-41, .cls-42 {
        stroke-width: 0px;
      }

      .cls-2 {
        fill: url(#linear-gradient-12);
      }

      .cls-2, .cls-12, .cls-30 {
        mix-blend-mode: overlay;
      }

      .cls-3 {
        fill: url(#linear-gradient-19);
      }

      .cls-4 {
        fill: url(#linear-gradient-33);
      }

      .cls-5 {
        fill: url(#linear-gradient);
      }

      .cls-6 {
        fill: url(#linear-gradient-21);
      }

      .cls-43 {
        isolation: isolate;
      }

      .cls-7 {
        fill: url(#linear-gradient-15);
      }

      .cls-8 {
        fill: url(#linear-gradient-11);
      }

      .cls-9 {
        fill: url(#linear-gradient-5);
      }

      .cls-10 {
        fill: url(#linear-gradient-31);
      }

      .cls-11 {
        fill: url(#linear-gradient-34);
      }

      .cls-12 {
        fill: url(#linear-gradient-6);
      }

      .cls-44 {
        opacity: .54;
      }

      .cls-13 {
        fill: url(#linear-gradient-13);
      }

      .cls-14 {
        fill: url(#linear-gradient-23);
      }

      .cls-15 {
        fill: url(#linear-gradient-25);
      }

      .cls-16 {
        fill: url(#linear-gradient-16);
      }

      .cls-17 {
        fill: url(#linear-gradient-22);
      }

      .cls-18 {
        fill: url(#linear-gradient-35);
      }

      .cls-19 {
        fill: url(#linear-gradient-32);
      }

      .cls-20 {
        fill: url(#linear-gradient-20);
      }

      .cls-21 {
        fill: url(#linear-gradient-14);
      }

      .cls-22 {
        fill: url(#linear-gradient-2);
      }

      .cls-23 {
        fill: url(#linear-gradient-7);
      }

      .cls-24 {
        fill: url(#linear-gradient-39);
      }

      .cls-25 {
        fill: url(#linear-gradient-3);
      }

      .cls-26 {
        fill: url(#linear-gradient-9);
      }

      .cls-27 {
        fill: #657fe6;
      }

      .cls-28 {
        fill: url(#linear-gradient-27);
      }

      .cls-29 {
        fill: url(#linear-gradient-36);
      }

      .cls-30 {
        fill: url(#linear-gradient-17);
      }

      .cls-31 {
        fill: url(#linear-gradient-8);
      }

      .cls-45 {
        stroke: #000;
        stroke-miterlimit: 10;
        stroke-width: 2px;
      }

      .cls-45, .cls-35 {
        fill: #4c68d7;
      }

      .cls-32 {
        fill: url(#linear-gradient-24);
      }

      .cls-33 {
        fill: url(#linear-gradient-26);
      }

      .cls-34 {
        fill: url(#linear-gradient-18);
      }

      .cls-36 {
        fill: url(#linear-gradient-30);
      }

      .cls-37 {
        fill: #fff;
      }

      .cls-38 {
        fill: url(#linear-gradient-29);
      }

      .cls-39 {
        fill: url(#linear-gradient-28);
      }

      .cls-40 {
        fill: url(#linear-gradient-10);
      }

      .cls-41 {
        fill: url(#linear-gradient-4);
      }

      .cls-42 {
        fill: url(#linear-gradient-37);
      }
    </style>
    <linearGradient id="linear-gradient" x1="181.13" y1="249.67" x2="192.08" y2="285.43" gradientUnits="userSpaceOnUse">
      <stop offset="0" stop-color="#fff"/>
      <stop offset=".1" stop-color="rgba(252, 251, 253, .94)" stop-opacity=".94"/>
      <stop offset=".29" stop-color="rgba(247, 243, 250, .77)" stop-opacity=".77"/>
      <stop offset=".55" stop-color="rgba(239, 230, 246, .51)" stop-opacity=".51"/>
      <stop offset=".88" stop-color="rgba(227, 213, 239, .14)" stop-opacity=".14"/>
      <stop offset="1" stop-color="#dfceed" stop-opacity="0"/>
    </linearGradient>
    <linearGradient id="linear-gradient-2" x1="154.51" y1="208.47" x2="190.29" y2="208.47" gradientUnits="userSpaceOnUse">
      <stop offset="0" stop-color="#b338f4"/>
      <stop offset=".48" stop-color="#0009a6"/>
      <stop offset="1" stop-color="#1a2340"/>
    </linearGradient>
    <linearGradient id="linear-gradient-3" x1="171.9" y1="254.93" x2="161.13" y2="179.91" gradientUnits="userSpaceOnUse">
      <stop offset="0" stop-color="#fff"/>
      <stop offset=".39" stop-color="#f4eff9"/>
      <stop offset="1" stop-color="#dfceed"/>
    </linearGradient>
    <linearGradient id="linear-gradient-4" x1="187.79" y1="252.59" x2="177.02" y2="177.56" xlink:href="#linear-gradient-3"/>
    <linearGradient id="linear-gradient-5" x1="152.83" y1="133.51" x2="182.47" y2="169.77" xlink:href="#linear-gradient-3"/>
    <linearGradient id="linear-gradient-6" x1="159.77" y1="189.58" x2="170.85" y2="126.83" gradientUnits="userSpaceOnUse">
      <stop offset="0" stop-color="#ccc4d3"/>
      <stop offset=".11" stop-color="rgba(200, 193, 208, .93)" stop-opacity=".93"/>
      <stop offset=".31" stop-color="rgba(189, 185, 203, .76)" stop-opacity=".76"/>
      <stop offset=".59" stop-color="rgba(172, 172, 194, .47)" stop-opacity=".47"/>
      <stop offset=".93" stop-color="rgba(150, 155, 182, .09)" stop-opacity=".09"/>
      <stop offset="1" stop-color="#9198b4" stop-opacity="0"/>
    </linearGradient>
    <linearGradient id="linear-gradient-7" x1="-188.83" y1="249.67" x2="-177.88" y2="285.43" gradientTransform="translate(110.56) rotate(-180) scale(1 -1)" xlink:href="#linear-gradient"/>
    <linearGradient id="linear-gradient-8" x1="-215.45" x2="-179.67" gradientTransform="translate(110.56) rotate(-180) scale(1 -1)" xlink:href="#linear-gradient-2"/>
    <linearGradient id="linear-gradient-9" x1="-198.06" y1="254.93" x2="-208.83" y2="179.91" gradientTransform="translate(110.56) rotate(-180) scale(1 -1)" xlink:href="#linear-gradient-3"/>
    <linearGradient id="linear-gradient-10" x1="-182.17" y1="252.59" x2="-192.94" y2="177.56" gradientTransform="translate(110.56) rotate(-180) scale(1 -1)" xlink:href="#linear-gradient-3"/>
    <linearGradient id="linear-gradient-11" x1="-217.13" y1="133.51" x2="-187.49" y2="169.77" gradientTransform="translate(110.56) rotate(-180) scale(1 -1)" xlink:href="#linear-gradient-3"/>
    <linearGradient id="linear-gradient-12" x1="-210.19" y1="189.58" x2="-199.11" y2="126.83" gradientTransform="translate(110.56) rotate(-180) scale(1 -1)" xlink:href="#linear-gradient-6"/>
    <linearGradient id="linear-gradient-13" x1="241.19" y1="262.05" x2="241.19" y2="315.08" xlink:href="#linear-gradient"/>
    <linearGradient id="linear-gradient-14" x1="241.19" y1="274.37" x2="241.19" y2="241.65" xlink:href="#linear-gradient-3"/>
    <linearGradient id="linear-gradient-15" x1="241.19" y1="265.94" x2="241.19" y2="219.41" xlink:href="#linear-gradient-3"/>
    <linearGradient id="linear-gradient-16" x1="241.19" y1="100.71" x2="241.19" y2="228" xlink:href="#linear-gradient-3"/>
    <linearGradient id="linear-gradient-17" x1="241.19" y1="246.94" x2="241.19" y2="106.31" xlink:href="#linear-gradient-6"/>
    <linearGradient id="linear-gradient-18" x1="241.18" y1="94.78" x2="241.18" y2="148.43" xlink:href="#linear-gradient-2"/>
    <linearGradient id="linear-gradient-19" x1="241.18" y1="156.4" x2="241.18" y2="136.24" xlink:href="#linear-gradient-2"/>
    <linearGradient id="linear-gradient-20" x1="241.19" y1="57.79" x2="241.19" y2="125.38" xlink:href="#linear-gradient-2"/>
    <linearGradient id="linear-gradient-21" x1="241.19" y1="40.2" x2="241.19" y2="107.8" xlink:href="#linear-gradient-2"/>
    <linearGradient id="linear-gradient-22" x1="241.19" y1="31.41" x2="241.19" y2="99.01" gradientUnits="userSpaceOnUse">
      <stop offset="0" stop-color="#8c9eff"/>
      <stop offset=".2" stop-color="#8898f0"/>
      <stop offset=".56" stop-color="#7e8bcc"/>
      <stop offset="1" stop-color="#707899"/>
    </linearGradient>
    <linearGradient id="linear-gradient-23" x1="241.19" y1="22.98" x2="241.19" y2="1.78" xlink:href="#linear-gradient-3"/>
    <linearGradient id="linear-gradient-24" x1="241.19" y1="92.33" x2="241.19" y2="29.89" xlink:href="#linear-gradient-2"/>
    <linearGradient id="linear-gradient-25" x1="241.18" y1="-.35" x2="241.18" y2="26.43" xlink:href="#linear-gradient-3"/>
    <linearGradient id="linear-gradient-26" x1="196.03" y1="9.56" x2="196.03" y2="90.74" xlink:href="#linear-gradient-2"/>
    <linearGradient id="linear-gradient-27" x1="286.35" y1="9.56" x2="286.35" y2="90.74" xlink:href="#linear-gradient-2"/>
    <linearGradient id="linear-gradient-28" x1="241.18" y1="5.81" x2="241.18" y2="36.56" xlink:href="#linear-gradient-3"/>
    <linearGradient id="linear-gradient-29" x1="35.58" y1="230.16" x2="76.49" y2="235.07" gradientTransform="translate(21.03 -13.26) rotate(-4.13)" gradientUnits="userSpaceOnUse">
      <stop offset="0" stop-color="#291003"/>
      <stop offset=".29" stop-color="#371808"/>
      <stop offset=".83" stop-color="#5b2e16"/>
      <stop offset="1" stop-color="#69371c"/>
    </linearGradient>
    <linearGradient id="linear-gradient-30" x1="23.51" y1="255.05" x2="83.66" y2="255.05" gradientTransform="translate(21.03 -13.26) rotate(-4.13)" gradientUnits="userSpaceOnUse">
      <stop offset="0" stop-color="#bf4b0c"/>
      <stop offset=".29" stop-color="#cd5718"/>
      <stop offset=".83" stop-color="#f17937"/>
      <stop offset="1" stop-color="#ff8643"/>
    </linearGradient>
    <linearGradient id="linear-gradient-31" x1="61.22" y1="255.05" x2="83.66" y2="255.05" gradientTransform="translate(21.03 -13.26) rotate(-4.13)" gradientUnits="userSpaceOnUse">
      <stop offset="0" stop-color="#ffa16e"/>
      <stop offset=".35" stop-color="#ffaa7b"/>
      <stop offset="1" stop-color="#ffc1a0"/>
      <stop offset="1" stop-color="#ffc2a1"/>
    </linearGradient>
    <linearGradient id="linear-gradient-32" x1="112.83" y1="259.93" x2="74.54" y2="282.5" gradientUnits="userSpaceOnUse">
      <stop offset="0" stop-color="#a0f"/>
      <stop offset="0" stop-color="#b338f4"/>
      <stop offset=".48" stop-color="#0009a6"/>
      <stop offset="1" stop-color="#1a2340"/>
    </linearGradient>
    <linearGradient id="linear-gradient-33" x1="184.31" y1="495.12" x2="184.31" y2="303.72" xlink:href="#linear-gradient-3"/>
    <linearGradient id="linear-gradient-34" x1="-.2" y1="323.99" x2="-1.28" y2="304.7" gradientTransform="translate(102.33 -9.71) rotate(154.04) scale(1 -1)" xlink:href="#linear-gradient-30"/>
    <linearGradient id="linear-gradient-35" x1="248.41" y1="320.56" x2="234.13" y2="287.68" gradientTransform="matrix(1,0,0,1,0,0)" xlink:href="#linear-gradient-30"/>
    <linearGradient id="linear-gradient-36" x1="-274.72" y1="247.94" x2="-221.47" y2="247.94" gradientTransform="translate(158.13 -13.26) rotate(-175.87) scale(1 -1)" xlink:href="#linear-gradient-30"/>
    <linearGradient id="linear-gradient-37" x1="-249.71" y1="247.94" x2="-221.47" y2="247.94" gradientTransform="translate(158.13 -13.26) rotate(-175.87) scale(1 -1)" xlink:href="#linear-gradient-31"/>
    <linearGradient id="linear-gradient-38" x1="362.25" y1="395.03" x2="362.25" y2="204.64" xlink:href="#linear-gradient-3"/>
    <linearGradient id="linear-gradient-39" x1="361.72" y1="268.26" x2="462.02" y2="268.26" gradientTransform="matrix(1,0,0,1,0,0)" xlink:href="#linear-gradient-29"/>
  </defs>
  <g class="cls-43">
    <g id="Layer_2" data-name="Layer 2">
      <g id="OBJECTS">
        <g>
          <g>
            <path class="cls-5" d="M168.95,244.46c-2.27,4.03-2.61,9.21-1.76,13.91.86,4.71,2.81,9.04,4.87,13.22,6.99,14.14,15.54,27.25,25.37,38.9,2.28-.77,4.08-1.4,6.36-2.17.04-18.39-1.65-36.77-5.04-54.73-.75-3.99-1.67-8.13-4-11.19-3.34-4.36-8.97-5.51-13.89-4.37-4.93,1.14-9.15,1.56-11.9,6.43Z"/>
            <g>
              <path class="cls-22" d="M154.72,164.4c-.91.33,1.28,21.57,1.49,23.69.83,8.38,1.98,16.71,3.44,24.95,1.46,8.23,3.23,16.37,5.3,24.37.94,3.63,2.83,8.47,4.46,11.65,3.42,6.65,10.65,9.34,15.97,5.14,2.55-2.01,2.96-5.31,3.82-9.05,4.65-20.35-6.96-72.54-9.05-76.55-2.67-5.13-7.58-7.61-12.3-7.85s-8.56,1.98-13.12,3.65Z"/>
              <path class="cls-25" d="M174.45,224.31c-4-21.04-7.87-42.12-11.61-63.23-3.52.66-6.8,2.13-10.48,3.32-2.65.88,1.66,24.51,2.05,27.29,1.32,9.47,2.91,18.99,5.11,28.24,2.13,8.94,3.84,18.35,7.33,26.75.91,2.2,1.98,4.36,3.49,6.06,2.56,2.88,6.81,3.95,10.28,3.41-2.09-10.6-4.15-21.21-6.17-31.83Z"/>
              <path class="cls-41" d="M171.65,194.44c3.74,20.34,7.62,40.65,11.62,60.93.72-.31,1.42-.69,2.11-1.16,2.89-2.01,5.09-5.31,6.06-9.05,5.27-20.35-7.89-72.54-10.27-76.55-3.03-5.13-8.59-7.61-13.94-7.85-.56-.03-1.11-.02-1.66,0,1.99,11.23,4.01,22.46,6.08,33.68Z"/>
            </g>
            <g>
              <path class="cls-9" d="M184.6,115.83c-19.47.42-37.81,19.33-42.5,43.81-1.51,7.9-1.11,17.82,4.23,22.13,3.2,2.58,7.26,2.33,10.99,1.61,10.3-1.97,20.27-6.83,29.02-14.15"/>
              <path class="cls-12" d="M186.33,169.23c-8.75,7.32-18.71,12.18-29.02,14.15-3.73.71-7.79.97-10.99-1.61-5.34-4.3-5.74-14.23-4.23-22.13,1.02-5.3,2.66-10.33,4.84-14.97-1.61,3.89-2.85,8.03-3.68,12.33-1.51,7.89-1.1,17.82,4.23,22.13,3.2,2.58,7.26,2.33,10.99,1.61,9.83-1.88,19.35-6.39,27.8-13.16l.06,1.66Z"/>
            </g>
          </g>
          <g>
            <path class="cls-23" d="M311.58,244.46c2.27,4.03,2.61,9.21,1.76,13.91-.86,4.71-2.81,9.04-4.87,13.22-6.99,14.14-15.54,27.25-25.37,38.9-2.28-.77-4.08-1.4-6.36-2.17-.04-18.39,1.65-36.77,5.04-54.73.75-3.99,1.67-8.13,4-11.19,3.34-4.36,8.97-5.51,13.89-4.37,4.93,1.14,9.15,1.56,11.9,6.43Z"/>
            <g>
              <path class="cls-31" d="M325.8,164.4c.91.33-1.28,21.57-1.49,23.69-.83,8.38-1.98,16.71-3.44,24.95-1.46,8.23-3.23,16.37-5.3,24.37-.94,3.63-2.83,8.47-4.46,11.65-3.42,6.65-10.65,9.34-15.97,5.14-2.55-2.01-2.96-5.31-3.82-9.05-4.65-20.35,6.96-72.54,9.05-76.55,2.67-5.13,7.58-7.61,12.3-7.85,4.72-.24,8.56,1.98,13.12,3.65Z"/>
              <path class="cls-26" d="M306.08,224.31c4-21.04,7.87-42.12,11.61-63.23,3.52.66,6.8,2.13,10.48,3.32,2.65.88-1.66,24.51-2.05,27.29-1.32,9.47-2.91,18.99-5.11,28.24-2.13,8.94-3.84,18.35-7.33,26.75-.91,2.2-1.98,4.36-3.49,6.06-2.56,2.88-6.81,3.95-10.28,3.41,2.09-10.6,4.15-21.21,6.17-31.83Z"/>
              <path class="cls-40" d="M308.87,194.44c-3.74,20.34-7.62,40.65-11.62,60.93-.72-.31-1.42-.69-2.11-1.16-2.89-2.01-5.09-5.31-6.06-9.05-5.27-20.35,7.89-72.54,10.27-76.55,3.03-5.13,8.59-7.61,13.94-7.85.56-.03,1.11-.02,1.66,0-1.99,11.23-4.01,22.46-6.08,33.68Z"/>
            </g>
            <g>
              <path class="cls-8" d="M295.93,115.83c19.47.42,37.81,19.33,42.5,43.81,1.51,7.9,1.11,17.82-4.23,22.13-3.2,2.58-7.26,2.33-10.99,1.61-10.3-1.97-20.27-6.83-29.02-14.15"/>
              <path class="cls-2" d="M294.19,169.23c8.75,7.32,18.71,12.18,29.02,14.15,3.73.71,7.79.97,10.99-1.61,5.34-4.3,5.74-14.23,4.23-22.13-1.02-5.3-2.66-10.33-4.84-14.97,1.61,3.89,2.85,8.03,3.68,12.33,1.51,7.89,1.1,17.82-4.23,22.13-3.2,2.58-7.26,2.33-10.99,1.61-9.83-1.88-19.35-6.39-27.8-13.16l-.06,1.66Z"/>
            </g>
          </g>
          <g>
            <g>
              <path class="cls-13" d="M286.37,301.19c-3.25,15.01-31.73,33.82-37.76,33.82h-14.85c-6.03,0-34.51-18.81-37.76-33.82-2.77-12.8-9.32-26.07-8.11-39.05,1.07-11.4,4.63-22.62,10.47-32.88,1.43-2.52,3.43-4.75,5.78-6.7.23-.19.47-.38.72-.57,2.76-2.16,5.99-3.95,9.39-5.38,3.54-1.51,7.27-2.63,10.85-3.38,11.44-2.39,26.79-2.04,37.86,1.51,1.72.55,3.47,1.19,5.17,1.93,3.35,1.42,6.58,3.21,9.37,5.36.24.19.48.38.72.58,2.37,1.93,4.37,4.14,5.8,6.66,5.83,10.26,9.4,21.48,10.47,32.88,1.21,12.98-5.34,26.24-8.11,39.05Z"/>
              <path class="cls-21" d="M294.03,237.21c-3.8,20.55-37.1,46.31-44.16,46.31h-17.36c-7.06,0-40.36-25.76-44.16-46.31-3.24-17.53-10.9-35.69-9.49-53.47,1.25-15.61,5.42-30.98,12.24-45.02,1.68-3.45,4.01-6.5,6.76-9.17.27-.26.55-.52.84-.79,3.23-2.96,7.01-5.4,10.98-7.37,4.13-2.06,8.5-3.6,12.69-4.63,13.38-3.28,31.33-2.8,44.27,2.06,2.02.76,4.05,1.63,6.05,2.64,3.91,1.95,7.7,4.39,10.96,7.34.28.26.56.52.84.8,2.77,2.64,5.11,5.67,6.78,9.12,6.82,14.04,10.99,29.41,12.24,45.02,1.41,17.78-6.25,35.94-9.49,53.47Z"/>
              <path class="cls-7" d="M294.03,227.31c-3.8,15.01-37.1,33.82-44.16,33.82h-17.36c-7.06,0-40.36-18.81-44.16-33.82-3.24-12.8-10.9-26.07-9.49-39.05,1.25-11.4,5.42-22.62,12.24-32.88,1.68-2.52,4.01-4.75,6.76-6.7.27-.19.55-.38.84-.58,3.23-2.16,7.01-3.95,10.98-5.38,4.13-1.51,8.5-2.63,12.69-3.38,13.38-2.39,31.33-2.04,44.27,1.51,2.02.55,4.05,1.19,6.05,1.93,3.91,1.42,7.7,3.21,10.96,5.36.28.19.56.38.84.58,2.77,1.93,5.11,4.14,6.78,6.66,6.82,10.26,10.99,21.48,12.24,32.88,1.41,12.98-6.25,26.24-9.49,39.05Z"/>
              <path class="cls-16" d="M308.39,192.26c-4.84,15.01-47.19,33.82-56.16,33.82h-22.08c-8.98,0-51.33-18.81-56.16-33.82-4.12-12.8-13.86-26.07-12.06-39.05,1.59-11.4,6.89-22.62,15.57-32.88,2.13-2.52,5.1-4.75,8.6-6.7.35-.19.7-.38,1.07-.57,4.11-2.16,8.91-3.95,13.96-5.38,5.26-1.51,10.81-2.63,16.14-3.38,17.01-2.39,39.85-2.04,56.3,1.51,2.56.55,5.15,1.19,7.69,1.93,4.98,1.42,9.79,3.21,13.94,5.36.36.19.71.38,1.07.58,3.52,1.93,6.5,4.14,8.63,6.66,8.68,10.26,13.98,21.48,15.57,32.88,1.79,12.98-7.94,26.24-12.06,39.05Z"/>
              <path class="cls-30" d="M308.39,192.26c-4.84,15.01-47.19,33.83-56.16,33.83h-22.09c-8.97,0-51.32-18.82-56.16-33.83-3.99-12.4-13.27-25.25-12.19-37.84.93,11.23,8.63,22.59,12.19,33.63,4.84,15.01,47.19,33.82,56.16,33.82h22.09c8.97,0,51.32-18.81,56.16-33.82,3.55-11.03,11.26-22.4,12.19-33.63,1.08,12.59-8.19,25.44-12.19,37.84Z"/>
              <path class="cls-34" d="M272.95,106.7c-1.16,7.37-3.02,14.72-4.05,21.92-1.99,14.02-19.46,31.59-23.16,31.59h-9.11c-3.7,0-21.16-17.57-23.16-31.59-1.03-7.22-2.9-14.59-4.06-21.96,4.17-1.2,8.57-2.08,12.8-2.68,13.49-1.9,31.59-1.62,44.64,1.19,2.03.44,4.09.94,6.1,1.53Z"/>
              <path class="cls-3" d="M265.05,105.5c-.87,5.11-2.27,10.2-3.04,15.2-1.5,9.72-14.62,21.9-17.4,21.9h-6.85c-2.78,0-15.9-12.18-17.4-21.9-.77-5-2.18-10.11-3.05-15.23,3.13-.83,6.44-1.44,9.61-1.86,10.13-1.32,23.73-1.12,33.54.83,1.53.3,3.07.65,4.58,1.06Z"/>
              <g>
                <path class="cls-27" d="M220.32,82.48c.76,6.66,1.78,13.3,2.37,19.83,1.33,14.65,12.99,33,15.46,33h6.08c2.47,0,14.13-18.35,15.46-33,.59-6.52,1.61-13.16,2.37-19.83h-41.74Z"/>
                <path class="cls-20" d="M221.41,82.48c.48,3.7.94,7.39,1.27,11.03,1.33,14.65,12.99,33,15.46,33h6.08c2.47,0,14.13-18.35,15.46-33,.33-3.65.8-7.33,1.27-11.03h-39.54Z"/>
                <path class="cls-27" d="M222.46,82.48c.08.75.15,1.5.22,2.24,1.33,14.65,12.99,33,15.46,33h6.08c2.47,0,14.13-18.35,15.46-33,.07-.74.14-1.49.22-2.24h-37.44Z"/>
                <path class="cls-6" d="M223.87,82.48c3.35,13.04,12.17,26.45,14.28,26.45h6.08c2.11,0,10.93-13.41,14.28-26.45h-34.64Z"/>
                <path class="cls-17" d="M225.21,82.48c4.49,9.65,10.77,17.66,12.58,17.66h6.78c1.82,0,8.1-8,12.58-17.66h-31.95Z"/>
              </g>
            </g>
            <g>
              <path class="cls-14" d="M286.45,60.65c-.35,1.01-.69,2-1.04,3.01-1.03,2.97-2.03,5.92-2.75,8.84-2.98,12.16-29.12,27.4-34.65,27.4h-13.63c-5.53,0-31.68-15.24-34.65-27.4-.72-2.92-1.71-5.87-2.75-8.84-.35-1.01-.69-2.02-1.05-3.03-2.27-6.58-4.33-13.21-3.65-19.77.05-.47.11-.94.17-1.41.13-1.01.29-2.03.48-3.04,1.43-7.69,4.46-15.2,8.95-22.18,1.31-2.04,3.15-3.85,5.31-5.43.21-.15.43-.31.66-.47,1.31-.9,2.74-1.72,4.24-2.47,4.42-2.21,9.51-3.74,14.33-4.63,10.5-1.94,24.59-1.65,34.75,1.22,3.08.87,6.23,2.01,9.11,3.45,1.49.74,2.92,1.55,4.24,2.46.22.15.44.31.66.47,2.17,1.56,4.01,3.37,5.32,5.4,4.49,6.97,7.52,14.49,8.95,22.18.19,1.01.35,2.02.48,3.04.06.48.12.94.17,1.42.68,6.55-1.39,13.2-3.66,19.78Z"/>
              <g>
                <path class="cls-32" d="M275.13,61.16c-.26.76-.53,1.5-.78,2.26-.77,2.23-1.52,4.43-2.06,6.63-2.24,9.12-21.84,20.55-25.99,20.55h-10.23c-4.15,0-23.76-11.43-25.99-20.55-.53-2.19-1.29-4.4-2.06-6.63-.26-.76-.52-1.52-.78-2.28-1.69-4.88-3.22-9.8-2.75-14.66,0-.06,0-.1,0-.16.04-.35.07-.71.12-1.06.1-.76.22-1.52.37-2.29,1.07-5.77,3.35-11.4,6.71-16.63.99-1.53,2.36-2.89,3.99-4.07.16-.11.32-.24.5-.35.41-.28.83-.54,1.26-.8,4.24,6.68,16.71,13.73,19.63,13.73h8.22c2.92,0,15.35-7.04,19.61-13.71.44.25.87.53,1.27.8.17.11.33.23.5.35,1.62,1.17,3,2.53,3.99,4.06,3.37,5.23,5.64,10.86,6.72,16.63.14.76.26,1.52.36,2.28.05.36.09.71.13,1.07,0,.05,0,.1,0,.15.48,4.87-1.07,9.8-2.76,14.69Z"/>
                <path class="cls-27" d="M277.89,46.47c-.31,3.66-1.49,7.35-2.76,11-.26.76-.53,1.5-.78,2.26-.77,2.23-1.52,4.43-2.06,6.63-2.24,9.12-21.84,20.55-25.99,20.55h-10.23c-4.15,0-23.76-11.43-25.99-20.55-.53-2.19-1.29-4.4-2.06-6.63-.26-.76-.52-1.52-.78-2.28-1.26-3.65-2.43-7.32-2.75-10.98,0-.06,0-.1,0-.16.04-.35.07-.71.12-1.06.1-.76.22-1.52.37-2.29,1.07-5.77,3.35-11.4,6.71-16.63.99-1.53,2.36-2.89,3.99-4.07.16-.11.32-.24.5-.35.41-.28.83-.54,1.26-.8,4.24,6.68,16.71,13.73,19.63,13.73h8.22c2.92,0,15.35-7.04,19.61-13.71.44.25.87.53,1.27.8.17.11.33.23.5.35,1.62,1.17,3,2.53,3.99,4.06,3.37,5.23,5.64,10.86,6.72,16.63.14.76.26,1.52.36,2.28.05.36.09.71.13,1.07,0,.05,0,.1,0,.15Z"/>
              </g>
              <path class="cls-15" d="M270.28,5.91c-.74,2.12-1.45,8.4-1.97,10.47-1.96,7.96-19.04,17.92-22.66,17.92h-8.92c-3.62,0-20.7-9.96-22.66-17.92-.52-2.09-1.24-8.39-1.98-10.51,4.42-2.21,55.3-1.39,58.19.04Z"/>
              <g>
                <path class="cls-33" d="M192.92,36.41c-.19,1.01-.36,2.03-.48,3.04,3.07,2.57,5.13,7.43,5.13,13,0,3.02-.6,5.83-1.65,8.17.36,1.01.7,2.02,1.05,3.03,1.66-3.08,2.65-6.97,2.65-11.2,0-7.02-2.72-13.1-6.7-16.05Z"/>
                <path class="cls-28" d="M289.94,39.45c-.14-1.01-.29-2.03-.48-3.04-3.98,2.95-6.7,9.03-6.7,16.05,0,4.24.99,8.12,2.65,11.2.35-1.01.69-2.01,1.04-3.01-1.04-2.35-1.65-5.17-1.65-8.19,0-5.58,2.07-10.44,5.14-13.01Z"/>
              </g>
              <path class="cls-39" d="M270.28,5.91c-.74,2.12-1.45,4.22-1.97,6.3-1.96,7.96-19.04,17.92-22.66,17.92h-8.92c-3.62,0-20.7-9.96-22.66-17.92-.52-2.09-1.24-4.21-1.98-6.34,4.42-2.21,9.51-3.74,14.33-4.63,10.5-1.94,24.59-1.65,34.75,1.22,3.08.87,6.23,2.01,9.11,3.45Z"/>
            </g>
          </g>
          <g>
            <polyline class="cls-35" points="229.45 39.81 232.08 39.81 232.08 42.44 229.45 42.44"/>
            <polyline class="cls-35" points="235.06 42.44 232.43 42.44 232.43 39.81 235.06 39.81"/>
            <polyline class="cls-35" points="229.45 42.72 232.08 42.72 232.08 45.35 229.45 45.35"/>
            <polyline class="cls-35" points="235.06 45.35 232.43 45.35 232.43 42.72 235.06 42.72"/>
            <polyline class="cls-35" points="229.45 45.63 232.08 45.63 232.08 48.27 229.45 48.27"/>
            <polyline class="cls-35" points="235.06 48.27 232.43 48.27 232.43 45.63 235.06 45.63"/>
            <polyline class="cls-35" points="220.51 48.55 223.14 48.55 223.14 51.18 220.51 51.18"/>
            <polyline class="cls-35" points="226.12 51.18 223.49 51.18 223.49 48.55 226.12 48.55"/>
            <polyline class="cls-35" points="229.45 48.55 232.08 48.55 232.08 51.18 229.45 51.18"/>
            <polyline class="cls-35" points="235.06 51.18 232.43 51.18 232.43 48.55 235.06 48.55"/>
            <polyline class="cls-35" points="220.51 51.46 223.14 51.46 223.14 54.09 220.51 54.09"/>
            <polyline class="cls-35" points="226.12 54.09 223.49 54.09 223.49 51.46 226.12 51.46"/>
            <polyline class="cls-35" points="229.45 51.46 232.08 51.46 232.08 54.09 229.45 54.09"/>
            <polyline class="cls-35" points="235.06 54.09 232.43 54.09 232.43 51.46 235.06 51.46"/>
            <polyline class="cls-35" points="220.51 54.37 223.14 54.37 223.14 57 220.51 57"/>
            <polyline class="cls-35" points="226.12 57 223.49 57 223.49 54.37 226.12 54.37"/>
            <polyline class="cls-35" points="229.45 54.37 232.08 54.37 232.08 57 229.45 57"/>
            <polyline class="cls-35" points="235.06 57 232.43 57 232.43 54.37 235.06 54.37"/>
            <polyline class="cls-35" points="220.51 57.28 223.14 57.28 223.14 59.91 220.51 59.91"/>
            <polyline class="cls-35" points="226.12 59.91 223.49 59.91 223.49 57.28 226.12 57.28"/>
            <polyline class="cls-35" points="229.45 57.28 232.08 57.28 232.08 59.91 229.45 59.91"/>
            <polyline class="cls-35" points="235.06 59.91 232.43 59.91 232.43 57.28 235.06 57.28"/>
            <polyline class="cls-35" points="220.51 60.19 223.14 60.19 223.14 62.82 220.51 62.82"/>
            <polyline class="cls-35" points="226.12 62.82 223.49 62.82 223.49 60.19 226.12 60.19"/>
            <polyline class="cls-35" points="229.45 60.19 232.08 60.19 232.08 62.82 229.45 62.82"/>
            <polyline class="cls-35" points="235.06 62.82 232.43 62.82 232.43 60.19 235.06 60.19"/>
            <polyline class="cls-35" points="220.51 63.1 223.14 63.1 223.14 65.73 220.51 65.73"/>
            <polyline class="cls-35" points="226.12 65.73 223.49 65.73 223.49 63.1 226.12 63.1"/>
            <polyline class="cls-35" points="229.45 63.1 232.08 63.1 232.08 65.73 229.45 65.73"/>
            <polyline class="cls-35" points="235.06 65.73 232.43 65.73 232.43 63.1 235.06 63.1"/>
            <polyline class="cls-35" points="220.51 66.01 223.14 66.01 223.14 68.64 220.51 68.64"/>
            <polyline class="cls-35" points="226.12 68.64 223.49 68.64 223.49 66.01 226.12 66.01"/>
            <polyline class="cls-35" points="229.45 66.01 232.08 66.01 232.08 68.64 229.45 68.64"/>
            <polyline class="cls-35" points="235.06 68.64 232.43 68.64 232.43 66.01 235.06 66.01"/>
            <polyline class="cls-35" points="220.51 68.92 223.14 68.92 223.14 71.55 220.51 71.55"/>
            <polyline class="cls-35" points="226.12 71.55 223.49 71.55 223.49 68.92 226.12 68.92"/>
            <polyline class="cls-35" points="229.45 68.92 232.08 68.92 232.08 71.55 229.45 71.55"/>
            <polyline class="cls-35" points="235.06 71.55 232.43 71.55 232.43 68.92 235.06 68.92"/>
            <polyline class="cls-35" points="238.37 48.55 241 48.55 241 51.18 238.37 51.18"/>
            <polyline class="cls-35" points="243.98 51.18 241.35 51.18 241.35 48.55 243.98 48.55"/>
            <polyline class="cls-35" points="238.37 51.46 241 51.46 241 54.09 238.37 54.09"/>
            <polyline class="cls-35" points="243.98 54.09 241.35 54.09 241.35 51.46 243.98 51.46"/>
            <polyline class="cls-35" points="256.25 51.46 258.88 51.46 258.88 54.09 256.25 54.09"/>
            <polyline class="cls-35" points="261.86 54.09 259.22 54.09 259.22 51.46 261.86 51.46"/>
            <polyline class="cls-35" points="238.37 54.37 241 54.37 241 57 238.37 57"/>
            <polyline class="cls-35" points="243.98 57 241.35 57 241.35 54.37 243.98 54.37"/>
            <polyline class="cls-35" points="256.25 54.37 258.88 54.37 258.88 57 256.25 57"/>
            <polyline class="cls-35" points="261.86 57 259.22 57 259.22 54.37 261.86 54.37"/>
            <polyline class="cls-35" points="238.37 57.28 241 57.28 241 59.91 238.37 59.91"/>
            <polyline class="cls-35" points="243.98 59.91 241.35 59.91 241.35 57.28 243.98 57.28"/>
            <polyline class="cls-35" points="256.25 57.28 258.88 57.28 258.88 59.91 256.25 59.91"/>
            <polyline class="cls-35" points="261.86 59.91 259.22 59.91 259.22 57.28 261.86 57.28"/>
            <polyline class="cls-35" points="238.37 60.19 241 60.19 241 62.82 238.37 62.82"/>
            <polyline class="cls-35" points="243.98 62.82 241.35 62.82 241.35 60.19 243.98 60.19"/>
            <polyline class="cls-35" points="247.31 60.19 249.94 60.19 249.94 62.82 247.31 62.82"/>
            <polyline class="cls-35" points="252.92 62.82 250.29 62.82 250.29 60.19 252.92 60.19"/>
            <polyline class="cls-35" points="256.25 60.19 258.88 60.19 258.88 62.82 256.25 62.82"/>
            <polyline class="cls-35" points="261.86 62.82 259.22 62.82 259.22 60.19 261.86 60.19"/>
            <polyline class="cls-35" points="238.37 63.1 241 63.1 241 65.73 238.37 65.73"/>
            <polyline class="cls-35" points="243.98 65.73 241.35 65.73 241.35 63.1 243.98 63.1"/>
            <polyline class="cls-35" points="247.31 63.1 249.94 63.1 249.94 65.73 247.31 65.73"/>
            <polyline class="cls-35" points="252.92 65.73 250.29 65.73 250.29 63.1 252.92 63.1"/>
            <polyline class="cls-35" points="256.25 63.1 258.88 63.1 258.88 65.73 256.25 65.73"/>
            <polyline class="cls-35" points="261.86 65.73 259.22 65.73 259.22 63.1 261.86 63.1"/>
            <polyline class="cls-35" points="238.37 66.01 241 66.01 241 68.64 238.37 68.64"/>
            <polyline class="cls-35" points="243.98 68.64 241.35 68.64 241.35 66.01 243.98 66.01"/>
            <polyline class="cls-35" points="247.31 66.01 249.94 66.01 249.94 68.64 247.31 68.64"/>
            <polyline class="cls-35" points="252.92 68.64 250.29 68.64 250.29 66.01 252.92 66.01"/>
            <polyline class="cls-35" points="256.25 66.01 258.88 66.01 258.88 68.64 256.25 68.64"/>
            <polyline class="cls-35" points="261.86 68.64 259.22 68.64 259.22 66.01 261.86 66.01"/>
            <polyline class="cls-35" points="238.37 68.92 241 68.92 241 71.55 238.37 71.55"/>
            <polyline class="cls-35" points="243.98 71.55 241.35 71.55 241.35 68.92 243.98 68.92"/>
            <polyline class="cls-35" points="247.31 68.92 249.94 68.92 249.94 71.55 247.31 71.55"/>
            <polyline class="cls-35" points="252.92 71.55 250.29 71.55 250.29 68.92 252.92 68.92"/>
            <polyline class="cls-35" points="256.25 68.92 258.88 68.92 258.88 71.55 256.25 71.55"/>
            <polyline class="cls-35" points="261.86 71.55 259.22 71.55 259.22 68.92 261.86 68.92"/>
          </g>
        </g>
        <g>
          <polygon class="cls-37" points="199.38 411.87 137.08 401.08 177.25 324.66 239.55 335.45 199.38 411.87"/>
          <g>
            <path class="cls-38" d="M71.89,253.91c-2.14-4.84-3.43-9.2-5.56-14.04-3.04-6.89-7.49-6.27-11.38-12.79-3.06-5.13-5.72-9.96-4.24-19.44,1.06-6.81-4.23-14.41,3.36-21.14,7.42-6.58,11.07-4.55,20.86-6.56,9.2-1.89,11.08-4.76,25.22-5.59,11.97-.7,14.28,11.09,11.56,18.77,6.18,20.01,1.96,44.07-9.02,62.56-10.12.47-20.7-2.5-30.8-1.77Z"/>
            <g>
              <path class="cls-36" d="M111.71,193.12l9.23,15.48-.77,6.69,1.73,6.61.55,29.47c.04,2.03-1.57,3.81-3.79,4.18l-9.69,1.63c-1.4.24-2.41,1.38-2.35,2.67l.94,19.15-41.63,3.01,5.96-28.08,21.96-2.91,7.21-17.28s-.45.29-.45.29c-2.73,1.76-4.75-1.17-5.76-3.1-1.57-2.97-3.69-6.69-3.21-10.06.47-3.37,5.71-5.19,8.09-2.28.37.46.68.97.95,1.48.21.41,1.05,1.68.95,2.11l3.17-13.26-7.31-13.6,14.23-2.18Z"/>
              <path class="cls-36" d="M111.71,193.12l9.23,15.48-.77,6.69,1.73,6.61.55,29.47c.04,2.03-1.57,3.81-3.79,4.18l-9.69,1.63c-1.4.24-2.41,1.38-2.35,2.67l.94,19.15-41.63,3.01,5.96-28.08,18.25-2.42c2.28-.3,4.21-1.71,5.03-3.67l5.88-14.1s-.45.29-.45.29c-2.73,1.76-4.75-1.17-5.76-3.1-1.57-2.97-3.69-6.69-3.21-10.06.47-3.37,5.71-5.19,8.09-2.28.37.46.68.97.95,1.48.21.41,1.05,1.68.95,2.11l3.17-13.26-7.31-13.6,14.23-2.18Z"/>
              <g class="cls-44">
                <path class="cls-10" d="M120.17,215.29l1.73,6.61.54,29.47c.04,2.04-1.57,3.81-3.79,4.18l-9.69,1.63c-1.4.24-2.41,1.38-2.35,2.66l.95,19.15-4.01.29-.94-19.15c-.07-1.28.94-2.43,2.35-2.66l13.1-1.82c2.22-.37,2.68-2.14,2.64-4.17l-.63-29.61-2.34-3.76c-.98-1.57-1.1-3.55-.34-5.23l.84-1.84c.67-1.46.54-3.19-.32-4.54l-8.28-12.9,2.08-.47,9.23,15.48-.77,6.69Z"/>
              </g>
            </g>
          </g>
          <path class="cls-45" d="M12.16,309.65c-2.73,7.44-3.43,15.45-4.1,23.35-2.16,25.45-4.33,50.9-6.49,76.35-.78,9.22-1.44,19.07,3.04,27.17,3.64,6.57,10.33,11.09,17.5,13.34,5.83,1.83,12.49,2.21,17.8-.81,4.36-2.48,7.29-6.98,8.89-11.74s2.02-9.82,2.43-14.83c2.75-33.76,5.5-67.53,8.25-101.29.59-7.22,1.09-14.87-2.22-21.31-4.87-9.46-16.31-11.6-25.95-9.79-9.22,1.73-16.09,11.28-19.14,19.57Z"/>
          <path class="cls-19" d="M55.76,277.38c1.31-3.66,2.62-7.33,3.93-10.99,18.7-3.85,40.19-2.44,57.16,4.16,1.14,3.17,2.34,6.64,3.49,9.81-21.34-3.52-42.81-4.95-64.58-2.98Z"/>
          <path class="cls-45" d="M246,405.88c-1.79-4.69-4.68-8.87-7.54-12.99-19.32-27.83-38.64-55.65-57.96-83.48-4.13-5.95-8.6-12.18-15.25-15.05-1.36-.59-2.72-.98-4.09-1.2l-40.81-12.8s-34.71-20.57-64.58-4.37l-25.41,13.78c-11.02,5.98-17.37,17.99-16.11,30.47l3.23,31.79c1.39,13.68,5.97,26.83,13.38,38.41,8.21,12.83,12.94,27.57,13.72,42.79l1.79,35.03h135.16l-3.54-73.99c4.6,6.67,9.19,13.34,13.79,20.01,5.25,7.62,11,15.65,19.6,19.05,6.99,2.77,15.02,2.01,21.99-.81,5.67-2.29,11.05-6.22,13.23-11.93,1.79-4.69,1.2-10.02-.59-14.72Z"/>
          <path class="cls-4" d="M246,405.88c-1.79-4.69-4.68-8.87-7.54-13-19.32-27.82-38.64-55.65-57.97-83.47-4.13-5.95-8.6-12.18-15.24-15.05-1.36-.59-2.73-.98-4.09-1.2l-40.22-12.62,2.22,6.32,36,11.29c1.36.22,2.73.61,4.09,1.2,6.64,2.87,11.11,9.1,15.24,15.05,19.33,27.82,38.65,55.65,57.97,83.47,2.86,4.13,5.75,8.31,7.54,13,1.49,3.91,2.16,8.28,1.28,12.34.52-.83.96-1.71,1.31-2.63,1.8-4.68,1.2-10.02-.59-14.71Z"/>
        </g>
        <g>
          <path class="cls-11" d="M247.19,285.68c-.15-6.2-1.96-9.87-4.69-17.55-.38-1.06-1.08-2.36-2.19-2.19-1.07.16-1.4,1.54-1.44,2.62-.24,7.03,1.52,14.12,5.02,20.22"/>
          <path class="cls-18" d="M251.98,303.61c-4.09-7.15-3.61-16.94-5.97-24.83-1.26-4.21-9.84-14.82-14.7-22.27-.4-.61-.82-1.24-1.44-1.63-.62-.39-1.5-.47-2.04.02-.85.76-.35,2.15.21,3.15,3.5,6.27,7,12.54,10.5,18.81-.05.02-.1.04-.15.07-1.7-1.3-3.44-2.56-5.36-3.48-.81-.39-1.67-.73-2.57-.77-.9-.04-1.85.26-2.42.96-.57.7-.64,1.82-.02,2.47-.87-.76-2.83-.53-3.68.26-.85.78-.98,2.22-.3,3.15-1.25-.26-2.89.31-3.51,1.42-.41.74-.49,1.61-.57,2.45l-.48,5.44c-.07.75-.11,1.58.34,2.18.4.52,1.07.73,1.7.91,1.22.35,2.44.69,3.66,1.04.16,1.75.41,3.47.9,5.04,1.26,4.04,3.43,7.91,6.77,10.51,6.51,5.05,7.99,13.93,10.3,22.18l19.01-9.25c-3.4-5.95-6.8-11.89-10.19-17.84Z"/>
          <path class="cls-45" d="M483.82,394.48c-4.62-22.09-9.24-44.19-13.86-66.28-1.43-6.86-2.9-13.81-5.63-20.07-3.04-6.97-8.76-14.69-15.04-15.34-6.56-.68-13.82,2.28-15.83,11.02-1.37,5.95-.08,12.61,1.22,18.88,5.33,25.86,10.67,51.72,16,77.58-9.7-1.32-19.44-2.08-29.15-1.09-1.86.19-3.9.54-5.11,1.96-1.3,1.53-1.2,3.89-.27,5.67.93,1.78,2.53,3.11,4.12,4.34,10.01,7.78,21.26,13.96,33.18,18.26,3.02,1.09,8.08,3.47,12.33,4.33.81.22,1.64.32,2.46.32.68.02,1.32-.01,1.89-.14.04,0,.08-.03.12-.03,1.79-.32,3.54-1.04,5.15-2,4.43-2.65,8.26-7.23,9.83-13.33,1.93-7.52.26-16.08-1.42-24.09Z"/>
          <g>
            <path class="cls-29" d="M372.45,202.9l-5.55,9.32c-2.15,3.6-3.05,7.8-2.57,11.97h0c-2.15,5.48-2.59,11.48-1.25,17.21l4.51,19.3c-.04,1.95,1.51,3.66,3.64,4.01l3.85-.3c1.35.23,2.32,1.32,2.25,2.56l4.67,32.46,28.98-.34-11.09-41.36-10.29.76-6.92-16.59s.43.28.43.28c2.62,1.69,4.56-1.12,5.54-2.98,1.51-2.86,3.54-6.42,3.09-9.66-.45-3.23-5.48-4.99-7.77-2.19-.36.44-.65.93-.91,1.42-.2.39-1.01,1.61-.91,2.03l-3.04-12.73,7.02-13.06-13.67-2.1Z"/>
            <g class="cls-44">
              <path class="cls-42" d="M364.33,224.19h0c-2.15,5.48-2.59,11.48-1.25,17.2l4.52,19.3c-.04,1.95,1.5,3.66,3.64,4.01l3.85-.3c1.35.23,2.31,1.32,2.25,2.56l4.67,32.46,3.85.28-4.68-32.46c.06-1.23-.9-2.33-2.25-2.56l-7.12.12c-2.13-.35-2.58-2.05-2.54-4.01l-3.76-16.97c-1.25-5.64-.85-11.52,1.16-16.94h0c.94-1.51,1.06-3.4.32-5.02l-.81-1.77c-.65-1.41-.53-3.06.31-4.36l7.95-12.39-2-.45-5.55,9.31c-2.15,3.6-3.05,7.81-2.57,11.97h0Z"/>
            </g>
          </g>
          <path class="cls-45" d="M466.04,324.97c1.22-11.98-4.88-23.51-15.47-29.25l-24.4-13.24c-28.35-7.58-61.94,4.17-62.01,4.19-5.9,2.06-12.04,4.4-17.11,8.11-.06.13-.12.26-.18.39-.53.36-1.05.72-1.54,1.08-6.92,5.12-33.25,52.14-45,67.13-8.96-11.05-31.57-41.28-39.56-53.05-9.64.33-18.69,5.42-23.47,13.8,9.9,17.67,47.14,87.63,64.77,87.69,8.95.03,23.11-13.43,35.53-27.48.89,1.58,1.75,3.18,2.51,4.82,1.4,3.02,2.75,6.23,3.11,9.56.38,3.47-.51,7.17-1.33,10.52-1.47,6.03-3.8,11.78-6.16,17.52-.97,3.39-2.36,6.68-3.62,9.57-.4.91-.8,1.81-1.21,2.7-1.67,4.45-3.28,8.93-4.87,13.42-1.2,3.4-2.43,6.82-3.73,10.21-.4,1.48-.79,2.95-1.17,4.44h133.8s-21.57-57.75-13.67-70.24c6.97-11.02,24.77-71.89,24.77-71.89Z"/>
          <path class="cls-1" d="M260.77,310.34c7.99,11.77,30.59,42,39.55,53.05,11.76-14.98,38.09-62.01,45.01-67.13.48-.36,1-.72,1.53-1.08.06-.13.13-.26.19-.39,5.07-3.71,11.22-6.05,17.11-8.11.08-.03,33.67-11.78,62.01-4.2l24.41,13.24c10.56,5.73,16.66,17.23,15.46,29.19-.99-9.68-6.69-18.43-15.46-23.19l-24.41-13.24c-28.34-7.58-61.93,4.17-62.01,4.2-5.89,2.06-12.04,4.4-17.11,8.11-.06.13-.13.26-.19.39-.53.36-1.05.72-1.53,1.08-6.92,5.12-33.25,52.15-45.01,67.13-8.96-11.05-34.02-47.09-42.01-58.86"/>
          <path class="cls-24" d="M364.24,220.33c2.96,5.67,8.15,9.92,11.21,15.55,4.31,7.92,3.88,17.56,2.28,26.44-2.75,15.2-8.59,30.41-6.05,45.65,2.25,13.49,11.24,25.44,23,32.44,11.76,6.99,26.03,9.22,39.59,7.41,7.54-1.01,15.28-3.44,20.48-8.99,5.54-5.91,7.35-14.46,7.26-22.56-.11-10.32-2.98-20.59-8.23-29.47-3.98-6.74-9.26-12.62-13.78-19.01s-8.4-13.59-8.96-21.4c-.44-6.21,1.24-12.39,1.25-18.62.03-14.53-9.55-28.2-22.54-34.7-9.63-4.82-20.81-5.92-31.35-4.11-9.49,1.63-13.86,5.74-16.06,15.36-1.23,5.35-.66,11.16,1.89,16.04Z"/>
        </g>
      </g>
    </g>
  </g>
</svg>