<?xml version="1.0" encoding="UTF-8"?>
<svg id="Layer_2" data-name="Layer 2" xmlns="http://www.w3.org/2000/svg" viewBox="0 0 2090.6 1581.96">
  <defs>
    <style>
      .cls-1 {
        fill: #4a75cb;
      }

      .cls-1, .cls-2, .cls-3, .cls-4, .cls-5, .cls-6, .cls-7, .cls-8, .cls-9, .cls-10, .cls-11, .cls-12, .cls-13, .cls-14, .cls-15, .cls-16, .cls-17 {
        stroke-width: 0px;
      }

      .cls-2 {
        fill: #a6c7f9;
      }

      .cls-3 {
        fill: #6882e8;
      }

      .cls-4 {
        fill: #e58638;
      }

      .cls-5 {
        fill: #e49963;
      }

      .cls-6 {
        fill: #2b478b;
      }

      .cls-7 {
        fill: #163560;
      }

      .cls-8 {
        fill: #202f4e;
      }

      .cls-9 {
        fill: #d68d5d;
      }

      .cls-10 {
        fill: #ee9849;
      }

      .cls-11 {
        fill: #d2e4ff;
      }

      .cls-12 {
        fill: #82b378;
      }

      .cls-13 {
        fill: #4c68d7;
      }

      .cls-14 {
        fill: #fff;
      }

      .cls-15 {
        fill: #1c468a;
      }

      .cls-16 {
        fill: #739af0;
      }

      .cls-17 {
        fill: #f3f9ff;
      }
    </style>
  </defs>
  <g id="Layer_1-2" data-name="Layer 1">
    <g>
      <g>
        <path class="cls-7" d="M587.75,1532.51s2.83,45.71,11.68,46.37c1.18.09,44.86.09,44.86.09l55.76-.32s-.37-13.44-16.66-16.28c-16.3-2.84-43.58-14.3-53.46-35.84-10.39-22.66-42.18,5.98-42.18,5.98Z"/>
        <g>
          <path class="cls-5" d="M567.65,999.02s24.29,6.24,39.73,1.59c15.44-4.65,42.02,2.99,46.3,8.62s2.71,7.87-4.93,9.81c-7.64,1.94-34.7,13.48-52.48,6.8s-40.98-6.92-40.98-6.92l12.35-19.9Z"/>
          <path class="cls-1" d="M357.7,788s27.29,193.96,72.48,211.33c22.3,8.57,120.84,28,149.98,29.95,0,0,7.14-5.79,5.4-29.37,0,0-103.24-37.9-117.91-58.51-21.83-30.68,13.55-125.32-13.84-154.14-27.39-28.81-73.52-41.19-96.12.74Z"/>
        </g>
        <path class="cls-2" d="M361.19,1535.32v-42.29h-66.58c-1.8,0-3.27-1.47-3.27-3.27v-6.78c0-1.8,1.47-3.27,3.27-3.27h66.58v-240.72c0-6.75,5.53-12.28,12.28-12.28h13.17c6.75,0,12.28,5.53,12.28,12.28v240.72h66.58c1.8,0,3.27,1.47,3.27,3.27v6.78c0,1.8-1.47,3.27-3.27,3.27h-66.58v42.29c48.17,3.64,86.76,20.98,97.59,43.39h-232.92c10.83-22.41,49.42-39.75,97.59-43.39Z"/>
        <path class="cls-4" d="M366.9,1196.62c7.96,13.5,17.17,26.16,26.66,38.14,29.33,37.03,61.26,67.56,66.82,96.41,1.11,5.75,2.86,11.95,5.16,18.47,2.32,6.61,5.19,13.56,8.51,20.75,12.45,27.04,31.06,57.33,49.64,84.87,32.13,47.6,62.33,87.32,62.33,87.32l55.4-2.36c-2.22-5.55-26.38-71.28-58.7-151.6-13.13-32.61-27.08-67.29-40.55-100.74-1.79-4.47-3.59-8.92-5.36-13.32-4.12-10.24-8.17-20.31-12.12-30.12-30.35-75.42-54.52-135.48-54.52-135.48,0,0-121.3-45.95-133.9-16.18-10.39,24.55-1.93,48.6,30.65,103.84Z"/>
        <path class="cls-7" d="M459.47,1401.91s-38.53,24.76-34.79,32.8c.5,1.07,21.79,39.21,21.79,39.21l27.47,48.53s11.55-6.87,6.09-22.49c-5.47-15.62-8.76-45.02,5.23-64.14,14.72-20.12-25.78-33.91-25.78-33.91Z"/>
        <path class="cls-10" d="M511.6,1087.14s152.26,94.84,169.26,158.58c17,63.74-202.54,199.71-202.54,199.71,0,0-24.08-21.25-28.33-36.83,0,0,99.24-118.89,120.76-145.54,13.22-16.37-195.47-56.66-220.97-96.32-25.5-39.66-16.37-73.03-16.37-73.03l178.19-6.58Z"/>
        <path class="cls-15" d="M224.25,1208.93h311.62c6.25,0,11.33,5.08,11.33,11.33v62.32c0,6.25-5.08,11.33-11.33,11.33H224.25c-6.25,0-11.33-5.08-11.33-11.33v-62.32c0-6.25,5.08-11.33,11.33-11.33Z"/>
        <path class="cls-5" d="M441.19,754.75c14.96,9.26,23.2,21.02,23.2,21.02-36.48,9.44-96.95-24.37-96.95-24.37,0,0,23.48-15.78,32.18-50.44.44-1.75.84-3.54,1.2-5.38,1.14-5.84,1.85-12.16,1.97-18.98l16.76,15.01,27.86,24.96s-.63,10.36-4.12,28.17c-.61,3.11-1.3,6.45-2.1,10Z"/>
        <path class="cls-16" d="M328.99,926.83c5.22,70.27-3.56,177.11,2.36,195.62,5.12,15.97,65.32,6.52,88.58,1.18,8.61-1.97,19.04-4.79,29.81-8.12,30.05-9.3,62.79-22.59,66.3-32.45.14-.39.25-.77.32-1.13.32-1.43.25-2.77-.06-4.13-1.17-5.03-5.68-10.47-6.21-22.91-.59-13.9-.5-30.26-1.03-47.86-.03-1.98-.05-4.14-.27-6.12v-.72c-.02-.38-.03-.75-.04-1.13-.5-19.63-1.53-40.26-2.72-60.73-.76-12.85-1.63-25.58-2.64-37.78-2.62-31.48-6.15-59.47-10.83-77.17-7.64-28.85-24.48-47.67-39.81-61.46l-11.09-9.51c-12.37,2.7-27,.91-40.23-5.36-14.32-6.8-19.27-11.67-21.76-9.84-33.07,25.52-56.86,103.71-50.69,189.62Z"/>
        <path class="cls-1" d="M449.58,1115.66c30.05-9.3,62.79-22.59,66.3-32.45.14-.39.25-.77.32-1.13-.02-1.38-.04-2.76-.06-4.13-1.17-5.03-5.68-10.47-6.21-22.91-.59-13.9-.5-30.26-1.03-47.86-.03-1.98-.05-4.14-.27-6.12v-.72c-.02-.38-.03-.75-.04-1.13l-113.5-51.48s-6.54,91.48,54.48,167.94Z"/>
        <path class="cls-9" d="M447.41,716.58s-.63,10.36-4.12,28.17c-27.21-8.79-39.55-33.37-43.67-43.79-1.17-2.94-1.68-4.77-1.68-4.77,0,0,1.06-.23,2.88-.61,3.82-.81,11.03-2.34,18.73-3.97l27.86,24.96Z"/>
        <path class="cls-5" d="M458.43,716.3s-59.78,6.74-63.4-30.55c-3.62-37.29-13.78-61.53,24.23-67.42,38.01-5.88,46.82,7.63,51.06,19.78,4.24,12.15,3.57,75.47-11.89,78.18Z"/>
        <path class="cls-6" d="M395.28,688.33s3.79-49.5,58.2-54.63c37.27-3.51,16.49-35.59,12.52-40.71,0,0-28.55,3.91-57.82,8.75-61.43,10.15-18.93,78.87-12.9,86.58Z"/>
        <g>
          <rect class="cls-1" x="706.75" y="907.94" width="5.5" height="144.06" transform="translate(1081.43 2131.23) rotate(-162)"/>
          <rect class="cls-1" x="538.8" y="1038.67" width="151.17" height="9.04" transform="translate(1206.35 2099.26) rotate(-178.78)"/>
        </g>
        <g>
          <path class="cls-5" d="M555.15,1028.84s23.46,8.88,39.32,5.96c15.86-2.92,41.43,7.6,45.07,13.67,3.63,6.07,1.83,8.12-5.98,9.21-7.81,1.09-35.97,9.58-52.91.98-16.94-8.6-39.96-11.4-39.96-11.4l14.47-18.42Z"/>
          <path class="cls-16" d="M369.75,795.95s5.74,195.78,48.74,218.03c21.21,10.98,117.01,41.15,145.77,46.31,0,0,7.74-4.97,8.61-28.6,0,0-98.43-49.05-110.74-71.16-18.31-32.9,27.29-123.07,3.24-154.72-24.05-31.66-68.53-49.05-95.61-9.86Z"/>
        </g>
      </g>
      <path class="cls-11" d="M917.63,0h779.97c54.4,0,98.56,44.16,98.56,98.56v1066.44c0,54.4-44.16,98.56-98.56,98.56h-779.97c-54.4,0-98.56-44.16-98.56-98.56V98.56c0-54.39,44.16-98.56,98.56-98.56Z" transform="translate(2615.23 1263.56) rotate(180)"/>
      <rect class="cls-17" x="915.08" y="132.42" width="786.67" height="1003.23" transform="translate(2616.83 1268.08) rotate(180)"/>
      <g>
        <path class="cls-3" d="M1590.19,1091.62h0c-22.92,0-41.51-18.58-41.51-41.51V476.25c0-22.92,18.58-41.51,41.51-41.51h0c22.92,0,41.51,18.58,41.51,41.51v573.86c0,22.92-18.58,41.51-41.51,41.51Z"/>
        <path class="cls-3" d="M1454.19,1091.62h0c-22.92,0-41.51-18.58-41.51-41.51V293.15c0-22.92,18.58-41.51,41.51-41.51h0c22.92,0,41.51,18.58,41.51,41.51v756.96c0,22.92-18.58,41.51-41.51,41.51Z"/>
        <path class="cls-3" d="M1305.8,1091.62h0c-22.92,0-41.51-18.58-41.51-41.51v-415.01c0-22.92,18.58-41.51,41.51-41.51h0c22.92,0,41.51,18.58,41.51,41.51v415.01c0,22.92-18.58,41.51-41.51,41.51Z"/>
        <path class="cls-3" d="M1161.4,1091.62h0c-22.92,0-41.51-18.58-41.51-41.51V405.3c0-22.92,18.58-41.51,41.51-41.51h0c22.92,0,41.51,18.58,41.51,41.51v644.82c0,22.92-18.58,41.51-41.51,41.51Z"/>
        <path class="cls-3" d="M1057.76,732.58v317.53c0,22.92-18.58,41.51-41.51,41.51h0c-22.92,0-41.51-18.58-41.51-41.51v-317.53c0-22.92,18.58-41.51,41.51-41.51h0c22.92,0,41.51,18.58,41.51,41.51Z"/>
      </g>
      <g>
        <path class="cls-2" d="M1123.84,312.38h70.3c4,0,7.27,3.27,7.27,7.27s-3.27,7.27-7.27,7.27h-70.3c-4,0-7.27-3.27-7.27-7.27s3.27-7.27,7.27-7.27Z"/>
        <path class="cls-2" d="M1178.12,338.85h16.01c4,0,7.27,3.27,7.27,7.27s-3.27,7.27-7.27,7.27h-16.01c-4,0-7.27-3.27-7.27-7.27s3.27-7.27,7.27-7.27Z"/>
        <path class="cls-2" d="M1413.52,200.76h70.3c4,0,7.27,3.27,7.27,7.27s-3.27,7.27-7.27,7.27h-70.3c-4,0-7.27-3.27-7.27-7.27s3.27-7.27,7.27-7.27Z"/>
        <path class="cls-2" d="M1467.81,227.23h16.01c4,0,7.27,3.27,7.27,7.27h0c0,4-3.27,7.27-7.27,7.27h-16.01c-4,0-7.27-3.27-7.27-7.27h0c0-4,3.27-7.27,7.27-7.27Z"/>
        <path class="cls-2" d="M1554.13,383.74h70.3c4,0,7.27,3.27,7.27,7.27s-3.27,7.27-7.27,7.27h-70.3c-4,0-7.27-3.27-7.27-7.27s3.27-7.27,7.27-7.27Z"/>
        <path class="cls-2" d="M1608.42,410.2h16.01c4,0,7.27,3.27,7.27,7.27h0c0,4-3.27,7.27-7.27,7.27h-16.01c-4,0-7.27-3.27-7.27-7.27h0c0-4,3.27-7.27,7.27-7.27Z"/>
        <path class="cls-2" d="M1270.65,542.66h70.3c4,0,7.27,3.27,7.27,7.27s-3.27,7.27-7.27,7.27h-70.3c-4,0-7.27-3.27-7.27-7.27s3.27-7.27,7.27-7.27Z"/>
        <path class="cls-2" d="M1324.94,569.13h16.01c4,0,7.27,3.27,7.27,7.27h0c0,4-3.27,7.27-7.27,7.27h-16.01c-4,0-7.27-3.27-7.27-7.27h0c0-4,3.27-7.27,7.27-7.27Z"/>
        <path class="cls-2" d="M981.1,639.84h70.3c4,0,7.27,3.27,7.27,7.27s-3.27,7.27-7.27,7.27h-70.3c-4,0-7.27-3.27-7.27-7.27s3.27-7.27,7.27-7.27Z"/>
        <path class="cls-2" d="M1035.39,666.31h16.01c4,0,7.27,3.27,7.27,7.27s-3.27,7.27-7.27,7.27h-16.01c-4,0-7.27-3.27-7.27-7.27s3.27-7.27,7.27-7.27Z"/>
      </g>
      <g>
        <path class="cls-6" d="M1016.26,619.15c-14.24,0-25.83-11.59-25.83-25.83s11.59-25.83,25.83-25.83,25.83,11.59,25.83,25.83-11.59,25.83-25.83,25.83ZM1016.26,577.49c-8.73,0-15.83,7.1-15.83,15.83s7.1,15.83,15.83,15.83,15.83-7.1,15.83-15.83-7.1-15.83-15.83-15.83Z"/>
        <path class="cls-6" d="M1005.26,577.49c-1.28,0-2.56-.49-3.54-1.46l-77.63-77.63H293.38c-2.76,0-5-2.24-5-5s2.24-5,5-5h634.84l80.56,80.56c1.95,1.95,1.95,5.12,0,7.07-.98.98-2.26,1.46-3.53,1.46Z"/>
      </g>
      <g>
        <path class="cls-6" d="M1164.81,1163.88c-14.25,0-25.83-11.59-25.83-25.83s11.59-25.83,25.83-25.83,25.83,11.59,25.83,25.83-11.59,25.83-25.83,25.83ZM1164.81,1122.21c-8.73,0-15.83,7.1-15.83,15.83s7.1,15.83,15.83,15.83,15.83-7.1,15.83-15.83-7.1-15.83-15.83-15.83Z"/>
        <path class="cls-6" d="M1877.69,1242.98h-624.84l-80.56-80.56c-1.95-1.95-1.95-5.12,0-7.07,1.95-1.95,5.12-1.95,7.07,0l77.63,77.63h620.7c2.76,0,5,2.24,5,5s-2.24,5-5,5Z"/>
      </g>
      <g>
        <path class="cls-6" d="M1450.57,180.76c-14.25,0-25.83-11.59-25.83-25.83s11.59-25.83,25.83-25.83,25.83,11.59,25.83,25.83-11.59,25.83-25.83,25.83ZM1450.57,139.1c-8.73,0-15.83,7.1-15.83,15.83s7.1,15.83,15.83,15.83,15.83-7.1,15.83-15.83-7.1-15.83-15.83-15.83Z"/>
        <path class="cls-6" d="M1439.57,139.1c-1.28,0-2.56-.49-3.54-1.46l-77.63-77.63h-630.7c-2.76,0-5-2.24-5-5s2.24-5,5-5h634.84l80.56,80.56c1.95,1.95,1.95,5.12,0,7.07-.98.98-2.26,1.46-3.54,1.46Z"/>
      </g>
      <path class="cls-16" d="M714.89,476.82h-414.34c-7,0-12.67-5.67-12.67-12.67h0c0-7,5.67-12.67,12.67-12.67h414.34c7,0,12.67,5.67,12.67,12.67h0c0,7-5.67,12.67-12.67,12.67Z"/>
      <path class="cls-16" d="M714.89,436.82h-254.34c-7,0-12.67-5.67-12.67-12.67h0c0-7,5.67-12.67,12.67-12.67h254.34c7,0,12.67,5.67,12.67,12.67h0c0,7-5.67,12.67-12.67,12.67Z"/>
      <path class="cls-16" d="M714.89,396.82h-254.34c-7,0-12.67-5.67-12.67-12.67h0c0-7,5.67-12.67,12.67-12.67h254.34c7,0,12.67,5.67,12.67,12.67h0c0,7-5.67,12.67-12.67,12.67Z"/>
      <path class="cls-16" d="M1146.32,35.84h-414.34c-7,0-12.67-5.67-12.67-12.67h0c0-7,5.67-12.67,12.67-12.67h414.34c7,0,12.67,5.67,12.67,12.67h0c0,7-5.67,12.67-12.67,12.67Z"/>
      <g>
        <g>
          <circle class="cls-13" cx="1453.02" cy="1368.14" r="90.17" transform="translate(-541.84 1428.16) rotate(-45)"/>
          <path class="cls-14" d="M1453.02,1291.92c42.1,0,76.22,34.13,76.22,76.22,0,20.83-8.35,39.71-21.9,53.46l-54.32-53.46-71.22,27.18c-3.22-8.44-4.99-17.61-4.99-27.18,0-42.09,34.12-76.22,76.21-76.22Z"/>
          <g>
            <path class="cls-12" d="M1464.16,1329.44h32.44c1.27,0,2.32,1.04,2.32,2.32h0c0,1.27-1.04,2.32-2.32,2.32h-32.44c-1.27,0-2.32-1.04-2.32-2.32h0c0-1.28,1.04-2.32,2.32-2.32Z"/>
            <path class="cls-12" d="M1464.16,1336.78h32.44c1.27,0,2.32,1.04,2.32,2.32s-1.04,2.32-2.32,2.32h-32.44c-1.27,0-2.32-1.04-2.32-2.32s1.04-2.32,2.32-2.32Z"/>
            <path class="cls-12" d="M1483.2,1344.12h13.4c1.27,0,2.32,1.04,2.32,2.32s-1.04,2.32-2.32,2.32h-13.4c-1.27,0-2.32-1.04-2.32-2.32s1.04-2.32,2.32-2.32Z"/>
          </g>
        </g>
        <polygon class="cls-12" points="1374.06 1325.82 1409.73 1290.15 1374.06 1290.15 1374.06 1325.82"/>
      </g>
      <g>
        <g>
          <circle class="cls-13" cx="1757.52" cy="1368.14" r="90.17" transform="translate(303.53 3055.32) rotate(-87.14)"/>
          <path class="cls-14" d="M1681.3,1368.14c0-42.09,34.12-76.22,76.21-76.22s76.22,34.13,76.22,76.22-34.12,76.22-76.22,76.22c-17.39,0-33.41-5.82-46.23-15.62l46.23-60.6-71.22,27.18c-3.22-8.44-4.99-17.61-4.99-27.18Z"/>
          <g>
            <path class="cls-12" d="M1769.28,1329.44h32.44c1.27,0,2.32,1.04,2.32,2.32h0c0,1.27-1.04,2.32-2.32,2.32h-32.44c-1.27,0-2.32-1.04-2.32-2.32h0c0-1.28,1.04-2.32,2.32-2.32Z"/>
            <path class="cls-12" d="M1769.28,1336.78h32.44c1.27,0,2.32,1.04,2.32,2.32s-1.04,2.32-2.32,2.32h-32.44c-1.27,0-2.32-1.04-2.32-2.32s1.04-2.32,2.32-2.32Z"/>
            <path class="cls-12" d="M1788.32,1344.12h13.4c1.27,0,2.32,1.04,2.32,2.32s-1.04,2.32-2.32,2.32h-13.4c-1.27,0-2.32-1.04-2.32-2.32s1.04-2.32,2.32-2.32Z"/>
          </g>
        </g>
        <polygon class="cls-12" points="1679.06 1325.82 1714.73 1290.15 1679.06 1290.15 1679.06 1325.82"/>
      </g>
      <path class="cls-8" d="M2087.61,1581.96H2.99c-1.64,0-2.99-1.35-2.99-2.99h0c0-1.64,1.35-2.99,2.99-2.99h2084.62c1.64,0,2.99,1.35,2.99,2.99h0c0,1.64-1.34,2.99-2.99,2.99Z"/>
    </g>
  </g>
</svg>