<?xml version="1.0" encoding="UTF-8"?>
<svg id="Layer_2" data-name="Layer 2" xmlns="http://www.w3.org/2000/svg" viewBox="0 0 156.03 180.49">
  <defs>
    <style>
      .cls-1 {
        fill: #7790f1;
        stroke-width: 0px;
      }
    </style>
  </defs>
  <g id="Layer_2-2" data-name="Layer 2">
    <g id="Layer_1-2" data-name="Layer 1-2">
      <g>
        <path class="cls-1" d="M.07,49.98c.04-2.1-.3-4.29,2.02-5.99l18.16-10.39s5.8-1.77,6.51,4.06v104.63s-.05,2-.89,2.94-1.97,1.61-2.62,1.81c-.46.14-.73.42-1.94.14s-2.26-.87-2.26-.87l-16.85-9.76s-2.02-1.02-2.14-4.29-.02-80.19,0-82.29h0Z"/>
        <path class="cls-1" d="M54.29,18.3s-1.35-3.53,1.24-5.12S78.23,0,78.23,0v62.08l-23.94-43.77h0Z"/>
        <path class="cls-1" d="M78.23,62.09l24.46,44.78-.09-90.04s.11-2.66-1.94-3.81L78.19.02l.04,62.07Z"/>
        <path class="cls-1" d="M53.94,74.57l24.29,43.85v62.07s-20.41-11.45-22.31-12.82c-1.91-1.37-2.16-2.37-2.16-7.59,0-7.41.18-85.52.18-85.52h0Z"/>
        <path class="cls-1" d="M78.23,118.42v62.07l22.9-13.32c2.97-2.59.58-6.07.58-6.07"/>
        <path class="cls-1" d="M129.62,37.89s1.1-6.53,7.23-4.03c5.88,3.38,17.58,10.16,17.58,10.16,0,0,1.85,1.33,1.58,3.02.03,1.87-.04,87.34-.04,87.34,0,0-.38,1.67-2.99,3.02s-16.72,9.54-16.72,9.54c0,0-6.07,1.81-6.58-4.02-.43-5.72-.06-105.04-.06-105.04h0Z"/>
      </g>
    </g>
  </g>
</svg>