<?xml version="1.0" encoding="UTF-8"?>
<svg id="Layer_2" data-name="Layer 2" xmlns="http://www.w3.org/2000/svg" viewBox="0 0 59.58 42.95">
  <defs>
    <style>
      .cls-1 {
        fill: #7790f1;
        stroke-width: 0px;
      }
    </style>
  </defs>
  <g id="OBJECTS">
    <g>
      <path class="cls-1" d="M0,.35C7.34.25,14.68-.02,22.02.19c1.29.04,3.62,2.08,3.61,3.2-.05,10.95,1.91,22.06-4.65,32.33-4.64,7.26-6.36,8.6-16.29,5.89,2.24-4.85,4.43-9.59,7.24-15.68H0V.35Z"/>
      <path class="cls-1" d="M38.54,41.38c2.25-4.76,4.5-9.52,7.1-15-2.22-.16-3.75-.35-5.28-.38q-6.95-.12-6.99-7.24c-.02-4.74.04-9.47-.03-14.21-.04-2.93.92-4.62,4.21-4.55,5.88.12,11.76.1,17.64.02,2.9-.04,4.13,1.19,4.08,4.1-.1,6.69.95,13.6-.38,20.03-1.24,6.03-4.07,12.25-7.92,17-1.84,2.27-7.65,1.31-11.66,1.81-.26-.52-.52-1.05-.77-1.57Z"/>
    </g>
  </g>
</svg>