<?xml version="1.0" encoding="UTF-8"?>
<svg id="Layer_2" data-name="Layer 2" xmlns="http://www.w3.org/2000/svg" version="1.1" viewBox="0 0 588.5 180.5">
  <defs>
    <style>
      .cls-1 {
        fill: #7790f1;
        stroke-width: 0px;
      }
    </style>
  </defs>
  <g id="Layer_1-2" data-name="Layer 1-2">
    <g>
      <path class="cls-1" d="M-232.5,140.2c0-2.1-.3-4.3,2-6l18.2-10.4s5.8-1.8,6.5,4.1v104.6s0,2-.9,2.9-2,1.6-2.6,1.8c-.5.1-.7.4-1.9.1s-2.3-.9-2.3-.9l-16.9-9.8s-2-1-2.1-4.3,0-80.2,0-82.3h0Z"/>
      <path class="cls-1" d="M-178.2,108.5s-1.3-3.5,1.2-5.1,22.7-13.2,22.7-13.2v62.1l-23.9-43.8h0Z"/>
      <path class="cls-1" d="M-154.3,152.3l24.5,44.8v-90c0,0,0-2.7-2-3.8l-22.5-13v62.1Z"/>
      <path class="cls-1" d="M-178.6,164.8l24.3,43.8v62.1s-20.4-11.4-22.3-12.8c-1.9-1.4-2.2-2.4-2.2-7.6,0-7.4.2-85.5.2-85.5h0Z"/>
      <path class="cls-1" d="M-154.3,208.7v62.1l22.9-13.3c3-2.6.6-6.1.6-6.1"/>
      <path class="cls-1" d="M-102.9,128.1s1.1-6.5,7.2-4c5.9,3.4,17.6,10.2,17.6,10.2,0,0,1.9,1.3,1.6,3,0,1.9,0,87.3,0,87.3,0,0-.4,1.7-3,3s-16.7,9.5-16.7,9.5c0,0-6.1,1.8-6.6-4-.4-5.7,0-105,0-105h0Z"/>
    </g>
  </g>
</svg>