<?xml version="1.0" encoding="UTF-8"?>
<svg id="Layer_2" data-name="Layer 2" xmlns="http://www.w3.org/2000/svg" viewBox="0 0 133.67 247.26">
  <defs>
    <style>
      .cls-1 {
        fill: #7790f1;
        stroke-width: 0px;
      }
    </style>
  </defs>
  <g id="Layer_3" data-name="Layer 3">
    <path class="cls-1" d="M129.6,0c2.99,1.19,4.1,3.4,4.07,6.6-.1,11.59-.03,23.18-.05,34.77,0,4.81-1.72,6.44-6.58,6.49-8.21.09-16.42.05-24.61.38-4.44.18-8.73,1.48-10.92,5.87-1.05,2.1-1.81,4.57-1.86,6.9-.21,9.16-.09,18.34-.09,27.88.86,0,1.7,0,2.55,0,11.11,0,22.21,0,33.32,0,4.96,0,6.68,1.71,6.68,6.67,0,12.55,0,25.11-.01,37.66,0,4.68-1.73,6.38-6.42,6.39-11.11.01-22.21,0-33.32,0-.87,0-1.73,0-2.9,0,0,1.16,0,2.1,0,3.04,0,32.43,0,64.87,0,97.3,0,5.72-1.6,7.31-7.31,7.31-12.72,0-25.43,0-38.15,0-5.02,0-6.7-1.66-6.7-6.64,0-32.59,0-65.19,0-97.78,0-.95,0-1.91,0-3.22-1.03,0-1.88,0-2.72,0-9.42,0-18.83.01-28.25,0-4.52,0-6.29-1.75-6.3-6.28-.03-12.72-.03-25.43,0-38.15.01-4.46,1.86-6.28,6.33-6.29,9.34-.02,18.67,0,28.01,0,.87,0,1.75,0,2.94,0,0-1.04,0-1.9,0-2.75.04-9.98-.24-19.97.19-29.93.61-14.18,4.86-27.17,14.48-37.99,8.05-9.05,18.26-14.28,30-16.72C84.79.91,87.64.49,90.48,0c13.04,0,26.08,0,39.12,0Z"/>
  </g>
</svg>