<?xml version="1.0" encoding="UTF-8"?>
<svg id="Layer_2" data-name="Layer 2" xmlns="http://www.w3.org/2000/svg" viewBox="0 0 359.52 409.44">
  <defs>
    <style>
      .cls-1 {
        fill: #7790f1;
        stroke-width: 0px;
      }
    </style>
  </defs>
  <g id="Layer_3" data-name="Layer 3">
    <g>
      <path class="cls-1" d="M198.96,409.44h-40.32c-.3-.08-.6-.2-.9-.22-9.03-.8-18.08-1.51-27.1-2.39-15.32-1.49-30.5-3.92-45.48-7.49-15.09-3.6-29.89-8.14-44.02-14.62-10.68-4.9-20.55-11.04-28.84-19.48-5.82-5.92-9.82-12.86-11.42-21.07C.51,342.25.29,340.32,0,338.4c0-.96,0-1.92,0-2.88.07-.26.18-.52.2-.78.25-4.08,1.28-7.96,2.96-11.66,3.23-7.1,8.3-12.76,14.11-17.8,8.15-7.07,17.51-12.12,27.38-16.3,19.7-8.36,40.27-13.67,61.3-17.31,1.7-.29,3.38-.69,5.24-1.07-.89-1.5-1.58-2.76-2.35-3.97-12.41-19.38-24.82-38.76-37.24-58.14-5.62-8.76-10.75-17.76-14.64-27.44-7.62-18.98-10.41-38.65-8.42-58.98,1.15-11.73,3.75-23.17,7.62-34.31,7.86-22.62,20.78-41.74,39.51-56.79,14.06-11.3,29.88-19.29,47.02-24.74,11.91-3.79,24.11-5.95,36.64-6.04.3,0,.6-.12.91-.19.48,0,.96,0,1.44,0,.38.07.76.19,1.15.19,9.81.08,19.42,1.51,28.88,4.05,15.4,4.13,29.46,11.12,42.59,20.09,18.49,12.63,33.12,28.67,43.05,48.82,8.91,18.07,13.5,37.25,14.17,57.37.53,15.8-1.92,31.13-7.22,46.02-3.91,10.98-9.43,21.12-15.71,30.9-12.66,19.7-25.26,39.43-37.88,59.15-.8,1.26-1.52,2.57-2.32,3.93.38.11.53.16.68.19,8.44,1.77,16.92,3.39,25.32,5.33,13.67,3.15,27.13,7.03,40.01,12.69,10.39,4.57,20.28,10.01,28.95,17.44,7.41,6.35,12.75,14.06,15.09,23.65.48,1.96.73,3.97,1.08,5.95v4.32c-.07.18-.18.35-.19.53-.44,5.65-2.35,10.82-5.24,15.65-4.85,8.09-11.59,14.32-19.45,19.39-11.14,7.18-23.2,12.45-35.69,16.78-22.03,7.63-44.85,11.43-67.97,13.66-8.83.85-17.67,1.63-26.5,2.49-1.85.18-3.68.58-5.52.88ZM179.7,333.09c1.29-1.96,2.49-3.74,3.64-5.55,27.36-42.84,54.68-85.69,82.08-128.5,5.85-9.14,11.38-18.41,15.28-28.58,7.07-18.39,9.05-37.25,5.15-56.62-3.22-16-9.69-30.64-18.83-44.11-10.66-15.71-24.51-27.75-41.97-35.38-19.15-8.36-39.2-10.94-59.9-8.72-11.39,1.22-22.22,4.44-32.48,9.53-11.81,5.86-21.99,13.89-30.95,23.52-10.7,11.5-19.01,24.44-23.98,39.42-5.63,17-7.11,34.35-4.35,52.04,2.22,14.27,7.06,27.59,14.84,39.78,26.58,41.62,53.19,83.23,79.79,124.84,3.85,6.03,7.68,12.07,11.66,18.32ZM186.67,385.6c5.32-.32,11.7-.7,18.08-1.08,12.25-.74,24.48-1.68,36.64-3.36,17.69-2.44,35.05-6.3,51.9-12.3,8.69-3.1,17.3-6.43,25.21-11.28,5.45-3.35,10.43-7.3,14.18-12.56,3.6-5.05,3.58-9.82-.03-14.86-3.89-5.43-9.02-9.49-14.71-12.84-9.68-5.7-20.07-9.81-30.74-13.24-16.3-5.23-33.07-8.22-49.98-10.6-2.42-.34-3.89.56-5.12,2.39-.22.33-.46.66-.67.99-12.39,19.44-24.78,38.89-37.19,58.32-1.68,2.62-3.24,5.36-5.21,7.75-5.11,6.21-13.76,6.04-18.78-.22-.65-.81-1.25-1.66-1.8-2.54-11.44-17.96-22.88-35.93-34.32-53.9-2.23-3.51-4.43-7.03-6.69-10.52-1.53-2.36-2.76-2.82-5.47-2.29-1.88.37-3.76.75-5.66,1-12.25,1.61-24.35,4.05-36.28,7.26-12.97,3.49-25.48,8.14-37.05,15.08-6,3.6-11.44,7.94-16.01,13.24-3.6,4.17-3.99,8.85-1.05,13.5,1.48,2.34,3.37,4.48,5.36,6.41,6.05,5.86,13.35,9.85,20.89,13.39,10.56,4.96,21.69,8.28,32.95,11.2,15.42,4,31.07,6.73,46.9,8.43,7.94.85,15.92,1.5,23.89,2.01,9.88.63,19.77,1.37,30.75.61Z"/>
      <path class="cls-1" d="M239.64,133.24c0,32.95-26.96,59.87-59.98,59.83-33.44-.04-60.33-27.79-59.8-60.87.51-31.72,26.49-58.95,60.18-58.95,32.72,0,59.6,27.08,59.6,60ZM179.78,97.32c-19.6,0-35.87,16.28-35.9,35.92-.03,19.15,16.31,35.55,35.2,35.81,19.14.26,36.53-15.44,36.55-35.89.02-19.53-16.33-35.84-35.85-35.84Z"/>
    </g>
  </g>
</svg>