<?xml version="1.0" encoding="UTF-8"?>
<svg id="Layer_2" data-name="Layer 2" xmlns="http://www.w3.org/2000/svg" viewBox="0 0 588.45 180.48">
  <defs>
    <style>
      .cls-1 {
        fill: #7790f1;
        stroke-width: 0px;
      }
    </style>
  </defs>
  <g id="Layer_1-2" data-name="Layer 1">
    <g>
      <path class="cls-1" d="M.07,49.98c.04-2.1-.3-4.29,2.02-5.99l18.16-10.39s5.8-1.77,6.51,4.06v104.63s-.05,2-.89,2.94c-.84.94-1.97,1.61-2.62,1.81-.46.14-.73.42-1.94.14s-2.26-.87-2.26-.87l-16.85-9.76s-2.02-1.02-2.14-4.29-.02-80.19.01-82.29Z"/>
      <path class="cls-1" d="M54.29,18.3s-1.35-3.53,1.24-5.12S78.23,0,78.23,0v62.08s-23.94-43.77-23.94-43.77Z"/>
      <path class="cls-1" d="M78.23,62.09l24.46,44.78-.09-90.04s.11-2.66-1.94-3.81L78.19.02l.04,62.07Z"/>
      <path class="cls-1" d="M53.94,74.57l24.29,43.85v62.07s-20.41-11.45-22.31-12.82c-1.91-1.37-2.16-2.37-2.16-7.59,0-7.41.18-85.52.18-85.52Z"/>
      <path class="cls-1" d="M78.23,118.42v62.07l22.9-13.32c2.97-2.59.58-6.07.58-6.07"/>
      <path class="cls-1" d="M129.62,37.89s1.1-6.53,7.23-4.03c5.88,3.38,17.58,10.16,17.58,10.16,0,0,1.85,1.33,1.58,3.02.03,1.87-.04,87.34-.04,87.34,0,0-.38,1.67-2.99,3.02s-16.72,9.54-16.72,9.54c0,0-6.07,1.81-6.58-4.02-.43-5.72-.06-105.04-.06-105.04Z"/>
      <path class="cls-1" d="M173.41,104.36h28.62s1.83.04,1.83-2.34v-5.72s-.25-1.83-1.83-1.83h-28.62l.04-37.86,32.21.22s2.6.36,2.62-2.59c.03-3.61,0-5.82,0-5.82,0,0,.43-1.73-2.91-1.94-3.34-.22-40.55,0-40.55,0,0,0-2.37.11-2.05,3.88.32,3.77-.04,79-.04,79,0,0-.07,2.21,2.1,2.14,2.18-.07,41,0,41,0,0,0,2.45.32,2.46-2.27.02-2.59,0-5.75,0-5.75,0,0,.2-1.83-1.89-1.91-2.09-.07-32.86-.29-32.86-.29"/>
      <path class="cls-1" d="M273.22,73.61c-.72-36.24-48.61-27.23-53.78-27.23-4.46-.19-4.03,2.21-4.03,2.21v81.39s1.44,1.53,1.44,1.53h7.48l1.87-2.25v-24.16c5.33.19,49.47,8.2,47.02-31.49ZM263.01,75.77c-1.02,25.61-26.59,17.85-36.81,19.27v-38.54c8.72,1.2,37.48-5.37,36.81,19.27Z"/>
      <path class="cls-1" d="M336.5,128.74s-31.06-72.84-34.3-80.6c-3.24-7.77-6.18.14-6.18.14,0,0-32.5,77.65-33.72,80.24-1.22,2.59.72,2.99.72,2.99,0,0,3.74.25,7.19,0s3.11-1.48,3.11-1.48l6.31-15.46,38.99.14s3.36,6.9,5.37,11.86c2.01,4.96,3.24,4.94,3.24,4.94,0,0,3.74-.19,7.26,0s2.01-2.77,2.01-2.77ZM283.51,105.28l15.8-38.7,15.8,38.56-31.6.14Z"/>
      <path class="cls-1" d="M385.36,49.81s2.39.52,1.47,2.91c-.92,2.39-2.3,5.59-2.3,5.59,0,0-1.17,1.87-2.62,1.24,0,0-15.06-6.67-21.21-4.81-6.15,1.86-7.98,2.51-9.38,4.94s-2.91,7.38,0,12.35c2.91,4.96,6.9,8.09,13.16,10.68,6.26,2.59,16.07,9.38,19.09,12.08,3.02,2.7,7.77,10.35,7.44,15.85-.32,5.5-1.51,9.71-4.96,13.81-3.45,4.1-11.09,8.81-18.77,8.84-8.02.04-10.68.13-16.18-1.66s-12.48-4.46-12.83-4.7c-.42-.29-1.47-1.55-.83-2.91s2.34-5.18,2.48-5.61.95-1.77,2.82-.98c.73.31,3.61,1.67,5.26,2.42,1.88.86,3.77,1.47,3.72,1.46,0,0,9.19,3.41,16.44,2.02s8.63-3.91,9.86-5.22c1.59-1.7,2.89-7.01.54-12-2.35-4.99-12.92-10.47-12.92-10.47,0,0-17.47-9.56-19.77-12.73-2.3-3.16-8.41-8.27-6.97-18.84,1.44-10.57,6.61-14.52,12.65-16.97,6.04-2.44,13.72-2.62,19.06-1.67,5.34.94,14.76,4.38,14.76,4.38Z"/>
      <path class="cls-1" d="M437.9,44.52c-25.02,0-45.3,19.96-45.3,44.58s20.28,44.58,45.3,44.58,45.3-19.96,45.3-44.58-20.28-44.58-45.3-44.58ZM438.83,122.92c-19.07,0-33.63-15.06-33.63-33.82s14.26-33.49,33.33-33.49,33.33,14.73,33.33,33.49-13.95,33.82-33.02,33.82Z"/>
      <path class="cls-1" d="M588.43,48.06s-.89-2.03-3.44-1.89c-2.55.14-92.75,0-92.75,0,0,0-2.75-.1-2.73,3.46.02,4.47.15,79.43.15,79.43,0,0,.11,2.8,2.3,2.75,2.18-.05,6.61,0,6.61,0,0,0,2.53-.52,2.59-2.57s.14-24.81.14-24.81l28.62.07s2.34-.22,2.3-2.37c-.04-2.16,0-6.26,0-6.26,0,0-.8-1.68-2.7-1.79-1.91-.11-28.32.07-28.32.07l.11-37.8s31.52.4,31.74.4c1.77-.01,2.06-.39,2.06-.39l.14-.1s.2.18.47.28l.42.14c.37.07.36.05.83.05s18.44.16,18.44.16v72.27s.19,2.05,2.31,2.43c2.8.51,8.2-.14,8.2-.14,0,0,1.05-.36,1.08-2.73l.14-71.83,19.84-.14s1.4-.47,1.44-2.16c.04-1.69,0-6.54,0-6.54Z"/>
      <polygon class="cls-1" points="492.09 143.28 495.39 143.28 495.37 166.5 508.17 166.5 508.17 169.65 492.09 169.65 492.09 143.28"/>
      <polygon class="cls-1" points="516.92 143.28 520.23 143.28 520.21 166.5 533.01 166.5 533.01 169.65 516.92 169.65 516.92 143.28"/>
      <path class="cls-1" d="M563,152.17h3.52s-1.37-9.49-13.09-9.49c-11,0-13.01,10.42-13.19,13.78s2.05,14.01,13.55,13.72c10.96-.72,12.98-9.74,12.98-9.74l-3.67-.04s-1.06,5.83-9.1,6.37c-9.31.61-9.88-9.82-9.88-9.82,0,0-1.5-9.83,9.1-10.39,8.61.37,9.78,5.61,9.78,5.61Z"/>
      <circle class="cls-1" cx="577.45" cy="167.44" r="2.56"/>
    </g>
  </g>
</svg>