<?xml version="1.0" encoding="UTF-8"?>
<svg id="Layer_2" data-name="Layer 2" xmlns="http://www.w3.org/2000/svg" viewBox="0 0 314.59 216.76">
  <defs>
    <style>
      .cls-1 {
        fill: #7790f1;
        stroke: #7790f1;
        stroke-miterlimit: 10;
        stroke-width: 8px;
      }
    </style>
  </defs>
  <g id="Layer_3" data-name="Layer 3">
    <path class="cls-1" d="M156.92,212.76c-48.03,0-96.05,0-144.08,0-7.94,0-8.84-.91-8.84-8.91,0-63.65,0-127.29,0-190.94,0-7.99.9-8.91,8.84-8.91,96.38,0,192.77,0,289.15,0,7.6,0,8.59.99,8.59,8.66,0,63.81,0,127.63,0,191.44,0,7.66-.99,8.66-8.59,8.66-48.36,0-96.72,0-145.07,0ZM157.29,139.07c45.25-41.71,90.11-83.05,135.77-125.14H21.52c45.63,42.06,90.4,83.33,135.77,125.14ZM289.96,202.95c-1.16-1.23-1.54-1.76-2.04-2.12-33.07-24.33-66.17-48.62-99.18-73.02-2.55-1.88-3.96-1.1-5.86.7-6.76,6.39-13.6,12.7-20.48,18.97-4.25,3.88-5.96,3.87-10.21,0-6.76-6.15-13.57-12.26-20.1-18.65-2.52-2.46-4.18-2.59-7.07-.45-32.32,23.94-64.75,47.73-97.18,71.54-.99.73-2.23,1.12-3.36,1.66.41.46.82.91,1.22,1.37h264.25ZM193.12,119.14c35.96,26.45,71.41,52.51,107.37,78.95V20.22c-36.1,33.26-71.46,65.84-107.37,98.92ZM121.46,119.14C85.45,85.96,50.1,53.39,14.13,20.26v177.82c36.02-26.49,71.32-52.45,107.33-78.94Z"/>
  </g>
</svg>