<?xml version="1.0" encoding="UTF-8"?>
<svg id="Layer_2" data-name="Layer 2" xmlns="http://www.w3.org/2000/svg" viewBox="0 0 182.91 182.46">
  <defs>
    <style>
      .cls-1 {
        fill: #7790f1;
        stroke-width: 0px;
      }
    </style>
  </defs>
  <g id="Layer_3" data-name="Layer 3">
    <g>
      <path class="cls-1" d="M101.04,77.53c1.18-1.72,2.08-3.15,3.08-4.49,3.16-4.24,7.15-7.53,11.76-10.09,6.22-3.46,12.9-5.13,20.02-5.3,7.28-.17,14.4.56,21.31,3,7.77,2.75,13.73,7.66,17.94,14.72,3.37,5.66,5.18,11.86,6.19,18.29.64,4.05,1.18,8.16,1.26,12.25.24,11.85.26,23.7.3,35.56.04,13.03,0,26.06,0,39.09v1.86c-.54,0-1.02,0-1.5,0-11.69,0-23.39,0-35.08,0q-1.67,0-1.67-1.74c0-21.13.02-42.27-.03-63.4-.01-5.55-.54-11.05-2.76-16.23-2.59-6.02-7.24-9.21-13.72-9.89-4.46-.47-8.78-.05-12.97,1.62-4.69,1.88-7.76,5.36-9.69,9.89-1.88,4.41-2.77,9.07-2.79,13.84-.13,21.33-.17,42.67-.25,64,0,2.19.21,1.91-1.96,1.91-11.49,0-22.97-.02-34.46.03-1.3,0-1.59-.39-1.59-1.63.03-39.55.02-79.1.03-118.65,0-1.68.03-1.71,1.67-1.71,11.07,0,22.14,0,33.2,0,1.58,0,1.61.05,1.61,1.62,0,4.59,0,9.19,0,13.78,0,.43.05.86.09,1.65Z"/>
      <path class="cls-1" d="M3.01,182.43c0-.65,0-1.14,0-1.62,0-39.55,0-79.1,0-118.66q0-1.67,1.74-1.68c11.49,0,22.97,0,34.46,0,1.8,0,1.8,0,1.8,1.82,0,39.47,0,78.94,0,118.41,0,1.73,0,1.73-1.69,1.73-11.57,0-23.14,0-34.71,0-.46,0-.91,0-1.61,0Z"/>
      <path class="cls-1" d="M0,21.98C-.16,10.05,10.04-.17,22.23,0c12.01.17,21.99,9.72,21.96,22.06-.02,12.48-9.58,22.13-22.23,22.16C9.46,44.25-.13,34.17,0,21.98Z"/>
    </g>
  </g>
</svg>