<?xml version="1.0" encoding="UTF-8"?>
<svg id="Layer_2" data-name="Layer 2" xmlns="http://www.w3.org/2000/svg" viewBox="0 0 312.33 313.19">
  <defs>
    <style>
      .cls-1 {
        fill: #7790f1;
        stroke-width: 0px;
      }
    </style>
  </defs>
  <g id="Layer_3" data-name="Layer 3">
    <g>
      <path class="cls-1" d="M286.87,240.97c-.49,2.43-.77,4.93-1.52,7.29-4.98,15.71-9.95,31.42-15.14,47.05-4.01,12.09-14.93,19.21-27.47,17.67-101.14-12.43-173.65-65.25-218.76-156.08C10.38,129.53,2.26,100.42.07,69.78c-.81-11.27,5.43-22.33,16.21-26.06,16.83-5.82,33.77-11.32,50.84-16.4,11.06-3.29,21.59,3.21,25.21,14.75,5.04,16.04,9.23,32.39,15.22,48.05,3.92,10.26,3.08,17.7-5.77,24.41-3.94,2.99-7.32,6.83-10.52,10.65-1.06,1.26-1.61,4.03-.97,5.47,18.84,42.5,49.6,73.18,91.94,92.36,2.83,1.28,4.5.68,6.48-1.38,5.08-5.28,10.39-10.35,15.54-15.57,3.28-3.33,6.98-4.08,11.41-2.67,18.39,5.86,36.82,11.61,55.23,17.41,9.94,3.13,15.64,10.46,15.98,20.16ZM240.45,294.14c9.58.69,10.4.16,13.27-8.78,4.38-13.62,8.63-27.28,13.22-40.83,1.27-3.77.55-5.24-3.3-6.39-15.46-4.6-30.8-9.62-46.28-14.18-1.69-.5-4.5.37-5.87,1.61-5.42,4.92-10.56,10.16-15.65,15.43-3.72,3.85-7.8,4.56-12.7,2.6-54.04-21.64-91.86-59.46-113.51-113.49-1.96-4.89-1.28-8.98,2.57-12.7,5.39-5.21,10.71-10.5,15.8-15.99,1.08-1.17,1.86-3.6,1.43-5.05-4.75-15.94-9.82-31.78-14.65-47.7-.9-2.95-2.27-3.62-5.11-2.7-15.18,4.96-30.4,9.78-45.58,14.75-3.73,1.22-5.74,3.9-5.31,7.99.62,5.79.93,11.65,2.02,17.36,11.73,61.52,41.16,112.91,89.76,152.51,37.82,30.81,81,50.17,129.89,55.57Z"/>
      <path class="cls-1" d="M178.82,0c61.6,2.56,117.31,49.19,130.22,110.16,2.02,9.53,2.56,19.4,3.25,29.15.45,6.47-2.89,9.94-8.38,10.04-5.5.1-8.91-3.74-9.04-10.18-1.19-56.02-38.94-103.62-93.37-117.05-9.27-2.29-19.02-2.71-28.58-3.71-4.08-.43-7.06-2.07-8.5-5.83-1.36-3.55-.97-7.65,2.31-9.41,3.58-1.92,8.04-2.19,12.12-3.18Z"/>
      <path class="cls-1" d="M274.22,138.53c0,.5,0,1,0,1.5.04,7.34-2.7,11.08-8.29,11.33-5.94.26-8.82-3.13-9.23-10.87-2.27-42.53-31.18-75.32-73.12-82.82-3.75-.67-7.59-.93-11.41-1.14-6.94-.38-10.33-3.19-10.31-8.81.02-5.7,3.82-8.96,10.9-8.69,36.52,1.41,64.94,17.49,85.14,47.84,10.36,15.57,15.4,33.01,16.32,51.66Z"/>
      <path class="cls-1" d="M236.09,140.44c.14,8.68-3.09,12.79-8.66,12.92-5.62.13-8.89-3.53-9.42-10.55-1.83-24.39-16.91-42.07-40.22-46.94-3.07-.64-6.3-.44-9.41-.94-5.96-.96-8.92-4.45-8.52-9.69.39-4.97,4.25-8.3,10.11-8.12,30.77.96,56.61,21.53,64.06,51.4,1.12,4.49,1.58,9.15,2.05,11.92Z"/>
    </g>
  </g>
</svg>